<svg width="90" height="76" viewBox="0 0 90 76" fill="none" xmlns="http://www.w3.org/2000/svg">
<g opacity="0.5">
<path d="M76.1127 62.1127C58.9296 79.2958 31.0704 79.2958 13.8873 62.1127C-3.29577 44.9296 -3.29577 17.0704 13.8873 -0.112697C31.0704 -17.2958 58.9296 -17.2958 76.1127 -0.112697C93.2958 17.0704 93.2958 44.9296 76.1127 62.1127Z" stroke="white" stroke-width="2"/>
<path d="M72.9307 58.9307C57.505 74.3564 32.495 74.3564 17.0693 58.9307C1.64357 43.505 1.64357 18.495 17.0693 3.06928C32.495 -12.3564 57.505 -12.3564 72.9307 3.06928C88.3564 18.495 88.3564 43.505 72.9307 58.9307Z" stroke="white"/>
<path d="M24.1994 16.1241C23.0514 17.2721 23.4434 18.9381 25.0114 19.0641C27.0694 19.2321 28.7634 19.2181 30.8634 19.0361C31.8714 18.9521 32.5294 18.5181 32.5294 17.4961C32.5294 16.4741 31.8714 16.0261 30.8634 15.9281C30.2614 15.8721 29.2394 15.8301 28.2034 15.9421L29.8694 14.5561C31.0034 13.6041 31.7734 12.5261 31.7734 10.9301C31.7734 8.85808 29.8414 7.62608 27.7834 7.62608C25.8934 7.62608 24.3674 8.31208 23.6674 9.57208C23.3174 10.2021 23.1074 11.0981 24.0454 11.6441C24.8574 12.1201 25.8234 11.9381 26.2154 11.2941C26.4954 10.8321 26.7754 10.3981 27.3774 10.3981C27.8954 10.3981 28.3994 10.7481 28.3994 11.3081C28.3994 11.9241 27.8814 12.4421 27.3354 12.9881L24.1994 16.1241ZM33.8518 16.1241C32.7038 17.2721 33.0958 18.9381 34.6638 19.0641C36.7218 19.2321 38.4158 19.2181 40.5158 19.0361C41.5238 18.9521 42.1818 18.5181 42.1818 17.4961C42.1818 16.4741 41.5238 16.0261 40.5158 15.9281C39.9138 15.8721 38.8918 15.8301 37.8558 15.9421L39.5218 14.5561C40.6558 13.6041 41.4258 12.5261 41.4258 10.9301C41.4258 8.85808 39.4938 7.62608 37.4358 7.62608C35.5458 7.62608 34.0198 8.31208 33.3198 9.57208C32.9698 10.2021 32.7598 11.0981 33.6978 11.6441C34.5098 12.1201 35.4758 11.9381 35.8678 11.2941C36.1478 10.8321 36.4278 10.3981 37.0298 10.3981C37.5478 10.3981 38.0518 10.7481 38.0518 11.3081C38.0518 11.9241 37.5338 12.4421 36.9878 12.9881L33.8518 16.1241ZM44.9601 19.1761C46.0381 19.1761 46.7521 18.6021 46.7521 17.6081C46.7521 16.6141 46.0381 16.0401 44.9601 16.0401C43.8821 16.0401 43.1681 16.6141 43.1681 17.6081C43.1681 18.6021 43.8821 19.1761 44.9601 19.1761ZM52.8418 19.1761C55.4458 19.1761 57.5318 17.4401 57.5318 13.4081C57.5318 9.36208 55.4458 7.62608 52.8418 7.62608C50.2378 7.62608 48.1518 9.36208 48.1518 13.4081C48.1518 17.4401 50.2378 19.1761 52.8418 19.1761ZM52.8418 15.8441C51.9738 15.8441 51.5118 15.0601 51.5118 13.4081C51.5118 11.7421 51.9738 10.9581 52.8418 10.9581C53.6958 10.9581 54.1718 11.7701 54.1718 13.4081C54.1718 15.0461 53.6958 15.8441 52.8418 15.8441ZM64.3638 10.3281C65.4138 9.55808 65.0498 8.57808 64.4758 8.03208C63.8038 7.38808 62.9218 7.59808 62.3898 7.89208C60.3878 8.99808 58.5538 11.3501 58.5818 14.2761C58.6098 17.4821 60.2478 19.1761 63.2438 19.1761C65.9598 19.1761 67.5558 17.4121 67.5558 15.3121C67.5558 13.2541 66.1418 11.8681 64.2938 11.8681C63.4258 11.8681 62.7538 12.1061 62.2218 12.5121L62.1798 12.4701C62.6418 11.6721 63.6358 10.8601 64.3638 10.3281ZM63.2438 16.4601C62.5298 16.4601 62.0958 16.0261 62.0958 15.3121C62.0958 14.5981 62.5298 14.1641 63.2438 14.1641C63.9578 14.1641 64.3918 14.5981 64.3918 15.3121C64.3918 16.0261 63.9578 16.4601 63.2438 16.4601Z" fill="white"/>
<path d="M43.5028 34.1601C43.2628 34.1601 43.0468 34.1841 42.8308 34.2081C42.8068 32.8641 42.7588 31.6641 42.7108 30.8481C42.5908 28.9521 41.4628 28.2561 40.1188 28.2561C38.7988 28.2561 37.6948 28.9041 37.5028 30.8481C37.2388 33.4161 37.2868 39.6801 37.5268 42.3201C37.6948 44.1201 38.5108 45.1041 40.1188 45.1041C41.7028 45.1041 42.5908 44.0721 42.7108 42.2481C42.7588 41.6001 42.7828 40.6881 42.8068 39.7041H43.2868C44.8468 39.7041 45.6148 38.6961 45.6148 36.8481C45.6148 35.0961 44.9188 34.1601 43.5028 34.1601ZM34.7668 43.4481C36.3748 43.2801 36.8548 42.4401 36.8548 41.3841C36.8548 40.3041 36.3748 39.5361 34.7668 39.3201C34.2388 39.2481 33.2788 39.2001 32.1268 39.1521V38.3841C34.4788 37.8081 35.7988 36.2721 35.7988 33.6561C35.7988 30.2961 33.4948 28.7121 29.5828 28.7121C25.6708 28.7121 23.3668 30.2961 23.3668 33.6561C23.3668 36.3441 24.7588 37.8801 27.2308 38.4321V39.1761C26.1988 39.2001 25.2868 39.2721 24.7588 39.3441C23.3908 39.5601 22.6948 40.3281 22.6948 41.3841C22.6948 42.5361 23.3908 43.3761 24.7588 43.4721C26.7268 43.6161 32.6548 43.6641 34.7668 43.4481ZM29.5828 32.6721C30.5668 32.6721 31.1188 33.0321 31.1188 33.6561C31.1188 34.3281 30.5668 34.6401 29.5828 34.6401C28.5988 34.6401 28.0708 34.3281 28.0708 33.6561C28.0708 33.0321 28.5988 32.6721 29.5828 32.6721ZM40.7428 46.7361C38.4628 46.4481 33.8308 46.4721 30.6148 46.7361C30.6388 46.4241 30.6388 46.0641 30.6148 45.8001C30.4948 44.6001 29.3908 44.0481 27.7348 44.0481C26.0308 44.0481 24.9748 44.7201 24.8068 46.0401C24.6868 46.9281 24.6388 48.1281 24.8068 49.0641C25.0228 50.2161 26.1268 50.9841 27.7588 51.1041C31.1428 51.3441 37.9588 51.3921 40.7668 51.1041C42.6868 50.9121 42.9508 49.8081 42.9508 48.8241C42.9508 48.0561 42.6868 46.9761 40.7428 46.7361ZM65.9541 44.4561C65.2581 44.4081 64.4901 44.3841 63.6501 44.3601V42.9921C63.6501 42.8001 63.6261 42.6081 63.5781 42.4161H63.7701C65.6421 42.2961 66.5061 41.7441 66.5061 40.3281C66.5061 38.9601 65.5461 38.4801 63.6741 38.3841C61.0581 38.2401 56.2821 38.2881 54.5541 38.4081V37.5681C56.1621 37.6401 60.1461 37.6401 62.4981 37.4481C64.3221 37.3041 65.3781 36.8481 65.6901 35.2401C65.8821 34.2801 65.9061 32.5761 65.7861 31.8561C65.4741 30.0561 64.6581 29.4321 62.4021 29.2401C59.1381 28.9521 53.7381 29.0001 50.5221 29.2641C49.0581 29.3841 48.1221 29.9361 48.1221 31.3041C48.1221 32.6721 48.8181 33.3201 50.5941 33.4161C52.5621 33.5121 57.2661 33.4161 59.7141 33.2721V34.1601C58.1301 34.0881 53.9301 34.0881 51.7221 34.2081C49.8021 34.3041 48.8661 34.7601 48.5301 36.0561C48.2661 37.0881 48.1941 38.9601 48.5301 40.2801C48.8181 41.3841 49.5141 41.8881 50.7381 42.1281C50.6661 42.3921 50.6181 42.6801 50.5941 42.9921V44.3601L48.7941 44.4321C47.0901 44.5041 46.2261 45.3681 46.2261 46.6881C46.2261 48.0081 47.0901 48.8241 48.7941 48.9681C53.0901 49.3281 61.4181 49.3281 65.9541 48.9441C67.6821 48.8001 68.3061 47.8401 68.3061 46.7121C68.3061 45.5841 67.6821 44.5521 65.9541 44.4561ZM56.1141 44.2881V42.9921C56.1141 42.8241 56.0901 42.6321 56.0661 42.4881C56.7381 42.4881 57.4581 42.5121 58.1781 42.5121C58.1541 42.6561 58.1301 42.8241 58.1301 42.9921V44.2881H56.1141Z" fill="white"/>
</g>
</svg>
