<svg width="90" height="80" viewBox="0 0 90 80" fill="none" xmlns="http://www.w3.org/2000/svg">
<mask id="mask0_2154_8864" style="mask-type:alpha" maskUnits="userSpaceOnUse" x="0" y="0" width="90" height="80">
<rect width="90" height="80" fill="#5C40D4"/>
</mask>
<g mask="url(#mask0_2154_8864)">
<g opacity="0.3">
<path fill-rule="evenodd" clip-rule="evenodd" d="M14.5944 65.4056C31.387 82.1981 58.613 82.1981 75.4056 65.4056C92.1981 48.613 92.1981 21.387 75.4056 4.59441C58.613 -12.1981 31.387 -12.1981 14.5944 4.59441C-2.19814 21.387 -2.19814 48.613 14.5944 65.4056ZM13.1802 66.8198C30.7538 84.3934 59.2462 84.3934 76.8198 66.8198C94.3934 49.2462 94.3934 20.7538 76.8198 3.1802C59.2462 -14.3934 30.7538 -14.3934 13.1802 3.1802C-4.3934 20.7538 -4.3934 49.2462 13.1802 66.8198Z" fill="white"/>
<path fill-rule="evenodd" clip-rule="evenodd" d="M17.4228 62.5772C32.6533 77.8076 57.3467 77.8076 72.5772 62.5772C87.8076 47.3467 87.8076 22.6533 72.5772 7.42284C57.3467 -7.80761 32.6533 -7.80761 17.4228 7.42284C2.19239 22.6533 2.19239 47.3467 17.4228 62.5772ZM16.7157 63.2843C32.3367 78.9052 57.6633 78.9052 73.2843 63.2843C88.9052 47.6633 88.9052 22.3367 73.2843 6.71573C57.6633 -8.90524 32.3367 -8.90524 16.7157 6.71573C1.09476 22.3367 1.09476 47.6633 16.7157 63.2843Z" fill="white"/>
<path d="M29.4439 48.9739C28.413 49.8266 27.522 50.7685 26.682 51.8122C26.0201 52.6268 25.6765 53.7341 26.5929 55.0578C27.5984 56.5215 32.3204 61.269 33.8223 62.2109C34.9678 62.9237 35.9606 62.9491 37.0043 62.1345C38.0734 61.2945 39.0026 60.3654 39.8426 59.3726C42.0573 56.7506 42.63 53.0468 39.2062 49.623C35.7824 46.1992 32.0786 46.7719 29.4439 48.9739ZM36.457 56.4452C36.1006 56.8779 35.6551 57.3234 35.2224 57.6798C34.5351 56.7888 32.0277 54.2305 31.1495 53.5559C31.4931 53.1359 31.9386 52.6904 32.3586 52.3468C33.2241 51.634 34.7133 51.494 36.0243 52.805C37.3352 54.1159 37.1698 55.5797 36.457 56.4452Z" fill="white"/>
<path d="M50.4129 48.9042C53.1621 46.1549 53.5185 42.1329 50.1074 38.7218C46.6836 35.298 42.6616 35.6544 39.9123 38.4036C37.1631 41.1529 36.8067 45.1749 40.2305 48.5987C43.6416 52.0098 47.6636 51.6534 50.4129 48.9042ZM47.3454 45.8367C46.289 46.8931 44.8126 46.6895 43.4762 45.3531C42.127 44.0039 41.9233 42.5275 42.9798 41.471C44.0362 40.4146 45.5253 40.631 46.8618 41.9674C48.1855 43.2911 48.3891 44.793 47.3454 45.8367Z" fill="white"/>
<path d="M47.5548 33.5104C49.1839 35.6233 52.9259 39.3653 55.217 41.1472C56.2479 41.949 57.1898 42.1272 58.1189 41.1981C59.0481 40.269 58.9208 39.2762 58.1189 38.2452C57.5207 37.4688 56.4261 36.2978 54.9879 34.936L55.0515 34.8723C57.6735 35.636 60.7409 36.0306 61.8355 36.0306C63.0319 36.0306 63.4392 35.9033 64.0756 35.2414C64.8393 34.4523 64.6356 33.5613 63.8338 32.5304C62.0519 30.2394 58.2462 26.4083 56.197 24.8682C55.0642 24.0154 54.046 24.27 53.346 24.97C52.6459 25.67 52.3914 26.6883 53.2569 27.8083C53.8296 28.5593 55.077 29.8321 56.5279 31.2321L56.4643 31.2958C54.4915 30.6976 51.2077 30.2648 49.8203 30.1503C48.9676 30.0866 48.2039 30.1121 47.5548 30.7612C46.8547 31.4612 46.6893 32.3904 47.5548 33.5104Z" fill="white"/>
<path d="M70.7911 22.722C69.6965 23.5112 67.6091 25.5985 67.0618 26.3495L66.1836 25.3949C67.2273 24.5039 68.1818 23.5493 69.0855 22.442C69.5437 21.882 69.9256 20.8383 68.9073 19.8201C67.9018 18.8146 66.9091 19.2473 66.349 19.7055C65.3181 20.5583 64.3762 21.5256 63.4343 22.6202L62.5052 21.742C63.4471 21.0038 65.3435 19.1073 66.0436 18.0509C66.4508 17.4399 66.8454 16.5108 65.8272 15.4926C64.8217 14.4871 63.9307 14.9198 63.3198 15.3271C62.187 16.0781 58.6741 19.591 58.0886 20.3292C57.3886 21.2074 57.0704 22.1875 58.0377 23.4348C59.5523 25.3822 63.4343 29.366 65.369 30.7406C66.4381 31.5043 67.4564 31.5552 68.4746 30.7152C69.6965 29.6969 72.5857 26.8331 73.5148 25.4713C73.9221 24.8603 74.2785 23.9439 73.2603 22.9257C72.2548 21.9202 71.3766 22.2893 70.7911 22.722Z" fill="white"/>
</g>
</g>
</svg>
