<svg width="30" height="30" viewBox="0 0 30 30" fill="none" xmlns="http://www.w3.org/2000/svg">
<circle cx="15" cy="15" r="15" fill="white"/>
<path d="M6.18725 15.2783L6.25863 15.168L10.4764 8.5656C10.538 8.46827 10.684 8.478 10.7294 8.58506C11.4335 10.1651 12.0434 12.1312 11.7579 13.3544C11.6346 13.8572 11.3037 14.5386 10.9273 15.168C10.8787 15.2588 10.8268 15.3497 10.7684 15.4373C10.7424 15.4762 10.697 15.5022 10.6483 15.5022H6.31054C6.19374 15.5022 6.12561 15.3756 6.18725 15.2815V15.2783Z" fill="#4944E4"/>
<path d="M24.9986 16.5047V17.5494C24.9986 17.6078 24.9629 17.6629 24.9077 17.6857C24.58 17.8252 23.464 18.3378 22.9968 18.9867C21.8093 20.6381 20.9041 23 18.8764 23H10.4247C7.42682 23 5 20.5634 5 17.5559V17.4585C5 17.3774 5.06489 17.3125 5.146 17.3125H9.85689C9.95097 17.3125 10.0191 17.4001 10.0094 17.491C9.97693 17.7992 10.0321 18.1107 10.1781 18.3962C10.4571 18.964 11.0379 19.3208 11.664 19.3208H13.9968V17.5007H11.69C11.5732 17.5007 11.5018 17.3645 11.5699 17.2671C11.5959 17.2282 11.6218 17.1893 11.6543 17.1438C11.8717 16.8324 12.1831 16.3522 12.4946 15.8039C12.7055 15.434 12.9099 15.0382 13.0753 14.6424C13.1078 14.571 13.1337 14.4964 13.1629 14.425C13.2084 14.2985 13.2538 14.1784 13.2895 14.0616C13.3219 13.9611 13.3479 13.8572 13.3771 13.7567C13.4549 13.4193 13.4874 13.0624 13.4874 12.6925C13.4874 12.5465 13.4809 12.3973 13.4679 12.2513C13.4614 12.0923 13.442 11.9333 13.4225 11.7776C13.4095 11.6381 13.3836 11.4986 13.3576 11.3558C13.3252 11.1449 13.2765 10.934 13.2246 10.7231L13.2051 10.642C13.1662 10.496 13.1305 10.3598 13.0851 10.2138C12.9521 9.75955 12.8028 9.31507 12.6406 8.89978C12.5822 8.73432 12.5141 8.57534 12.4492 8.41961C12.3518 8.18277 12.2513 7.96539 12.1604 7.761C12.115 7.66691 12.0728 7.58255 12.0339 7.49495C11.9885 7.39762 11.943 7.29704 11.8944 7.2062C11.8619 7.13482 11.823 7.06669 11.797 7.0018L11.5115 6.47621C11.4726 6.40483 11.5375 6.32048 11.6154 6.33994L13.3998 6.82336H13.4063H13.4128L13.6464 6.88825L13.9059 6.96287L14 6.98882V5.9279C14 5.41528 14.4088 5 14.9182 5C15.1712 5 15.4016 5.10382 15.5671 5.27253C15.7325 5.44124 15.8363 5.67159 15.8363 5.9279V7.50144L16.0278 7.55335C16.0278 7.55335 16.057 7.56633 16.0699 7.57606C16.1154 7.61175 16.1835 7.66366 16.2678 7.72531C16.336 7.77722 16.4074 7.84211 16.4917 7.91024C16.6637 8.04975 16.8681 8.22819 17.0919 8.43259C17.1503 8.4845 17.2087 8.53641 17.2639 8.59156C17.5526 8.86085 17.8803 9.1788 18.1885 9.5292C18.2761 9.62653 18.3605 9.72711 18.4481 9.83093C18.5357 9.938 18.6265 10.0418 18.7076 10.1489C18.8115 10.2884 18.925 10.4344 19.0256 10.5869C19.071 10.6583 19.1262 10.7329 19.1716 10.8043C19.2981 10.9957 19.4084 11.1936 19.5155 11.3915C19.5609 11.4823 19.6063 11.5829 19.6485 11.6802C19.7653 11.9463 19.8594 12.2156 19.9211 12.4849C19.9405 12.5433 19.9535 12.6081 19.96 12.6633V12.6763C19.9795 12.7574 19.9859 12.8417 19.9924 12.9293C20.0184 13.2051 20.0054 13.4841 19.947 13.7599C19.9211 13.8767 19.8886 13.9903 19.8497 14.1071C19.8107 14.2206 19.7686 14.3374 19.7167 14.451C19.6161 14.6813 19.4993 14.9149 19.3598 15.1323C19.3143 15.2134 19.2624 15.2978 19.2073 15.3789C19.1489 15.4632 19.0905 15.5443 19.0353 15.6222C18.9607 15.7228 18.8828 15.8266 18.805 15.9207C18.7336 16.018 18.659 16.1186 18.5811 16.203C18.4708 16.336 18.3637 16.4593 18.2502 16.5793C18.182 16.6572 18.1107 16.7383 18.0393 16.8097C17.9679 16.8908 17.8933 16.9621 17.8284 17.027C17.7181 17.1373 17.624 17.2249 17.5461 17.2963L17.3612 17.465C17.3353 17.4877 17.2996 17.5007 17.2639 17.5007H15.8428V19.3208H17.6305C18.0296 19.3208 18.4092 19.1781 18.7174 18.9185C18.8212 18.8277 19.2819 18.4286 19.8237 17.8317C19.8432 17.8122 19.8659 17.796 19.8919 17.7895L24.8266 16.3619C24.9174 16.336 25.0115 16.4041 25.0115 16.5014L24.9986 16.5047Z" fill="#4944E4"/>
</svg>
