<svg width="40" height="40" viewBox="0 0 40 40" fill="none" xmlns="http://www.w3.org/2000/svg">
<mask id="mask0_6688_8747" style="mask-type:alpha" maskUnits="userSpaceOnUse" x="0" y="0" width="40" height="40">
<rect width="40" height="40" fill="#D9D9D9"/>
</mask>
<g mask="url(#mask0_6688_8747)">
<circle cx="20" cy="20" r="15" fill="white"/>
<path d="M11.1873 20.2783L11.2586 20.168L15.4764 13.5656C15.538 13.4683 15.684 13.478 15.7294 13.5851C16.4335 15.1651 17.0434 17.1312 16.7579 18.3544C16.6346 18.8572 16.3037 19.5386 15.9273 20.168C15.8787 20.2588 15.8268 20.3497 15.7684 20.4373C15.7424 20.4762 15.697 20.5022 15.6483 20.5022H11.3105C11.1937 20.5022 11.1256 20.3756 11.1873 20.2815V20.2783Z" fill="#4944E4"/>
<path d="M29.9986 21.5047V22.5494C29.9986 22.6078 29.9629 22.6629 29.9077 22.6857C29.58 22.8252 28.464 23.3378 27.9968 23.9867C26.8093 25.6381 25.9041 28 23.8764 28H15.4247C12.4268 28 10 25.5634 10 22.5559V22.4585C10 22.3774 10.0649 22.3125 10.146 22.3125H14.8569C14.951 22.3125 15.0191 22.4001 15.0094 22.491C14.9769 22.7992 15.0321 23.1107 15.1781 23.3962C15.4571 23.964 16.0379 24.3208 16.664 24.3208H18.9968V22.5007H16.69C16.5732 22.5007 16.5018 22.3645 16.5699 22.2671C16.5959 22.2282 16.6218 22.1893 16.6543 22.1438C16.8717 21.8324 17.1831 21.3522 17.4946 20.8039C17.7055 20.434 17.9099 20.0382 18.0753 19.6424C18.1078 19.571 18.1337 19.4964 18.1629 19.425C18.2084 19.2985 18.2538 19.1784 18.2895 19.0616C18.3219 18.9611 18.3479 18.8572 18.3771 18.7567C18.4549 18.4193 18.4874 18.0624 18.4874 17.6925C18.4874 17.5465 18.4809 17.3973 18.4679 17.2513C18.4614 17.0923 18.442 16.9333 18.4225 16.7776C18.4095 16.6381 18.3836 16.4986 18.3576 16.3558C18.3252 16.1449 18.2765 15.934 18.2246 15.7231L18.2051 15.642C18.1662 15.496 18.1305 15.3598 18.0851 15.2138C17.9521 14.7596 17.8028 14.3151 17.6406 13.8998C17.5822 13.7343 17.5141 13.5753 17.4492 13.4196C17.3518 13.1828 17.2513 12.9654 17.1604 12.761C17.115 12.6669 17.0728 12.5826 17.0339 12.495C16.9885 12.3976 16.943 12.297 16.8944 12.2062C16.8619 12.1348 16.823 12.0667 16.797 12.0018L16.5115 11.4762C16.4726 11.4048 16.5375 11.3205 16.6154 11.3399L18.3998 11.8234H18.4063H18.4128L18.6464 11.8882L18.9059 11.9629L19 11.9888V10.9279C19 10.4153 19.4088 10 19.9182 10C20.1712 10 20.4016 10.1038 20.5671 10.2725C20.7325 10.4412 20.8363 10.6716 20.8363 10.9279V12.5014L21.0278 12.5534C21.0278 12.5534 21.057 12.5663 21.0699 12.5761C21.1154 12.6118 21.1835 12.6637 21.2678 12.7253C21.336 12.7772 21.4074 12.8421 21.4917 12.9102C21.6637 13.0497 21.8681 13.2282 22.0919 13.4326C22.1503 13.4845 22.2087 13.5364 22.2639 13.5916C22.5526 13.8609 22.8803 14.1788 23.1885 14.5292C23.2761 14.6265 23.3605 14.7271 23.4481 14.8309C23.5357 14.938 23.6265 15.0418 23.7076 15.1489C23.8115 15.2884 23.925 15.4344 24.0256 15.5869C24.071 15.6583 24.1262 15.7329 24.1716 15.8043C24.2981 15.9957 24.4084 16.1936 24.5155 16.3915C24.5609 16.4823 24.6063 16.5829 24.6485 16.6802C24.7653 16.9463 24.8594 17.2156 24.9211 17.4849C24.9405 17.5433 24.9535 17.6081 24.96 17.6633V17.6763C24.9795 17.7574 24.9859 17.8417 24.9924 17.9293C25.0184 18.2051 25.0054 18.4841 24.947 18.7599C24.9211 18.8767 24.8886 18.9903 24.8497 19.1071C24.8107 19.2206 24.7686 19.3374 24.7167 19.451C24.6161 19.6813 24.4993 19.9149 24.3598 20.1323C24.3143 20.2134 24.2624 20.2978 24.2073 20.3789C24.1489 20.4632 24.0905 20.5443 24.0353 20.6222C23.9607 20.7228 23.8828 20.8266 23.805 20.9207C23.7336 21.018 23.659 21.1186 23.5811 21.203C23.4708 21.336 23.3637 21.4593 23.2502 21.5793C23.182 21.6572 23.1107 21.7383 23.0393 21.8097C22.9679 21.8908 22.8933 21.9621 22.8284 22.027C22.7181 22.1373 22.624 22.2249 22.5461 22.2963L22.3612 22.465C22.3353 22.4877 22.2996 22.5007 22.2639 22.5007H20.8428V24.3208H22.6305C23.0296 24.3208 23.4092 24.1781 23.7174 23.9185C23.8212 23.8277 24.2819 23.4286 24.8237 22.8317C24.8432 22.8122 24.8659 22.796 24.8919 22.7895L29.8266 21.3619C29.9174 21.336 30.0115 21.4041 30.0115 21.5014L29.9986 21.5047Z" fill="#4944E4"/>
</g>
</svg>
