<svg width="94" height="86" viewBox="0 0 94 86" fill="none" xmlns="http://www.w3.org/2000/svg">
<path d="M88.945 7.20248C82.1481 3.83775 74.8806 1.3924 67.2827 0C66.3495 1.78501 65.2594 4.18589 64.5078 6.09578C56.4309 4.81059 48.4284 4.81059 40.5001 6.09578C39.7486 4.18589 38.6337 1.78501 37.6922 0C30.086 1.3924 22.8102 3.84673 16.0133 7.2203C2.30406 29.1398 -1.4123 50.5148 0.445885 71.5864C9.5386 78.7709 18.3505 83.1352 27.0138 85.9912C29.1528 82.8763 31.0605 79.5652 32.7039 76.0756C29.5739 74.8172 26.5761 73.2643 23.7434 71.4615C24.4949 70.8724 25.23 70.2565 25.9402 69.6229C43.2171 78.173 61.9889 78.173 79.0595 69.6229C79.778 70.2565 80.5129 70.8724 81.2562 71.4615C78.4152 73.2731 75.4092 74.8261 72.2792 76.0846C73.9226 79.5652 75.8221 82.8853 77.9693 86C86.6409 83.1441 95.461 78.7798 104.554 71.5864C106.734 47.1591 100.829 25.9803 88.945 7.20248ZM35.0576 58.6276C29.8713 58.6276 25.618 53.5046 25.618 47.2661C25.618 41.0277 29.7805 35.8959 35.0576 35.8959C40.335 35.8959 44.5881 41.0187 44.4972 47.2661C44.5055 53.5046 40.335 58.6276 35.0576 58.6276ZM69.942 58.6276C64.7556 58.6276 60.5024 53.5046 60.5024 47.2661C60.5024 41.0277 64.6647 35.8959 69.942 35.8959C75.2192 35.8959 79.4724 41.0187 79.3816 47.2661C79.3816 53.5046 75.2192 58.6276 69.942 58.6276Z" fill="#E5ECFF"/>
</svg>
