<svg width="20" height="20" viewBox="0 0 20 20" fill="none" xmlns="http://www.w3.org/2000/svg">
<circle cx="10" cy="10" r="10" fill="white"/>
<g clip-path="url(#clip0_6688_8808)">
<path d="M4.13069 10.1852L4.17828 10.1117L6.9901 5.71009C7.0312 5.6452 7.12853 5.65169 7.15881 5.72307C7.62817 6.77642 8.0348 8.08717 7.84446 8.9026C7.76227 9.23785 7.54165 9.69207 7.29075 10.1117C7.25831 10.1722 7.2237 10.2328 7.18477 10.2912C7.16746 10.3172 7.13718 10.3345 7.10474 10.3345H4.21289C4.13502 10.3345 4.0896 10.2501 4.13069 10.1874V10.1852Z" fill="#4944E4"/>
<path d="M16.6683 11.0028V11.6993C16.6683 11.7382 16.6445 11.775 16.6077 11.7901C16.3893 11.8831 15.6452 12.2249 15.3338 12.6574C14.5421 13.7584 13.9387 15.333 12.5868 15.333H6.95238C4.95382 15.333 3.33594 13.7086 3.33594 11.7036V11.6387C3.33594 11.5846 3.3792 11.5414 3.43327 11.5414H6.57386C6.63659 11.5414 6.68201 11.5998 6.67552 11.6603C6.65389 11.8658 6.69066 12.0735 6.78799 12.2638C6.97401 12.6423 7.36117 12.8802 7.77862 12.8802H9.33377V11.6668H7.79592C7.71806 11.6668 7.67047 11.576 7.71589 11.5111C7.7332 11.4851 7.7505 11.4592 7.77213 11.4289C7.91705 11.2213 8.12469 10.9011 8.33233 10.5356C8.47292 10.289 8.60919 10.0251 8.7195 9.76127C8.74113 9.71369 8.75843 9.66394 8.7779 9.61635C8.80818 9.532 8.83846 9.45197 8.86225 9.3741C8.88388 9.30705 8.90119 9.23784 8.92065 9.17079C8.97256 8.94584 8.99419 8.70792 8.99419 8.46134C8.99419 8.36401 8.98987 8.26451 8.98122 8.16718C8.97689 8.0612 8.96391 7.95521 8.95093 7.85139C8.94228 7.75839 8.92498 7.66538 8.90767 7.57021C8.88605 7.42962 8.8536 7.28903 8.81899 7.14844L8.80602 7.09436C8.78006 6.99703 8.75627 6.90619 8.72599 6.80885C8.63731 6.50604 8.53781 6.20972 8.42966 5.93286C8.39073 5.82255 8.34531 5.71657 8.30205 5.61275C8.23716 5.45485 8.17011 5.30994 8.10955 5.17367C8.07927 5.11095 8.05115 5.05471 8.02519 4.99631C7.99491 4.93142 7.96463 4.86437 7.93219 4.80381C7.91056 4.75622 7.8846 4.7108 7.8673 4.66754L7.67696 4.31715C7.65101 4.26956 7.69426 4.21333 7.74618 4.2263L8.93579 4.54858H8.94012H8.94445L9.10018 4.59184L9.27321 4.64159L9.33594 4.65889V3.95161C9.33594 3.60986 9.60847 3.33301 9.94805 3.33301C10.1168 3.33301 10.2703 3.40222 10.3806 3.51469C10.4909 3.62717 10.5602 3.78074 10.5602 3.95161V5.00064L10.6878 5.03524C10.6878 5.03524 10.7072 5.04389 10.7159 5.05038C10.7462 5.07418 10.7916 5.10878 10.8478 5.14988C10.8933 5.18449 10.9408 5.22774 10.9971 5.27317C11.1117 5.36617 11.248 5.48513 11.3972 5.6214C11.4362 5.65601 11.4751 5.69061 11.5119 5.72738C11.7044 5.90691 11.9228 6.11888 12.1283 6.35247C12.1867 6.41736 12.2429 6.48441 12.3013 6.55363C12.3597 6.62501 12.4203 6.69422 12.4744 6.7656C12.5436 6.8586 12.6193 6.95593 12.6863 7.05759C12.7166 7.10518 12.7534 7.15493 12.7837 7.20251C12.868 7.33012 12.9416 7.46206 13.0129 7.594C13.0432 7.65457 13.0735 7.72162 13.1016 7.7865C13.1795 7.96387 13.2422 8.14339 13.2833 8.32291C13.2963 8.36185 13.3049 8.40511 13.3093 8.44188V8.45053C13.3222 8.5046 13.3266 8.56084 13.3309 8.61924C13.3482 8.80309 13.3395 8.9891 13.3006 9.17295C13.2833 9.25082 13.2617 9.32652 13.2357 9.40438C13.2098 9.48009 13.1816 9.55795 13.147 9.63366C13.08 9.78723 13.0021 9.94296 12.9091 10.0879C12.8788 10.1419 12.8442 10.1982 12.8075 10.2523C12.7685 10.3085 12.7296 10.3626 12.6928 10.4145C12.6431 10.4815 12.5912 10.5507 12.5393 10.6135C12.4917 10.6784 12.4419 10.7454 12.39 10.8016C12.3165 10.8903 12.2451 10.9725 12.1694 11.0525C12.124 11.1045 12.0764 11.1585 12.0288 11.2061C11.9812 11.2602 11.9315 11.3078 11.8882 11.351C11.8147 11.4246 11.7519 11.483 11.7 11.5306L11.5767 11.643C11.5594 11.6582 11.5356 11.6668 11.5119 11.6668H10.5645V12.8802H11.7563C12.0223 12.8802 12.2754 12.7851 12.4809 12.612C12.5501 12.5515 12.8572 12.2854 13.2184 11.8874C13.2314 11.8745 13.2465 11.8636 13.2638 11.8593L16.5537 10.9076C16.6142 10.8903 16.677 10.9357 16.677 11.0006L16.6683 11.0028Z" fill="#4944E4"/>
</g>
<defs>
<clipPath id="clip0_6688_8808">
<rect width="13.3324" height="12" fill="white" transform="translate(3.33594 3.33301)"/>
</clipPath>
</defs>
</svg>
