<svg width="44" height="44" viewBox="0 0 44 44" fill="none" xmlns="http://www.w3.org/2000/svg">
<mask id="mask0_3243_11279" style="mask-type:alpha" maskUnits="userSpaceOnUse" x="0" y="0" width="44" height="44">
<rect width="44" height="44" fill="#D9D9D9"/>
</mask>
<g mask="url(#mask0_3243_11279)">
<path d="M0.76633 30.696C0.979663 29.5013 1.321 28.0827 1.79033 26.44C2.25966 24.7973 2.761 23.1333 3.29433 21.448C3.849 19.7627 4.40366 18.1733 4.95833 16.68C5.53433 15.1653 6.03566 13.9387 6.46233 13C7.017 11.848 7.61433 10.9627 8.25433 10.344C8.91566 9.704 9.72633 9.30933 10.6863 9.16C11.3903 9.05333 12.041 9 12.6383 9C13.2357 9 13.8863 9.05333 14.5903 9.16C15.5503 9.30933 16.329 9.704 16.9263 10.344C17.5237 10.9627 18.1317 11.848 18.7503 13C19.049 13.576 19.3797 14.312 19.7423 15.208C20.1263 16.0827 20.5103 17.0427 20.8943 18.088C21.2783 19.112 21.6517 20.2 22.0143 21.352C22.3983 22.4827 22.7503 23.6027 23.0703 24.712C23.3903 25.8213 23.6677 26.8773 23.9023 27.88C24.1583 28.8827 24.3503 29.768 24.4783 30.536C24.6703 31.7947 24.5743 32.8293 24.1903 33.64C23.8063 34.4507 23.0383 35.0053 21.8863 35.304C20.7557 35.6027 19.7743 35.5067 18.9423 35.016C18.1317 34.5253 17.5023 33.7467 17.0543 32.68C16.905 32.3387 16.745 31.8907 16.5743 31.336C16.425 30.76 16.297 30.216 16.1903 29.704C15.6783 29.7893 15.113 29.8533 14.4943 29.896C13.8757 29.9387 13.2463 29.96 12.6063 29.96C11.9877 29.96 11.369 29.9387 10.7503 29.896C10.153 29.8533 9.59833 29.8 9.08633 29.736C8.97966 30.2053 8.841 30.728 8.67033 31.304C8.521 31.88 8.38233 32.328 8.25433 32.648C7.76366 33.8853 7.09166 34.7067 6.23833 35.112C5.40633 35.5387 4.41433 35.6027 3.26233 35.304C2.13166 35.0053 1.37433 34.4507 0.99033 33.64C0.60633 32.8293 0.531663 31.848 0.76633 30.696ZM10.7183 22.76C10.9317 22.76 11.209 22.76 11.5503 22.76C11.913 22.7387 12.2863 22.728 12.6703 22.728C13.0543 22.728 13.417 22.7387 13.7583 22.76C14.0997 22.76 14.3877 22.76 14.6223 22.76C14.473 22.2053 14.313 21.6187 14.1423 21C13.9717 20.3813 13.7903 19.7627 13.5983 19.144C13.4277 18.5253 13.2677 17.928 13.1183 17.352C12.969 16.776 12.8303 16.2533 12.7023 15.784H12.5743C12.4677 16.2747 12.3397 16.808 12.1903 17.384C12.041 17.96 11.881 18.5573 11.7103 19.176C11.5397 19.7733 11.369 20.3813 11.1983 21C11.0277 21.6187 10.8677 22.2053 10.7183 22.76Z" fill="#4944E4"/>
<path d="M30.7331 35.464C29.4957 35.464 28.5037 35.1547 27.7571 34.536C27.0104 33.9173 26.6371 33.032 26.6371 31.88C26.6371 30.728 27.0104 29.8427 27.7571 29.224C28.5037 28.6053 29.4957 28.296 30.7331 28.296C31.9704 28.296 32.9624 28.6053 33.7091 29.224C34.4557 29.8427 34.8291 30.728 34.8291 31.88C34.8291 33.032 34.4557 33.9173 33.7091 34.536C32.9624 35.1547 31.9704 35.464 30.7331 35.464Z" fill="#4944E4"/>
</g>
</svg>
