<svg width="32" height="32" viewBox="0 0 32 32" fill="none" xmlns="http://www.w3.org/2000/svg">
<mask id="mask0_4982_9491" style="mask-type:alpha" maskUnits="userSpaceOnUse" x="0" y="0" width="32" height="32">
<rect width="32" height="32" rx="16" fill="white"/>
</mask>
<g mask="url(#mask0_4982_9491)">
<g style="mix-blend-mode:darken">
<path d="M27.3667 15.3462C27.3667 18.4677 26.1053 21.2939 24.064 23.3442L16.1641 15.4453L24.1621 7.44824C26.1453 9.48955 27.3667 12.2747 27.3667 15.3462Z" fill="#333333"/>
<path d="M23.4962 23.8158L15.6173 27.0294L7.8125 23.7937L15.6434 15.9629L23.4962 23.8158Z" fill="#333333"/>
<path d="M23.3162 7.07347L8.67969 21.711L16.052 4L23.3162 7.07347Z" fill="#333333"/>
<path d="M14.9013 4.50684L7.07047 23.3171L6.97937 23.4082C5.13128 21.428 4 18.768 4 15.8457C4 15.6965 4.003 15.5473 4.00901 15.3991L14.9013 4.50684Z" fill="#333333"/>
</g>
</g>
</svg>
