<svg width="44" height="44" viewBox="0 0 44 44" fill="none" xmlns="http://www.w3.org/2000/svg">
<mask id="mask0_3234_11965" style="mask-type:alpha" maskUnits="userSpaceOnUse" x="0" y="0" width="44" height="44">
<rect width="44" height="44" fill="#D9D9D9"/>
</mask>
<g mask="url(#mask0_3234_11965)">
<path d="M22.1133 28.264C23.2653 29.224 24.1293 30.1627 24.7052 31.08C25.3026 32.0187 25.6119 32.9787 25.6333 33.96C25.6546 34.9413 25.2706 35.8267 24.4813 36.616C24.0759 37.0213 23.6173 37.3413 23.1053 37.576C22.5933 37.832 22.0706 37.9813 21.5373 38.024C21.0039 38.0667 20.4706 38.0027 19.9373 37.832C19.4253 37.6827 18.9452 37.4053 18.4972 37C17.8573 36.424 17.1959 35.624 16.5133 34.6C15.8519 33.5973 15.2759 32.52 14.7853 31.368C14.6146 31.3893 14.4333 31.4 14.2413 31.4C14.0706 31.4 13.8893 31.4 13.6973 31.4C11.9693 31.4 10.3479 31.1013 8.83325 30.504C7.31858 29.9067 5.99592 29.0427 4.86525 27.912C3.75592 26.7813 2.88125 25.4053 2.24125 23.784C1.60125 22.1413 1.28125 20.2853 1.28125 18.216C1.28125 16.1467 1.60125 14.3013 2.24125 12.68C2.88125 11.0373 3.75592 9.65067 4.86525 8.52C5.99592 7.368 7.31858 6.49333 8.83325 5.896C10.3479 5.29867 11.9693 5 13.6973 5C15.4253 5 17.0359 5.29867 18.5293 5.896C20.0439 6.49333 21.3559 7.368 22.4653 8.52C23.5959 9.65067 24.4813 11.0373 25.1213 12.68C25.7826 14.3013 26.1133 16.1467 26.1133 18.216C26.1133 20.4133 25.7506 22.3547 25.0253 24.04C24.3213 25.7253 23.3506 27.1333 22.1133 28.264ZM9.37725 18.216C9.37725 19.9013 9.76125 21.256 10.5293 22.28C11.2973 23.2827 12.3533 23.784 13.6973 23.784C14.3586 23.784 14.9559 23.656 15.4893 23.4C16.0226 23.1227 16.4706 22.7387 16.8333 22.248C17.2173 21.7573 17.5053 21.1707 17.6973 20.488C17.9106 19.8053 18.0173 19.048 18.0173 18.216C18.0173 16.5307 17.6333 15.176 16.8653 14.152C16.0973 13.128 15.0413 12.616 13.6973 12.616C12.3533 12.616 11.2973 13.128 10.5293 14.152C9.76125 15.1547 9.37725 16.5093 9.37725 18.216Z" fill="#FF5290"/>
<path d="M32.9235 31.4C31.6862 31.4 30.6942 31.0907 29.9475 30.472C29.2008 29.8533 28.8275 28.968 28.8275 27.816C28.8275 26.664 29.2008 25.7787 29.9475 25.16C30.6942 24.5413 31.6862 24.232 32.9235 24.232C34.1608 24.232 35.1528 24.5413 35.8995 25.16C36.6462 25.7787 37.0195 26.664 37.0195 27.816C37.0195 28.968 36.6462 29.8533 35.8995 30.472C35.1528 31.0907 34.1608 31.4 32.9235 31.4Z" fill="#FF5290"/>
</g>
</svg>
