<svg width="24" height="24" viewBox="0 0 24 24" fill="none" xmlns="http://www.w3.org/2000/svg">
<path d="M12 19C15.5275 19 18.4456 16.3908 18.9295 12.997C19.0075 12.4503 19.4477 12 20 12C20.5523 12 21.0058 12.4494 20.9452 12.9984C20.4485 17.4991 16.6331 21 12 21C7.02944 21 3 16.9706 3 12C3 7.02944 7.02944 3 12 3C15.9187 3 19.2524 5.50442 20.4879 9H18.3264C17.2029 6.63505 14.7924 5 12 5C8.13401 5 5 8.13401 5 12C5 15.866 8.13401 19 12 19Z" fill="black"/>
<path d="M20.1464 4.85355C20.4614 4.53857 21 4.76165 21 5.20711V9.5C21 9.77614 20.7761 10 20.5 10H16.2071C15.7617 10 15.5386 9.46143 15.8536 9.14645L20.1464 4.85355Z" fill="black"/>
</svg>
