<?xml version="1.0"?>
<svg xmlns="http://www.w3.org/2000/svg" width="30" height="31" viewBox="0 0 30 31" fill="none">
<path d="M15.001 27.9993V16.7493M15.001 27.9993L11.876 25.4993M15.001 27.9993L18.126 25.4993M6.29349 11.8955C5.11125 12.193 4.07834 12.912 3.38881 13.9173C2.69928 14.9227 2.40059 16.1452 2.54887 17.3552C2.69715 18.5653 3.28219 19.6795 4.19407 20.4886C5.10595 21.2978 6.2819 21.746 7.50099 21.7493H8.75099" stroke="black" stroke-width="1.5" stroke-linecap="round" stroke-linejoin="round"/>
<path d="M19.7868 9.42215C19.3596 7.73036 18.3051 6.26432 16.837 5.32122C15.3689 4.37811 13.5972 4.02851 11.8809 4.34328C10.1646 4.65804 8.63227 5.61363 7.59442 7.01632C6.55658 8.41901 6.09092 10.1639 6.29185 11.8971C6.29185 11.8971 6.4831 12.9996 6.87435 13.6246" stroke="black" stroke-width="1.5" stroke-linecap="round" stroke-linejoin="round"/>
<path d="M21.25 21.75C22.1325 21.7494 23.005 21.5619 23.8098 21.1998C24.6147 20.8378 25.3337 20.3093 25.9197 19.6493C26.5056 18.9894 26.9451 18.2128 27.2092 17.3707C27.4734 16.5286 27.5562 15.6401 27.4522 14.7637C27.3482 13.8873 27.0598 13.0428 26.606 12.2859C26.1521 11.529 25.5431 10.8768 24.819 10.3722C24.095 9.86765 23.2722 9.52215 22.405 9.35845C21.5378 9.19475 20.6457 9.21658 19.7875 9.4225L18.125 9.875" stroke="black" stroke-width="1.5" stroke-linecap="round" stroke-linejoin="round"/>
</svg>
