<svg width="30" height="30" viewBox="0 0 30 30" fill="none" xmlns="http://www.w3.org/2000/svg">
<path d="M24.5821 10.2089C24.3521 9.33945 23.6744 8.65467 22.8139 8.42228C21.2542 8 15 8 15 8C15 8 8.74586 8 7.18613 8.42228C6.32565 8.65471 5.64794 9.33945 5.41792 10.2089C5 11.7849 5 15.0731 5 15.0731C5 15.0731 5 18.3612 5.41792 19.9372C5.64794 20.8067 6.32565 21.463 7.18613 21.6954C8.74586 22.1176 15 22.1176 15 22.1176C15 22.1176 21.2541 22.1176 22.8139 21.6954C23.6744 21.463 24.3521 20.8067 24.5821 19.9372C25 18.3612 25 15.0731 25 15.0731C25 15.0731 25 11.7849 24.5821 10.2089ZM12.9545 18.0585V12.0877L18.1818 15.0732L12.9545 18.0585Z" fill="black"/>
</svg>
