<?xml version="1.0"?>
<svg xmlns="http://www.w3.org/2000/svg" width="18" height="18" viewBox="0 0 18 18" fill="none">
<g opacity="0.8">
<circle cx="9" cy="9" r="9" fill="white"/>
<path d="M10.0331 5.05266C10.0547 4.51266 9.50389 4.19946 8.90989 4.19946C8.32669 4.19946 7.77589 4.51266 7.79749 5.05266L8.00269 10.3015C8.02429 10.8739 8.46709 11.1655 8.90989 11.1655C9.36349 11.1655 9.81709 10.8739 9.83869 10.3015L10.0331 5.05266ZM7.80829 13.0231C7.80829 13.6387 8.30509 14.1355 8.90989 14.1355C9.52549 14.1355 10.0223 13.6387 10.0223 13.0231C10.0223 12.4291 9.52549 11.9323 8.90989 11.9323C8.30509 11.9323 7.80829 12.4291 7.80829 13.0231Z" fill="#4A2BCF"/>
</g>
</svg>
