<?xml version="1.0"?>
<svg xmlns="http://www.w3.org/2000/svg" width="170" height="170" viewBox="0 0 170 170" fill="none">
<mask id="mask0_1783_1779" style="mask-type:alpha" maskUnits="userSpaceOnUse" x="0" y="0" width="170" height="170">
<rect width="170" height="170" fill="white"/>
</mask>
<g mask="url(#mask0_1783_1779)">
<g style="mix-blend-mode:darken">
<path d="M121.774 109.121C121.774 125.387 115.201 140.114 104.564 150.798L63.3984 109.638L105.075 67.9663C115.409 78.6032 121.774 93.1162 121.774 109.121Z" fill="#6F6558"/>
<path d="M101.624 153.255L60.5681 170.001L19.8984 153.14L60.7038 112.335L101.624 153.255Z" fill="#6F6558"/>
<path d="M100.644 66.0154L24.375 142.289L62.7911 50L100.644 66.0154Z" fill="#6F6558"/>
<path d="M56.8051 52.6389L15.9997 150.656L15.525 151.131C5.89492 140.812 0 126.951 0 111.724C0 110.946 0.0156483 110.169 0.0469487 109.397L56.8051 52.6389Z" fill="#6F6558"/>
</g>
<path d="M146.431 115.198C141.528 124.46 130.767 127.684 126 128.138C132.538 121.6 133.264 116.333 132.81 114.517L134.172 111.793C140.302 109.069 151.335 105.936 146.431 115.198Z" fill="#BD31FF"/>
<circle cx="139" cy="91" r="31" fill="#BD31FF"/>
<rect x="123" y="84" width="32" height="22" rx="4" fill="white"/>
<path d="M150 81V78.6185C150 77.2998 148.745 76.3423 147.471 76.682C140.202 78.6196 134.722 79.894 127 82H149C149.552 82 150 81.5523 150 81Z" fill="white"/>
<path d="M153 97L150 97C148.895 97 148 96.1046 148 95C148 93.8954 148.895 93 150 93L153 93L153 97Z" fill="#BD31FF"/>
</g>
</svg>
