<?xml version="1.0"?>
<svg xmlns="http://www.w3.org/2000/svg" width="170" height="170" viewBox="0 0 170 170" fill="none">
<mask id="mask0_1783_1805" style="mask-type:alpha" maskUnits="userSpaceOnUse" x="0" y="0" width="170" height="170">
<rect width="170" height="170" fill="white"/>
</mask>
<g mask="url(#mask0_1783_1805)">
<path d="M0 107.007C0 72.2163 28.2016 44 62.9926 44C97.7837 44 125.993 72.2016 126 106.993C126 141.784 97.7984 169.993 63.0073 170C28.209 170.007 0 141.806 0 107.015V107.007Z" fill="#5865F2"/>
<path d="M91.123 81.2924C85.8047 78.8458 80.1786 77.1097 74.4061 76.1282C73.6735 77.4101 72.8457 79.1315 72.267 80.5233C66.1281 79.6076 59.8794 79.6076 53.7406 80.5233C53.0813 79.0216 52.3487 77.5566 51.5429 76.1282C45.763 77.1097 40.137 78.8531 34.8113 81.3144C24.2624 97.0415 21.3981 112.395 22.8266 127.514C29.0167 132.114 35.9541 135.616 43.3383 137.865C45.0012 135.616 46.4663 133.228 47.7336 130.737C45.3381 129.844 43.0233 128.737 40.8183 127.434C41.397 127.001 41.9537 126.562 42.4885 126.122C55.4767 132.261 70.5235 132.261 83.5117 126.122C84.0612 126.577 84.6326 127.016 85.204 127.441C82.999 128.752 80.6768 129.858 78.274 130.759C79.534 133.25 81.0064 135.63 82.6693 137.872C90.0535 135.63 96.9908 132.129 103.181 127.521C104.851 109.992 100.295 94.778 91.123 81.2924ZM49.5357 118.226C45.5359 118.226 42.2541 114.563 42.2541 110.066C42.2541 105.568 45.4627 101.876 49.5357 101.876C53.6087 101.876 56.8613 105.539 56.8247 110.044C56.788 114.549 53.6087 118.226 49.5357 118.226ZM76.4572 118.226C72.4575 118.226 69.1756 114.563 69.1756 110.066C69.1756 105.568 72.3842 101.876 76.4572 101.876C80.5302 101.876 83.7828 105.539 83.7388 110.044C83.6949 114.549 80.5302 118.226 76.4572 118.226Z" fill="white"/>
<path fill-rule="evenodd" clip-rule="evenodd" d="M140.811 121.948C157.089 121.01 170 107.513 170 91C170 73.8792 156.121 60 139 60C121.879 60 108 73.8792 108 91C108 105.48 117.928 117.642 131.349 121.049C130.297 123.116 128.612 125.525 126 128.138C129.349 127.819 135.655 126.133 140.811 121.948Z" fill="#BD31FF"/>
<path d="M141.452 104.4H136.554C136.31 104.4 136.142 104.679 136.224 104.943C136.629 106.258 137.72 107.2 139.003 107.2C140.286 107.2 141.377 106.258 141.782 104.943C141.864 104.679 141.696 104.4 141.452 104.4H141.452Z" fill="white"/>
<path d="M151.745 98.3276C150.765 96.6154 150.249 94.6722 150.249 92.6938V88.9205C150.249 83.4863 146.48 78.9452 141.441 77.8173V77.4685C141.441 76.1052 140.348 75 139 75C137.652 75 136.559 76.1052 136.559 77.4685V77.8173C131.52 78.9452 127.751 83.4863 127.751 88.9205V92.6936C127.751 94.6718 127.235 96.615 126.255 98.3274L125.342 99.9231C124.461 101.23 125.386 103 126.95 103H151.05C152.614 103 153.539 101.23 152.658 99.9231L151.745 98.3274V98.3276Z" fill="white"/>
</g>
</svg>
