<svg width="30" height="30" viewBox="0 0 30 30" fill="none" xmlns="http://www.w3.org/2000/svg">
<g clip-path="url(#clip0_2758_14006)">
<path d="M15.5 25C22.1088 25 24.1985 21.1724 24.8393 19.728C25.5007 18.2358 25.9202 16.4164 25.9665 14.5891C26.0077 12.9053 25.8482 11.4211 25.8482 11.4211C26.3423 8.12012 25.6268 6.33265 23.7533 5.34581C23.0276 4.96278 21.854 4.9282 21.1077 5.09312C19.893 5.36177 18.9923 5.97356 18.9923 5.97356L19 5.97887L18.9743 5.97356C17.5562 5.66234 16.1022 5.6384 15.5206 5.63574H15.4794C14.8978 5.63574 13.4437 5.66234 12.0257 5.97356L12 5.97887L12.0077 5.97356C12.0077 5.97356 11.107 5.36177 9.89227 5.09312C9.14595 4.9282 7.97242 4.96544 7.24668 5.34581C5.37315 6.33265 4.65771 8.12012 5.15183 11.4211C5.15183 11.4211 4.99227 12.9053 5.03345 14.5891C5.0772 16.4164 5.49926 18.2385 6.16065 19.728C6.80146 21.1724 8.89117 25 15.5 25Z" fill="#FF9FBB"/>
<path d="M19.2151 9.09364C17.7817 9.0564 17.4986 9.5272 17.4703 9.79586C17.4446 10.0619 17.7302 10.5114 19.0736 10.5965C20.417 10.6816 20.8674 10.248 20.9034 9.98737C20.9394 9.72404 20.646 9.13088 19.2126 9.0963" fill="#FF466C"/>
<path d="M17.7031 12.4718C17.7031 13.0968 18.1947 13.6049 18.7994 13.6049C19.4042 13.6049 19.8958 13.0968 19.8958 12.4718C19.8958 11.8467 19.4042 11.3386 18.7994 11.3386C18.1947 11.3386 17.7031 11.8467 17.7031 12.4718Z" fill="black"/>
<path d="M13.2942 12.4718C13.2942 13.0968 12.8027 13.6049 12.1979 13.6049C11.5931 13.6049 11.1016 13.0968 11.1016 12.4718C11.1016 11.8467 11.5931 11.3386 12.1979 11.3386C12.8027 11.3386 13.2942 11.8467 13.2942 12.4718Z" fill="black"/>
<path d="M11.7729 9.09364C13.2063 9.03247 13.4971 9.49529 13.528 9.76395C13.5589 10.0299 13.2809 10.4821 11.9376 10.5938C10.5967 10.7029 10.1387 10.28 10.0975 10.0166C10.0563 9.75597 10.3394 9.15748 11.7729 9.09364Z" fill="#FF466C"/>
<path d="M15.5038 22.6512C18.1076 22.6512 20.2185 20.4695 20.2185 17.7783C20.2185 15.087 18.1076 12.9053 15.5038 12.9053C12.8999 12.9053 10.7891 15.087 10.7891 17.7783C10.7891 20.4695 12.8999 22.6512 15.5038 22.6512Z" fill="#FFE0E1"/>
<path d="M15.4965 15.0598C14.7296 15.0598 14.1094 14.8071 14.1094 14.3257C14.1094 13.8442 14.7322 13.5916 15.4965 13.5916C16.2608 13.5916 16.8836 13.8416 16.8836 14.3257C16.8836 14.8098 16.2634 15.0598 15.4965 15.0598Z" fill="#FF466C"/>
<path d="M8.3397 7.54296C8.81838 7.21047 9.32279 6.90458 9.89669 6.6572C9.77573 6.49495 8.94963 5.89646 7.84044 6.42313C7.10698 6.77158 6.62059 7.79565 6.94742 8.71865C7.45184 8.20794 7.91507 7.83289 8.3397 7.5403V7.54296Z" fill="#FF466C"/>
<path d="M22.6585 7.54296C22.1799 7.21047 21.6755 6.90458 21.1016 6.6572C21.2225 6.49495 22.0486 5.89646 23.1578 6.42313C23.8913 6.77158 24.3777 7.79565 24.0508 8.71865C23.5464 8.20794 23.0832 7.83289 22.6585 7.5403V7.54296Z" fill="#FF466C"/>
<path d="M18.4995 18.3768C18.3477 18.0842 17.9797 18.0683 17.3286 18.1667C16.6775 18.2651 15.9363 18.2651 15.4911 18.2651C15.0459 18.2651 14.3047 18.2651 13.6536 18.1667C13.0025 18.0683 12.637 18.0709 12.4826 18.3768C12.2896 18.7572 12.5187 19.1987 12.987 19.486C13.44 19.7626 14.3433 20.0526 15.4911 20.0526C16.6389 20.0526 17.5448 19.7626 17.9951 19.486C18.4635 19.1987 18.7106 18.7811 18.4995 18.3768Z" fill="#FF466C"/>
</g>
<defs>
<clipPath id="clip0_2758_14006">
<rect width="21" height="20" fill="white" transform="translate(5 5)"/>
</clipPath>
</defs>
</svg>
