<svg width="340" height="230" viewBox="0 0 340 230" fill="none" xmlns="http://www.w3.org/2000/svg">
<mask id="mask0_2796_19484" style="mask-type:alpha" maskUnits="userSpaceOnUse" x="0" y="0" width="340" height="230">
<rect width="340" height="230" fill="#D9D9D9"/>
</mask>
<g mask="url(#mask0_2796_19484)">
<g filter="url(#filter0_i_2796_19484)">
<path d="M48.1216 87.251C46.2921 121.531 68.7942 193.087 173.439 205.066" stroke="#668123" stroke-width="5"/>
</g>
<g filter="url(#filter1_i_2796_19484)">
<path d="M71.2575 155.354C65.4023 144.679 59.2762 120.358 81.6134 108.482C86.4786 117.296 91.2187 139.01 71.2575 155.354Z" fill="#668023"/>
</g>
<g filter="url(#filter2_d_2796_19484)">
<mask id="mask1_2796_19484" style="mask-type:alpha" maskUnits="userSpaceOnUse" x="47" y="63" width="37" height="40">
<path d="M68.5106 102.81C50.7243 104.72 46.6128 78.9994 48.1904 68.5599C45.9611 65.9507 46.5021 61.6348 66.5004 65.2445C91.4982 69.7565 86.2968 100.9 68.5106 102.81Z" fill="#F1FCFF"/>
</mask>
<g mask="url(#mask1_2796_19484)">
<g filter="url(#filter3_i_2796_19484)">
<path d="M68.5106 102.81C50.7243 104.72 46.6128 78.9994 48.1904 68.5599C45.9611 65.9507 46.5021 61.6348 66.5004 65.2445C91.4982 69.7565 86.2968 100.9 68.5106 102.81Z" fill="#F1FCFF"/>
</g>
<g filter="url(#filter4_f_2796_19484)">
<path d="M65.276 97.803C51.1491 99.2998 47.8595 78.9188 49.1031 70.6496C47.3299 68.5804 47.7557 65.1616 63.6448 68.0397C83.5063 71.6373 79.403 96.3062 65.276 97.803Z" fill="#DCF1F5"/>
</g>
<g opacity="0.5" filter="url(#filter5_f_2796_19484)">
<circle cx="66.6822" cy="96.2625" r="11.5" transform="rotate(-69.5644 66.6822 96.2625)" fill="#FEFFD8"/>
</g>
<g opacity="0.4" filter="url(#filter6_f_2796_19484)">
<path d="M60.137 85.8028C51.9802 86.7266 50.1517 74.8163 50.8976 69.9752C49.8814 68.7709 50.1388 66.7697 59.2975 68.3988C70.7459 70.4353 68.2938 84.8789 60.137 85.8028Z" fill="#C8DCE0"/>
</g>
</g>
</g>
<g filter="url(#filter7_d_2796_19484)">
<mask id="mask2_2796_19484" style="mask-type:alpha" maskUnits="userSpaceOnUse" x="51" y="39" width="45" height="35">
<path d="M94.1083 64.2075C86.8692 80.5657 62.5386 71.266 54.2865 64.68C50.9122 65.3061 47.445 62.6796 60.5702 47.1654C76.9767 27.7727 101.347 47.8492 94.1083 64.2075Z" fill="#F1FCFF"/>
</mask>
<g mask="url(#mask2_2796_19484)">
<g filter="url(#filter8_i_2796_19484)">
<path d="M94.1083 64.2075C86.8692 80.5657 62.5386 71.266 54.2865 64.68C50.9122 65.3061 47.445 62.6796 60.5702 47.1654C76.9767 27.7727 101.347 47.8492 94.1083 64.2075Z" fill="#F1FCFF"/>
</g>
<g filter="url(#filter9_f_2796_19484)">
<path d="M87.0229 63.271C81.2557 76.2537 61.9605 68.9121 55.421 63.7004C52.7424 64.2015 49.9945 62.1234 60.4316 49.802C73.4779 34.4003 92.7901 50.2883 87.0229 63.271Z" fill="#DCF1F5"/>
</g>
<g opacity="0.5" filter="url(#filter10_f_2796_19484)">
<circle cx="87.525" cy="62.5167" r="11.5" transform="rotate(-129.564 87.525 62.5167)" fill="#FEFFD8"/>
</g>
<g opacity="0.4" filter="url(#filter11_f_2796_19484)">
<path d="M74.0593 61.723C70.7809 69.2489 59.5521 64.8774 55.7325 61.8108C54.1815 62.0887 52.577 60.8652 58.5673 53.7481C66.0551 44.8517 77.3376 54.1971 74.0593 61.723Z" fill="#C8DCE0"/>
</g>
</g>
</g>
<g filter="url(#filter12_d_2796_19484)">
<mask id="mask3_2796_19484" style="mask-type:alpha" maskUnits="userSpaceOnUse" x="42" y="16" width="35" height="44">
<path d="M55.4739 16.775C37.9524 20.38 41.8801 46.1294 46.5661 55.5906C45.2386 58.7554 47.0699 62.7008 65.0149 53.1647C87.4462 41.2446 72.9954 13.1701 55.4739 16.775Z" fill="#F1FCFF"/>
</mask>
<g mask="url(#mask3_2796_19484)">
<g filter="url(#filter13_i_2796_19484)">
<path d="M55.4739 16.775C37.9524 20.38 41.8801 46.1294 46.5661 55.5906C45.2386 58.7554 47.0699 62.7008 65.0149 53.1647C87.4462 41.2446 72.9954 13.1701 55.4739 16.775Z" fill="#F1FCFF"/>
</g>
<g filter="url(#filter14_f_2796_19484)">
<path d="M54.5215 23.9671C40.611 26.8495 43.6931 47.2628 47.3992 54.759C46.3414 57.2703 47.7894 60.3964 62.0441 52.8101C79.8625 43.3273 68.432 21.0846 54.5215 23.9671Z" fill="#DCF1F5"/>
</g>
<g opacity="0.5" filter="url(#filter15_f_2796_19484)">
<circle r="11.5" transform="matrix(0.618277 0.78596 0.78596 -0.618277 55.7269 23.569)" fill="#FEFFD8"/>
</g>
<g opacity="0.4" filter="url(#filter16_f_2796_19484)">
<path d="M53.2846 36.9637C45.2346 38.5713 47.1251 50.4718 49.3117 54.855C48.7112 56.3117 49.5666 58.1392 57.7923 53.7947C68.0744 48.3642 61.3346 35.3562 53.2846 36.9637Z" fill="#C8DCE0"/>
</g>
</g>
</g>
<g filter="url(#filter17_d_2796_19484)">
<mask id="mask4_2796_19484" style="mask-type:alpha" maskUnits="userSpaceOnUse" x="11" y="24" width="38" height="40">
<path d="M11.9733 35.4522C6.33455 52.4287 30.5981 61.902 41.1347 62.5744C43.2117 65.3064 47.5442 65.6931 48.2582 45.3842C49.1507 19.9981 17.6121 18.4757 11.9733 35.4522Z" fill="#F1FCFF"/>
</mask>
<g mask="url(#mask4_2796_19484)">
<g filter="url(#filter18_i_2796_19484)">
<path d="M11.9733 35.4522C6.33455 52.4287 30.5981 61.902 41.1347 62.5744C43.2117 65.3064 47.5442 65.6931 48.2582 45.3842C49.1507 19.9981 17.6121 18.4757 11.9733 35.4522Z" fill="#F1FCFF"/>
</g>
<g filter="url(#filter19_f_2796_19484)">
<path d="M18.6297 38.5071C14.1707 51.9952 33.3903 59.5327 41.7351 60.0712C43.3811 62.243 46.8124 62.552 47.3699 46.4139C48.0667 26.2413 23.0887 25.0191 18.6297 38.5071Z" fill="#DCF1F5"/>
</g>
<g opacity="0.5" filter="url(#filter20_f_2796_19484)">
<circle r="11.5" transform="matrix(0.9898 -0.142464 -0.142464 -0.9898 17.9826 38.6274)" fill="#FEFFD8"/>
</g>
<g opacity="0.4" filter="url(#filter21_f_2796_19484)">
<path d="M29.2673 46.0759C26.6345 53.8512 37.8859 58.1643 42.7751 58.4621C43.7365 59.7106 45.7468 59.8835 46.0972 50.5876C46.5353 38.9678 31.9001 38.3006 29.2673 46.0759Z" fill="#C8DCE0"/>
</g>
</g>
</g>
<g filter="url(#filter22_d_2796_19484)">
<mask id="mask5_2796_19484" style="mask-type:alpha" maskUnits="userSpaceOnUse" x="2" y="50" width="45" height="36">
<path d="M6.37837 80.5502C18.261 93.9218 38.5969 77.6456 44.4476 68.8568C47.852 68.4241 50.3532 64.8654 33.1222 54.0926C11.5834 40.6266 -5.50432 67.1786 6.37837 80.5502Z" fill="#F1FCFF"/>
</mask>
<g mask="url(#mask5_2796_19484)">
<g filter="url(#filter23_i_2796_19484)">
<path d="M6.37837 80.5502C18.261 93.9218 38.5969 77.6456 44.4476 68.8568C47.852 68.4241 50.3532 64.8654 33.1222 54.0926C11.5834 40.6266 -5.50432 67.1786 6.37837 80.5502Z" fill="#F1FCFF"/>
</g>
<g filter="url(#filter24_f_2796_19484)">
<path d="M12.9871 76.4131C22.4386 87.0188 38.576 74.1429 43.2148 67.1853C45.9186 66.8457 47.9019 64.0286 34.2046 55.4768C17.0831 44.787 3.53561 65.8075 12.9871 76.4131Z" fill="#DCF1F5"/>
</g>
<g opacity="0.5" filter="url(#filter25_f_2796_19484)">
<circle r="11.5" transform="matrix(0.371523 -0.928424 -0.928424 -0.371523 12.1347 76.9334)" fill="#FEFFD8"/>
</g>
<g opacity="0.4" filter="url(#filter26_f_2796_19484)">
<path d="M24.8577 70.9853C30.2749 77.153 39.6358 69.5655 42.3384 65.4802C43.9003 65.2719 45.0552 63.6174 37.1799 58.666C27.3359 52.4767 19.4405 64.8175 24.8577 70.9853Z" fill="#C8DCE0"/>
</g>
</g>
</g>
<g filter="url(#filter27_d_2796_19484)">
<mask id="mask6_2796_19484" style="mask-type:alpha" maskUnits="userSpaceOnUse" x="19" y="65" width="37" height="44">
<path d="M22.7499 102.173C12.2028 87.7248 32.4219 71.3037 42.2516 67.4502C43.3965 64.215 47.4048 62.5255 54.2778 81.6494C62.8692 105.554 33.297 116.622 22.7499 102.173Z" fill="#F1FCFF"/>
</mask>
<g mask="url(#mask6_2796_19484)">
<g filter="url(#filter28_i_2796_19484)">
<path d="M22.7499 102.173C12.2028 87.7248 32.4219 71.3037 42.2516 67.4502C43.3965 64.215 47.4048 62.5255 54.2778 81.6494C62.8692 105.554 33.297 116.622 22.7499 102.173Z" fill="#F1FCFF"/>
</g>
<g filter="url(#filter29_f_2796_19484)">
<path d="M26.6047 95.1023C18.2449 83.6164 34.2506 70.577 42.0337 67.5195C42.939 64.9492 46.1127 63.6086 51.5648 78.808C58.38 97.8073 34.9644 106.588 26.6047 95.1023Z" fill="#DCF1F5"/>
</g>
<g opacity="0.5" filter="url(#filter30_f_2796_19484)">
<circle cx="27.5048" cy="97.3161" r="11.5" transform="rotate(-9.56436 27.5048 97.3161)" fill="#FEFFD8"/>
</g>
<g opacity="0.4" filter="url(#filter31_f_2796_19484)">
<path d="M34.4254 84.65C29.5469 78.048 38.9472 70.5093 43.5128 68.7347C44.0476 67.2525 45.9094 66.4748 49.0779 75.221C53.0385 86.1538 39.3039 91.2521 34.4254 84.65Z" fill="#C8DCE0"/>
</g>
</g>
</g>
<g filter="url(#filter32_i_2796_19484)">
<circle cx="47.4173" cy="62.017" r="7" transform="rotate(-9.56436 47.4173 62.017)" fill="#EB8644"/>
</g>
<path d="M102.388 162.092C141.588 189.692 170.388 232.925 179.888 251.092C173.388 259.425 156.187 275.492 139.387 273.092C118.387 270.092 59.8884 230.092 38.3884 208.592C16.8884 187.092 7.88747 159.092 18.3884 144.092C28.8893 129.092 53.3884 127.592 102.388 162.092Z" fill="#D4DBB2"/>
<mask id="mask7_2796_19484" style="mask-type:alpha" maskUnits="userSpaceOnUse" x="14" y="134" width="166" height="140">
<path d="M102.388 162.092C141.588 189.692 170.388 232.925 179.888 251.092C173.388 259.425 156.187 275.492 139.387 273.092C118.387 270.092 59.8884 230.092 38.3884 208.592C16.8884 187.092 7.88747 159.092 18.3884 144.092C28.8893 129.092 53.3884 127.592 102.388 162.092Z" fill="#D4DBB2"/>
</mask>
<g mask="url(#mask7_2796_19484)">
<g filter="url(#filter33_f_2796_19484)">
<path d="M108.054 174C144.445 198.563 171.181 237.039 180 253.206C173.966 260.622 157.998 274.921 142.402 272.785C122.907 270.115 68.5998 234.517 48.6406 215.383C28.6814 196.249 20.3255 171.331 30.0739 157.981C39.8222 144.632 62.5656 143.297 108.054 174Z" fill="#B4C962"/>
</g>
<g filter="url(#filter34_f_2796_19484)">
<path d="M112.726 182.783C146.754 205.166 171.753 240.229 180 254.962C174.357 261.72 159.426 274.75 144.843 272.804C126.614 270.371 75.8336 237.931 57.1704 220.494C38.5073 203.058 30.694 180.35 39.8093 168.185C48.9247 156.02 70.1912 154.803 112.726 182.783Z" fill="#7C9D23"/>
</g>
<g filter="url(#filter35_f_2796_19484)">
<path d="M119.734 197.557C150.217 216.771 172.613 246.869 180 259.516C174.945 265.317 161.569 276.503 148.505 274.832C132.175 272.743 86.6842 244.896 69.9652 229.929C53.2461 214.961 46.2467 195.468 54.4125 185.026C62.5784 174.583 81.6296 173.539 119.734 197.557Z" fill="#75932E"/>
</g>
<g filter="url(#filter36_f_2796_19484)">
<ellipse cx="38.5" cy="144.5" rx="58.5" ry="74.5" fill="#5E8336"/>
<ellipse cx="38.5" cy="144.5" rx="58.5" ry="74.5" fill="url(#paint0_radial_2796_19484)"/>
</g>
<path d="M23.5 146.5C57 172.5 133.4 234 171 272" stroke="url(#paint1_radial_2796_19484)" stroke-width="2"/>
<g opacity="0.4" filter="url(#filter37_f_2796_19484)">
<path d="M123.237 274.932C93.2824 164.917 116.086 108.472 131.231 94.0006L197.404 235.497L123.237 274.932Z" fill="black"/>
</g>
</g>
<mask id="mask8_2796_19484" style="mask-type:alpha" maskUnits="userSpaceOnUse" x="97" y="10" width="182" height="249">
<path d="M98.4252 73.8452C88.0252 155.445 137.092 231.179 162.925 258.845L278.926 249.345C275.926 110.345 254.426 77.8452 225.426 40.3451C196.426 2.8451 109.577 -13.6548 98.4252 73.8452Z" fill="#D4DBB2"/>
</mask>
<g mask="url(#mask8_2796_19484)">
<path d="M98.4252 73.8452C88.0252 155.445 137.092 231.179 162.925 258.845L278.926 249.345C275.926 110.345 254.426 77.8452 225.426 40.3451C196.426 2.8451 109.577 -13.6548 98.4252 73.8452Z" fill="#D4DBB2"/>
<g filter="url(#filter38_f_2796_19484)">
<path d="M104.332 81.8849C94.6135 163.536 140.464 239.316 164.604 267L273 257.494C270.197 118.408 250.106 85.8874 223.007 48.364C195.908 10.8406 114.753 -5.66956 104.332 81.8849Z" fill="#B4C962"/>
</g>
<g filter="url(#filter39_f_2796_19484)">
<path d="M116.238 94.5233C107.205 170.599 149.819 241.206 172.255 267L273 258.143C270.395 128.552 251.722 98.2525 226.536 63.291C201.35 28.3294 125.923 12.9464 116.238 94.5233Z" fill="#7C9D23"/>
</g>
<g filter="url(#filter40_f_2796_19484)">
<path d="M137.073 117.57C129.241 183.481 166.191 244.653 185.645 267L273 259.327C270.741 147.052 254.55 120.801 232.712 90.5107C210.873 60.2208 145.471 46.8932 137.073 117.57Z" fill="#75932E"/>
</g>
<g filter="url(#filter41_f_2796_19484)">
<ellipse cx="272" cy="231" rx="76" ry="85" fill="#5E8336"/>
<ellipse cx="272" cy="231" rx="76" ry="85" fill="url(#paint2_radial_2796_19484)"/>
</g>
<path d="M147.5 14.5L185.487 156.5M210.5 250L185.487 156.5M185.487 156.5C163.325 147.167 115.2 125.6 100 114" stroke="url(#paint3_radial_2796_19484)" stroke-width="2"/>
<g opacity="0.5" filter="url(#filter42_f_2796_19484)">
<path d="M189.5 243C199 139 246.333 92.6667 266.5 87L258.5 243H189.5Z" fill="black"/>
</g>
</g>
<mask id="mask9_2796_19484" style="mask-type:alpha" maskUnits="userSpaceOnUse" x="209" y="77" width="130" height="185">
<path d="M216.068 166.957C203.268 206.957 210.734 242.957 216.068 255.957C233.234 260.29 270.468 266.357 282.068 255.957C296.568 242.957 324.568 175.957 332.568 154.457C340.568 132.957 346.568 82.9569 303.068 77.4569C259.568 71.9569 232.068 116.957 216.068 166.957Z" fill="#D4DBB2"/>
</mask>
<g mask="url(#mask9_2796_19484)">
<path d="M216.068 166.957C203.268 206.957 210.734 242.957 216.068 255.957C233.234 260.29 270.468 266.357 282.068 255.957C296.568 242.957 324.568 175.957 332.568 154.457C340.568 132.957 346.568 82.9569 303.068 77.4569C259.568 71.9569 232.068 116.957 216.068 166.957Z" fill="#D4DBB2"/>
<g filter="url(#filter43_f_2796_19484)">
<path d="M218.837 173.103C206.455 213.168 213.678 249.227 218.837 262.248C235.443 266.589 271.461 272.665 282.682 262.248C296.708 249.227 323.793 182.118 331.532 160.583C339.271 139.048 345.075 88.9666 302.996 83.4576C260.917 77.9487 234.314 123.022 218.837 173.103Z" fill="#B4C962"/>
</g>
<g filter="url(#filter44_f_2796_19484)">
<path d="M226.633 190.311C216.431 226.911 222.382 259.851 226.633 271.746C240.317 275.711 269.995 281.262 279.242 271.746C290.799 259.851 313.118 198.546 319.494 178.873C325.871 159.201 330.654 113.451 295.98 108.418C261.307 103.386 239.387 144.561 226.633 190.311Z" fill="#7C9D23"/>
</g>
<g filter="url(#filter45_f_2796_19484)">
<path d="M239.102 196.751C231.673 225.988 236.007 252.301 239.102 261.803C249.066 264.97 270.676 269.404 277.409 261.803C285.825 252.301 302.076 203.329 306.719 187.615C311.362 171.9 314.845 135.354 289.597 131.334C264.35 127.314 248.388 160.205 239.102 196.751Z" fill="#75932E"/>
</g>
<g filter="url(#filter46_f_2796_19484)">
<ellipse cx="282.5" cy="234" rx="47.5" ry="51" fill="#5E8336"/>
<ellipse cx="282.5" cy="234" rx="47.5" ry="51" fill="url(#paint4_radial_2796_19484)"/>
</g>
<path opacity="0.9" d="M313 84C298.333 106.833 263.9 175.2 243.5 266" stroke="url(#paint5_radial_2796_19484)" stroke-width="2"/>
</g>
</g>
<defs>
<filter id="filter0_i_2796_19484" x="45.5195" y="87.1172" width="128.203" height="120.434" filterUnits="userSpaceOnUse" color-interpolation-filters="sRGB">
<feFlood flood-opacity="0" result="BackgroundImageFix"/>
<feBlend mode="normal" in="SourceGraphic" in2="BackgroundImageFix" result="shape"/>
<feColorMatrix in="SourceAlpha" type="matrix" values="0 0 0 0 0 0 0 0 0 0 0 0 0 0 0 0 0 0 127 0" result="hardAlpha"/>
<feOffset/>
<feGaussianBlur stdDeviation="2"/>
<feComposite in2="hardAlpha" operator="arithmetic" k2="-1" k3="1"/>
<feColorMatrix type="matrix" values="0 0 0 0 0 0 0 0 0 0 0 0 0 0 0 0 0 0 0.25 0"/>
<feBlend mode="normal" in2="shape" result="effect1_innerShadow_2796_19484"/>
</filter>
<filter id="filter1_i_2796_19484" x="63.8008" y="107.482" width="22.0703" height="47.8711" filterUnits="userSpaceOnUse" color-interpolation-filters="sRGB">
<feFlood flood-opacity="0" result="BackgroundImageFix"/>
<feBlend mode="normal" in="SourceGraphic" in2="BackgroundImageFix" result="shape"/>
<feColorMatrix in="SourceAlpha" type="matrix" values="0 0 0 0 0 0 0 0 0 0 0 0 0 0 0 0 0 0 127 0" result="hardAlpha"/>
<feOffset dx="-2" dy="-1"/>
<feGaussianBlur stdDeviation="2"/>
<feComposite in2="hardAlpha" operator="arithmetic" k2="-1" k3="1"/>
<feColorMatrix type="matrix" values="0 0 0 0 0 0 0 0 0 0 0 0 0 0 0 0 0 0 0.25 0"/>
<feBlend mode="normal" in2="shape" result="effect1_innerShadow_2796_19484"/>
</filter>
<filter id="filter2_d_2796_19484" x="46.293" y="62.8633" width="40.2773" height="43.0488" filterUnits="userSpaceOnUse" color-interpolation-filters="sRGB">
<feFlood flood-opacity="0" result="BackgroundImageFix"/>
<feColorMatrix in="SourceAlpha" type="matrix" values="0 0 0 0 0 0 0 0 0 0 0 0 0 0 0 0 0 0 127 0" result="hardAlpha"/>
<feOffset dx="1" dy="1"/>
<feGaussianBlur stdDeviation="1"/>
<feComposite in2="hardAlpha" operator="out"/>
<feColorMatrix type="matrix" values="0 0 0 0 0 0 0 0 0 0 0 0 0 0 0 0 0 0 0.15 0"/>
<feBlend mode="normal" in2="BackgroundImageFix" result="effect1_dropShadow_2796_19484"/>
<feBlend mode="normal" in="SourceGraphic" in2="effect1_dropShadow_2796_19484" result="shape"/>
</filter>
<filter id="filter3_i_2796_19484" x="46.293" y="62.8633" width="37.2773" height="40.0488" filterUnits="userSpaceOnUse" color-interpolation-filters="sRGB">
<feFlood flood-opacity="0" result="BackgroundImageFix"/>
<feBlend mode="normal" in="SourceGraphic" in2="BackgroundImageFix" result="shape"/>
<feColorMatrix in="SourceAlpha" type="matrix" values="0 0 0 0 0 0 0 0 0 0 0 0 0 0 0 0 0 0 127 0" result="hardAlpha"/>
<feOffset dx="-1" dy="-1"/>
<feGaussianBlur stdDeviation="1"/>
<feComposite in2="hardAlpha" operator="arithmetic" k2="-1" k3="1"/>
<feColorMatrix type="matrix" values="0 0 0 0 0.244271 0 0 0 0 0.445271 0 0 0 0 0.558333 0 0 0 0.25 0"/>
<feBlend mode="normal" in2="shape" result="effect1_innerShadow_2796_19484"/>
</filter>
<filter id="filter4_f_2796_19484" x="44.3906" y="62.9355" width="36.832" height="38.9453" filterUnits="userSpaceOnUse" color-interpolation-filters="sRGB">
<feFlood flood-opacity="0" result="BackgroundImageFix"/>
<feBlend mode="normal" in="SourceGraphic" in2="BackgroundImageFix" result="shape"/>
<feGaussianBlur stdDeviation="2" result="effect1_foregroundBlur_2796_19484"/>
</filter>
<filter id="filter5_f_2796_19484" x="39.1797" y="68.7598" width="55.0039" height="55.0059" filterUnits="userSpaceOnUse" color-interpolation-filters="sRGB">
<feFlood flood-opacity="0" result="BackgroundImageFix"/>
<feBlend mode="normal" in="SourceGraphic" in2="BackgroundImageFix" result="shape"/>
<feGaussianBlur stdDeviation="8" result="effect1_foregroundBlur_2796_19484"/>
</filter>
<filter id="filter6_f_2796_19484" x="40.4922" y="57.7852" width="36.5898" height="38.0684" filterUnits="userSpaceOnUse" color-interpolation-filters="sRGB">
<feFlood flood-opacity="0" result="BackgroundImageFix"/>
<feBlend mode="normal" in="SourceGraphic" in2="BackgroundImageFix" result="shape"/>
<feGaussianBlur stdDeviation="5" result="effect1_foregroundBlur_2796_19484"/>
</filter>
<filter id="filter7_d_2796_19484" x="50.1953" y="38.1973" width="48.2227" height="38.1465" filterUnits="userSpaceOnUse" color-interpolation-filters="sRGB">
<feFlood flood-opacity="0" result="BackgroundImageFix"/>
<feColorMatrix in="SourceAlpha" type="matrix" values="0 0 0 0 0 0 0 0 0 0 0 0 0 0 0 0 0 0 127 0" result="hardAlpha"/>
<feOffset dx="1" dy="1"/>
<feGaussianBlur stdDeviation="1"/>
<feComposite in2="hardAlpha" operator="out"/>
<feColorMatrix type="matrix" values="0 0 0 0 0 0 0 0 0 0 0 0 0 0 0 0 0 0 0.15 0"/>
<feBlend mode="normal" in2="BackgroundImageFix" result="effect1_dropShadow_2796_19484"/>
<feBlend mode="normal" in="SourceGraphic" in2="effect1_dropShadow_2796_19484" result="shape"/>
</filter>
<filter id="filter8_i_2796_19484" x="50.1953" y="38.1973" width="45.2227" height="35.1465" filterUnits="userSpaceOnUse" color-interpolation-filters="sRGB">
<feFlood flood-opacity="0" result="BackgroundImageFix"/>
<feBlend mode="normal" in="SourceGraphic" in2="BackgroundImageFix" result="shape"/>
<feColorMatrix in="SourceAlpha" type="matrix" values="0 0 0 0 0 0 0 0 0 0 0 0 0 0 0 0 0 0 127 0" result="hardAlpha"/>
<feOffset dx="-1" dy="-1"/>
<feGaussianBlur stdDeviation="1"/>
<feComposite in2="hardAlpha" operator="arithmetic" k2="-1" k3="1"/>
<feColorMatrix type="matrix" values="0 0 0 0 0.244271 0 0 0 0 0.445271 0 0 0 0 0.558333 0 0 0 0.25 0"/>
<feBlend mode="normal" in2="shape" result="effect1_innerShadow_2796_19484"/>
</filter>
<filter id="filter9_f_2796_19484" x="48.9688" y="39.4629" width="43.1016" height="35.0762" filterUnits="userSpaceOnUse" color-interpolation-filters="sRGB">
<feFlood flood-opacity="0" result="BackgroundImageFix"/>
<feBlend mode="normal" in="SourceGraphic" in2="BackgroundImageFix" result="shape"/>
<feGaussianBlur stdDeviation="2" result="effect1_foregroundBlur_2796_19484"/>
</filter>
<filter id="filter10_f_2796_19484" x="60.0234" y="35.0156" width="55" height="55.002" filterUnits="userSpaceOnUse" color-interpolation-filters="sRGB">
<feFlood flood-opacity="0" result="BackgroundImageFix"/>
<feBlend mode="normal" in="SourceGraphic" in2="BackgroundImageFix" result="shape"/>
<feGaussianBlur stdDeviation="8" result="effect1_foregroundBlur_2796_19484"/>
</filter>
<filter id="filter11_f_2796_19484" x="44.3008" y="40.1211" width="40.3398" height="35.7695" filterUnits="userSpaceOnUse" color-interpolation-filters="sRGB">
<feFlood flood-opacity="0" result="BackgroundImageFix"/>
<feBlend mode="normal" in="SourceGraphic" in2="BackgroundImageFix" result="shape"/>
<feGaussianBlur stdDeviation="5" result="effect1_foregroundBlur_2796_19484"/>
</filter>
<filter id="filter12_d_2796_19484" x="41.582" y="15.457" width="37.8984" height="46.6992" filterUnits="userSpaceOnUse" color-interpolation-filters="sRGB">
<feFlood flood-opacity="0" result="BackgroundImageFix"/>
<feColorMatrix in="SourceAlpha" type="matrix" values="0 0 0 0 0 0 0 0 0 0 0 0 0 0 0 0 0 0 127 0" result="hardAlpha"/>
<feOffset dx="1" dy="1"/>
<feGaussianBlur stdDeviation="1"/>
<feComposite in2="hardAlpha" operator="out"/>
<feColorMatrix type="matrix" values="0 0 0 0 0 0 0 0 0 0 0 0 0 0 0 0 0 0 0.15 0"/>
<feBlend mode="normal" in2="BackgroundImageFix" result="effect1_dropShadow_2796_19484"/>
<feBlend mode="normal" in="SourceGraphic" in2="effect1_dropShadow_2796_19484" result="shape"/>
</filter>
<filter id="filter13_i_2796_19484" x="41.582" y="15.457" width="34.8984" height="43.6992" filterUnits="userSpaceOnUse" color-interpolation-filters="sRGB">
<feFlood flood-opacity="0" result="BackgroundImageFix"/>
<feBlend mode="normal" in="SourceGraphic" in2="BackgroundImageFix" result="shape"/>
<feColorMatrix in="SourceAlpha" type="matrix" values="0 0 0 0 0 0 0 0 0 0 0 0 0 0 0 0 0 0 127 0" result="hardAlpha"/>
<feOffset dx="-1" dy="-1"/>
<feGaussianBlur stdDeviation="1"/>
<feComposite in2="hardAlpha" operator="arithmetic" k2="-1" k3="1"/>
<feColorMatrix type="matrix" values="0 0 0 0 0.244271 0 0 0 0 0.445271 0 0 0 0 0.558333 0 0 0 0.25 0"/>
<feBlend mode="normal" in2="shape" result="effect1_innerShadow_2796_19484"/>
</filter>
<filter id="filter14_f_2796_19484" x="40.2656" y="19.7109" width="34.9023" height="41.873" filterUnits="userSpaceOnUse" color-interpolation-filters="sRGB">
<feFlood flood-opacity="0" result="BackgroundImageFix"/>
<feBlend mode="normal" in="SourceGraphic" in2="BackgroundImageFix" result="shape"/>
<feGaussianBlur stdDeviation="2" result="effect1_foregroundBlur_2796_19484"/>
</filter>
<filter id="filter15_f_2796_19484" x="28.2266" y="-3.93164" width="55" height="55.002" filterUnits="userSpaceOnUse" color-interpolation-filters="sRGB">
<feFlood flood-opacity="0" result="BackgroundImageFix"/>
<feBlend mode="normal" in="SourceGraphic" in2="BackgroundImageFix" result="shape"/>
<feGaussianBlur stdDeviation="8" result="effect1_foregroundBlur_2796_19484"/>
</filter>
<filter id="filter16_f_2796_19484" x="37.418" y="26.8281" width="35.5938" height="39.6816" filterUnits="userSpaceOnUse" color-interpolation-filters="sRGB">
<feFlood flood-opacity="0" result="BackgroundImageFix"/>
<feBlend mode="normal" in="SourceGraphic" in2="BackgroundImageFix" result="shape"/>
<feGaussianBlur stdDeviation="5" result="effect1_foregroundBlur_2796_19484"/>
</filter>
<filter id="filter17_d_2796_19484" x="10.1367" y="23.2402" width="41.1406" height="43.6738" filterUnits="userSpaceOnUse" color-interpolation-filters="sRGB">
<feFlood flood-opacity="0" result="BackgroundImageFix"/>
<feColorMatrix in="SourceAlpha" type="matrix" values="0 0 0 0 0 0 0 0 0 0 0 0 0 0 0 0 0 0 127 0" result="hardAlpha"/>
<feOffset dx="1" dy="1"/>
<feGaussianBlur stdDeviation="1"/>
<feComposite in2="hardAlpha" operator="out"/>
<feColorMatrix type="matrix" values="0 0 0 0 0 0 0 0 0 0 0 0 0 0 0 0 0 0 0.15 0"/>
<feBlend mode="normal" in2="BackgroundImageFix" result="effect1_dropShadow_2796_19484"/>
<feBlend mode="normal" in="SourceGraphic" in2="effect1_dropShadow_2796_19484" result="shape"/>
</filter>
<filter id="filter18_i_2796_19484" x="10.1367" y="23.2402" width="38.1406" height="40.6738" filterUnits="userSpaceOnUse" color-interpolation-filters="sRGB">
<feFlood flood-opacity="0" result="BackgroundImageFix"/>
<feBlend mode="normal" in="SourceGraphic" in2="BackgroundImageFix" result="shape"/>
<feColorMatrix in="SourceAlpha" type="matrix" values="0 0 0 0 0 0 0 0 0 0 0 0 0 0 0 0 0 0 127 0" result="hardAlpha"/>
<feOffset dx="-1" dy="-1"/>
<feGaussianBlur stdDeviation="1"/>
<feComposite in2="hardAlpha" operator="arithmetic" k2="-1" k3="1"/>
<feColorMatrix type="matrix" values="0 0 0 0 0.244271 0 0 0 0 0.445271 0 0 0 0 0.558333 0 0 0 0.25 0"/>
<feBlend mode="normal" in2="shape" result="effect1_innerShadow_2796_19484"/>
</filter>
<filter id="filter19_f_2796_19484" x="13.9688" y="25.6035" width="37.4141" height="39.5332" filterUnits="userSpaceOnUse" color-interpolation-filters="sRGB">
<feFlood flood-opacity="0" result="BackgroundImageFix"/>
<feBlend mode="normal" in="SourceGraphic" in2="BackgroundImageFix" result="shape"/>
<feGaussianBlur stdDeviation="2" result="effect1_foregroundBlur_2796_19484"/>
</filter>
<filter id="filter20_f_2796_19484" x="-9.51953" y="11.125" width="55.0039" height="55.0039" filterUnits="userSpaceOnUse" color-interpolation-filters="sRGB">
<feFlood flood-opacity="0" result="BackgroundImageFix"/>
<feBlend mode="normal" in="SourceGraphic" in2="BackgroundImageFix" result="shape"/>
<feGaussianBlur stdDeviation="8" result="effect1_foregroundBlur_2796_19484"/>
</filter>
<filter id="filter21_f_2796_19484" x="18.875" y="30.9277" width="37.2305" height="38.1465" filterUnits="userSpaceOnUse" color-interpolation-filters="sRGB">
<feFlood flood-opacity="0" result="BackgroundImageFix"/>
<feBlend mode="normal" in="SourceGraphic" in2="BackgroundImageFix" result="shape"/>
<feGaussianBlur stdDeviation="5" result="effect1_foregroundBlur_2796_19484"/>
</filter>
<filter id="filter22_d_2796_19484" x="1.47656" y="49.3848" width="48.4258" height="39.2441" filterUnits="userSpaceOnUse" color-interpolation-filters="sRGB">
<feFlood flood-opacity="0" result="BackgroundImageFix"/>
<feColorMatrix in="SourceAlpha" type="matrix" values="0 0 0 0 0 0 0 0 0 0 0 0 0 0 0 0 0 0 127 0" result="hardAlpha"/>
<feOffset dx="1" dy="1"/>
<feGaussianBlur stdDeviation="1"/>
<feComposite in2="hardAlpha" operator="out"/>
<feColorMatrix type="matrix" values="0 0 0 0 0 0 0 0 0 0 0 0 0 0 0 0 0 0 0.15 0"/>
<feBlend mode="normal" in2="BackgroundImageFix" result="effect1_dropShadow_2796_19484"/>
<feBlend mode="normal" in="SourceGraphic" in2="effect1_dropShadow_2796_19484" result="shape"/>
</filter>
<filter id="filter23_i_2796_19484" x="1.47656" y="49.3848" width="45.4258" height="36.2441" filterUnits="userSpaceOnUse" color-interpolation-filters="sRGB">
<feFlood flood-opacity="0" result="BackgroundImageFix"/>
<feBlend mode="normal" in="SourceGraphic" in2="BackgroundImageFix" result="shape"/>
<feColorMatrix in="SourceAlpha" type="matrix" values="0 0 0 0 0 0 0 0 0 0 0 0 0 0 0 0 0 0 127 0" result="hardAlpha"/>
<feOffset dx="-1" dy="-1"/>
<feGaussianBlur stdDeviation="1"/>
<feComposite in2="hardAlpha" operator="arithmetic" k2="-1" k3="1"/>
<feColorMatrix type="matrix" values="0 0 0 0 0.244271 0 0 0 0 0.445271 0 0 0 0 0.558333 0 0 0 0.25 0"/>
<feBlend mode="normal" in2="shape" result="effect1_innerShadow_2796_19484"/>
</filter>
<filter id="filter24_f_2796_19484" x="5.87891" y="48.5273" width="43.2852" height="35.9199" filterUnits="userSpaceOnUse" color-interpolation-filters="sRGB">
<feFlood flood-opacity="0" result="BackgroundImageFix"/>
<feBlend mode="normal" in="SourceGraphic" in2="BackgroundImageFix" result="shape"/>
<feGaussianBlur stdDeviation="2" result="effect1_foregroundBlur_2796_19484"/>
</filter>
<filter id="filter25_f_2796_19484" x="-15.3672" y="49.4297" width="55.0039" height="55.0059" filterUnits="userSpaceOnUse" color-interpolation-filters="sRGB">
<feFlood flood-opacity="0" result="BackgroundImageFix"/>
<feBlend mode="normal" in="SourceGraphic" in2="BackgroundImageFix" result="shape"/>
<feGaussianBlur stdDeviation="8" result="effect1_foregroundBlur_2796_19484"/>
</filter>
<filter id="filter26_f_2796_19484" x="13.0938" y="46.9746" width="40.375" height="36.3379" filterUnits="userSpaceOnUse" color-interpolation-filters="sRGB">
<feFlood flood-opacity="0" result="BackgroundImageFix"/>
<feBlend mode="normal" in="SourceGraphic" in2="BackgroundImageFix" result="shape"/>
<feGaussianBlur stdDeviation="5" result="effect1_foregroundBlur_2796_19484"/>
</filter>
<filter id="filter27_d_2796_19484" x="18.7852" y="64.4434" width="40.0391" height="47.1895" filterUnits="userSpaceOnUse" color-interpolation-filters="sRGB">
<feFlood flood-opacity="0" result="BackgroundImageFix"/>
<feColorMatrix in="SourceAlpha" type="matrix" values="0 0 0 0 0 0 0 0 0 0 0 0 0 0 0 0 0 0 127 0" result="hardAlpha"/>
<feOffset dx="1" dy="1"/>
<feGaussianBlur stdDeviation="1"/>
<feComposite in2="hardAlpha" operator="out"/>
<feColorMatrix type="matrix" values="0 0 0 0 0 0 0 0 0 0 0 0 0 0 0 0 0 0 0.15 0"/>
<feBlend mode="normal" in2="BackgroundImageFix" result="effect1_dropShadow_2796_19484"/>
<feBlend mode="normal" in="SourceGraphic" in2="effect1_dropShadow_2796_19484" result="shape"/>
</filter>
<filter id="filter28_i_2796_19484" x="18.7852" y="64.4434" width="37.0391" height="44.1895" filterUnits="userSpaceOnUse" color-interpolation-filters="sRGB">
<feFlood flood-opacity="0" result="BackgroundImageFix"/>
<feBlend mode="normal" in="SourceGraphic" in2="BackgroundImageFix" result="shape"/>
<feColorMatrix in="SourceAlpha" type="matrix" values="0 0 0 0 0 0 0 0 0 0 0 0 0 0 0 0 0 0 127 0" result="hardAlpha"/>
<feOffset dx="-1" dy="-1"/>
<feGaussianBlur stdDeviation="1"/>
<feComposite in2="hardAlpha" operator="arithmetic" k2="-1" k3="1"/>
<feColorMatrix type="matrix" values="0 0 0 0 0.244271 0 0 0 0 0.445271 0 0 0 0 0.558333 0 0 0 0.25 0"/>
<feBlend mode="normal" in2="shape" result="effect1_innerShadow_2796_19484"/>
</filter>
<filter id="filter29_f_2796_19484" x="20.25" y="61.9258" width="36.543" height="42.3145" filterUnits="userSpaceOnUse" color-interpolation-filters="sRGB">
<feFlood flood-opacity="0" result="BackgroundImageFix"/>
<feBlend mode="normal" in="SourceGraphic" in2="BackgroundImageFix" result="shape"/>
<feGaussianBlur stdDeviation="2" result="effect1_foregroundBlur_2796_19484"/>
</filter>
<filter id="filter30_f_2796_19484" x="0.00390625" y="69.8145" width="55.0039" height="55.0039" filterUnits="userSpaceOnUse" color-interpolation-filters="sRGB">
<feFlood flood-opacity="0" result="BackgroundImageFix"/>
<feBlend mode="normal" in="SourceGraphic" in2="BackgroundImageFix" result="shape"/>
<feGaussianBlur stdDeviation="8" result="effect1_foregroundBlur_2796_19484"/>
</filter>
<filter id="filter31_f_2796_19484" x="23.0586" y="57.8145" width="36.7266" height="39.7773" filterUnits="userSpaceOnUse" color-interpolation-filters="sRGB">
<feFlood flood-opacity="0" result="BackgroundImageFix"/>
<feBlend mode="normal" in="SourceGraphic" in2="BackgroundImageFix" result="shape"/>
<feGaussianBlur stdDeviation="5" result="effect1_foregroundBlur_2796_19484"/>
</filter>
<filter id="filter32_i_2796_19484" x="37.418" y="54.0156" width="17" height="15.002" filterUnits="userSpaceOnUse" color-interpolation-filters="sRGB">
<feFlood flood-opacity="0" result="BackgroundImageFix"/>
<feBlend mode="normal" in="SourceGraphic" in2="BackgroundImageFix" result="shape"/>
<feColorMatrix in="SourceAlpha" type="matrix" values="0 0 0 0 0 0 0 0 0 0 0 0 0 0 0 0 0 0 127 0" result="hardAlpha"/>
<feOffset dx="-3" dy="-1"/>
<feGaussianBlur stdDeviation="1.5"/>
<feComposite in2="hardAlpha" operator="arithmetic" k2="-1" k3="1"/>
<feColorMatrix type="matrix" values="0 0 0 0 0 0 0 0 0 0 0 0 0 0 0 0 0 0 0.25 0"/>
<feBlend mode="normal" in2="shape" result="effect1_innerShadow_2796_19484"/>
</filter>
<filter id="filter33_f_2796_19484" x="-9" y="114" width="224" height="194" filterUnits="userSpaceOnUse" color-interpolation-filters="sRGB">
<feFlood flood-opacity="0" result="BackgroundImageFix"/>
<feBlend mode="normal" in="SourceGraphic" in2="BackgroundImageFix" result="shape"/>
<feGaussianBlur stdDeviation="17.5" result="effect1_foregroundBlur_2796_19484"/>
</filter>
<filter id="filter34_f_2796_19484" x="1" y="125" width="214" height="183" filterUnits="userSpaceOnUse" color-interpolation-filters="sRGB">
<feFlood flood-opacity="0" result="BackgroundImageFix"/>
<feBlend mode="normal" in="SourceGraphic" in2="BackgroundImageFix" result="shape"/>
<feGaussianBlur stdDeviation="17.5" result="effect1_foregroundBlur_2796_19484"/>
</filter>
<filter id="filter35_f_2796_19484" x="16" y="143" width="199" height="167" filterUnits="userSpaceOnUse" color-interpolation-filters="sRGB">
<feFlood flood-opacity="0" result="BackgroundImageFix"/>
<feBlend mode="normal" in="SourceGraphic" in2="BackgroundImageFix" result="shape"/>
<feGaussianBlur stdDeviation="17.5" result="effect1_foregroundBlur_2796_19484"/>
</filter>
<filter id="filter36_f_2796_19484" x="-71" y="19" width="219" height="251" filterUnits="userSpaceOnUse" color-interpolation-filters="sRGB">
<feFlood flood-opacity="0" result="BackgroundImageFix"/>
<feBlend mode="normal" in="SourceGraphic" in2="BackgroundImageFix" result="shape"/>
<feGaussianBlur stdDeviation="25.5" result="effect1_foregroundBlur_2796_19484"/>
</filter>
<filter id="filter37_f_2796_19484" x="83.5781" y="69" width="138.828" height="230.932" filterUnits="userSpaceOnUse" color-interpolation-filters="sRGB">
<feFlood flood-opacity="0" result="BackgroundImageFix"/>
<feBlend mode="normal" in="SourceGraphic" in2="BackgroundImageFix" result="shape"/>
<feGaussianBlur stdDeviation="12.5" result="effect1_foregroundBlur_2796_19484"/>
</filter>
<filter id="filter38_f_2796_19484" x="68" y="-17" width="240" height="319" filterUnits="userSpaceOnUse" color-interpolation-filters="sRGB">
<feFlood flood-opacity="0" result="BackgroundImageFix"/>
<feBlend mode="normal" in="SourceGraphic" in2="BackgroundImageFix" result="shape"/>
<feGaussianBlur stdDeviation="17.5" result="effect1_foregroundBlur_2796_19484"/>
</filter>
<filter id="filter39_f_2796_19484" x="80" y="0" width="228" height="302" filterUnits="userSpaceOnUse" color-interpolation-filters="sRGB">
<feFlood flood-opacity="0" result="BackgroundImageFix"/>
<feBlend mode="normal" in="SourceGraphic" in2="BackgroundImageFix" result="shape"/>
<feGaussianBlur stdDeviation="17.5" result="effect1_foregroundBlur_2796_19484"/>
</filter>
<filter id="filter40_f_2796_19484" x="101" y="31" width="207" height="271" filterUnits="userSpaceOnUse" color-interpolation-filters="sRGB">
<feFlood flood-opacity="0" result="BackgroundImageFix"/>
<feBlend mode="normal" in="SourceGraphic" in2="BackgroundImageFix" result="shape"/>
<feGaussianBlur stdDeviation="17.5" result="effect1_foregroundBlur_2796_19484"/>
</filter>
<filter id="filter41_f_2796_19484" x="145" y="95" width="254" height="272" filterUnits="userSpaceOnUse" color-interpolation-filters="sRGB">
<feFlood flood-opacity="0" result="BackgroundImageFix"/>
<feBlend mode="normal" in="SourceGraphic" in2="BackgroundImageFix" result="shape"/>
<feGaussianBlur stdDeviation="25.5" result="effect1_foregroundBlur_2796_19484"/>
</filter>
<filter id="filter42_f_2796_19484" x="164.5" y="62" width="127" height="206" filterUnits="userSpaceOnUse" color-interpolation-filters="sRGB">
<feFlood flood-opacity="0" result="BackgroundImageFix"/>
<feBlend mode="normal" in="SourceGraphic" in2="BackgroundImageFix" result="shape"/>
<feGaussianBlur stdDeviation="12.5" result="effect1_foregroundBlur_2796_19484"/>
</filter>
<filter id="filter43_f_2796_19484" x="177" y="48" width="195" height="255" filterUnits="userSpaceOnUse" color-interpolation-filters="sRGB">
<feFlood flood-opacity="0" result="BackgroundImageFix"/>
<feBlend mode="normal" in="SourceGraphic" in2="BackgroundImageFix" result="shape"/>
<feGaussianBlur stdDeviation="17.5" result="effect1_foregroundBlur_2796_19484"/>
</filter>
<filter id="filter44_f_2796_19484" x="186" y="73" width="173" height="239" filterUnits="userSpaceOnUse" color-interpolation-filters="sRGB">
<feFlood flood-opacity="0" result="BackgroundImageFix"/>
<feBlend mode="normal" in="SourceGraphic" in2="BackgroundImageFix" result="shape"/>
<feGaussianBlur stdDeviation="17.5" result="effect1_foregroundBlur_2796_19484"/>
</filter>
<filter id="filter45_f_2796_19484" x="200" y="96" width="145" height="205" filterUnits="userSpaceOnUse" color-interpolation-filters="sRGB">
<feFlood flood-opacity="0" result="BackgroundImageFix"/>
<feBlend mode="normal" in="SourceGraphic" in2="BackgroundImageFix" result="shape"/>
<feGaussianBlur stdDeviation="17.5" result="effect1_foregroundBlur_2796_19484"/>
</filter>
<filter id="filter46_f_2796_19484" x="184" y="132" width="197" height="204" filterUnits="userSpaceOnUse" color-interpolation-filters="sRGB">
<feFlood flood-opacity="0" result="BackgroundImageFix"/>
<feBlend mode="normal" in="SourceGraphic" in2="BackgroundImageFix" result="shape"/>
<feGaussianBlur stdDeviation="25.5" result="effect1_foregroundBlur_2796_19484"/>
</filter>
<radialGradient id="paint0_radial_2796_19484" cx="0" cy="0" r="1" gradientUnits="userSpaceOnUse" gradientTransform="translate(39.1158 144.5) rotate(-132.743) scale(51.7158 68.2158)">
<stop stop-color="#FBFF49"/>
<stop offset="1" stop-color="#FDFFAE" stop-opacity="0"/>
</radialGradient>
<radialGradient id="paint1_radial_2796_19484" cx="0" cy="0" r="1" gradientUnits="userSpaceOnUse" gradientTransform="translate(88.0312 210.78) rotate(138.275) scale(86.4631 91.774)">
<stop stop-color="#668123"/>
<stop offset="1" stop-color="#668123" stop-opacity="0"/>
</radialGradient>
<radialGradient id="paint2_radial_2796_19484" cx="0" cy="0" r="1" gradientUnits="userSpaceOnUse" gradientTransform="translate(276 256) rotate(-108.232) scale(89.493 80.6836)">
<stop stop-color="#658538"/>
<stop offset="1" stop-color="#50C8EE" stop-opacity="0"/>
</radialGradient>
<radialGradient id="paint3_radial_2796_19484" cx="0" cy="0" r="1" gradientUnits="userSpaceOnUse" gradientTransform="translate(187 153) rotate(167.229) scale(76.9025 147.68)">
<stop stop-color="#668123"/>
<stop offset="1" stop-color="#668123" stop-opacity="0"/>
</radialGradient>
<radialGradient id="paint4_radial_2796_19484" cx="0" cy="0" r="1" gradientUnits="userSpaceOnUse" gradientTransform="translate(285 249) rotate(-108.939) scale(53.9189 50.2186)">
<stop stop-color="#658538"/>
<stop offset="1" stop-color="#50C8EE" stop-opacity="0"/>
</radialGradient>
<radialGradient id="paint5_radial_2796_19484" cx="0" cy="0" r="1" gradientUnits="userSpaceOnUse" gradientTransform="translate(273.906 177.22) rotate(110.019) scale(88.8203 31.719)">
<stop stop-color="#668123"/>
<stop offset="1" stop-color="#668123" stop-opacity="0"/>
</radialGradient>
</defs>
</svg>
