<svg width="36" height="54" viewBox="0 0 36 54" fill="none" xmlns="http://www.w3.org/2000/svg">
<mask id="mask0_3959_4738" style="mask-type:alpha" maskUnits="userSpaceOnUse" x="0" y="0" width="36" height="54">
<path d="M19.8169 53.0526C18.081 54.7684 16.6137 53.7675 16.0971 53.0526C11.7573 47.6395 2.64384 36.0779 0.907943 33.1364C-1.23867 29.499 0.893568 29.4996 2.44008 29.5L2.49014 29.5H7.48669C9.03629 29.5 8.98544 28.9192 8.98546 28C8.98547 27.0808 8.34752 6.60195 8.34752 3.41536C8.34752 0.228769 10.6207 -0.159342 11.7573 0.0449269C14.8571 0.147061 21.6768 0.41261 24.1566 0.657732C26.6365 0.902855 26.8431 2.59828 26.6365 3.41536C26.3265 11.2797 25.9716 27.0293 25.9716 28.5C25.9716 29.5 26.7669 29.5 27.4703 29.5H33.965C36.9697 29.5 36.0393 32.2172 35.006 33.7492C30.6662 39.4687 21.5528 51.3367 19.8169 53.0526Z" fill="#FFFACF"/>
</mask>
<g mask="url(#mask0_3959_4738)">
<path d="M19.8365 53.0526C18.0992 54.7684 16.6308 53.7675 16.1137 53.0526C11.7704 47.6395 2.64942 36.0779 0.912098 33.1364C-1.23697 29.4978 0.949659 29.4996 1.47951 29.5L1.49565 29.5H7.49565C9.04653 29.5 8.99564 28.4192 8.99565 27.5C8.99567 26.5808 8.35778 6.60195 8.35778 3.41536C8.35778 0.228769 10.6328 -0.159342 11.7704 0.0449269C14.8727 0.147061 21.698 0.41261 24.1798 0.657732C26.6617 0.902855 26.8686 2.59828 26.6617 3.41536C26.3515 11.2797 25.9958 26.5293 25.9958 28C25.9958 29.4707 26.4787 29.6021 26.9958 29.5H33.9957C36.9957 29.5 36.0722 32.2172 35.0381 33.7492C30.6948 39.4687 21.5739 51.3367 19.8365 53.0526Z" fill="#FFCCEB"/>
<g filter="url(#filter0_i_3959_4738)">
<path d="M19.8333 53.0526C18.0959 54.7684 16.6275 53.7675 16.1104 53.0526C11.7671 47.6395 2.64617 36.0779 0.908841 33.1364C-1.23953 29.499 0.894394 29.4996 2.44222 29.5L2.49233 29.5H6.49298C8.04386 29.5 8.99297 28.9192 8.99298 28C8.993 27.0808 8.35452 6.60195 8.35452 3.41536C8.35452 0.228769 10.6296 -0.159342 11.7671 0.0449269C14.8695 0.147061 21.6947 0.41261 24.1766 0.657732C26.6585 0.902855 26.8653 2.59828 26.6585 3.41536C26.3482 11.2797 25.9923 27.0293 25.9923 28.5C25.9923 29.5 26.9753 29.6021 27.4923 29.5H33.4922C37.4922 29.5 36.069 32.2172 35.0349 33.7492C30.6916 39.4687 21.5706 51.3367 19.8333 53.0526Z" fill="#ABA8FF"/>
</g>
<g style="mix-blend-mode:multiply" filter="url(#filter1_f_3959_4738)">
<circle cx="18.4922" cy="49.5" r="35.5" transform="rotate(90 18.4922 49.5)" fill="url(#paint0_radial_3959_4738)"/>
</g>
<g filter="url(#filter2_f_3959_4738)">
<ellipse cx="31.9922" cy="29" rx="5" ry="8" transform="rotate(90 31.9922 29)" fill="#4944E4"/>
</g>
<path opacity="0.7" d="M13.0358 5C13.0351 6 12.9897 8 13.0366 11" stroke="white" stroke-width="2" stroke-linecap="round"/>
<path opacity="0.7" d="M12.9922 14.5V15.5" stroke="white" stroke-width="2" stroke-linecap="round"/>
</g>
<defs>
<filter id="filter0_i_3959_4738" x="-2" y="-1" width="38.1484" height="55" filterUnits="userSpaceOnUse" color-interpolation-filters="sRGB">
<feFlood flood-opacity="0" result="BackgroundImageFix"/>
<feBlend mode="normal" in="SourceGraphic" in2="BackgroundImageFix" result="shape"/>
<feColorMatrix in="SourceAlpha" type="matrix" values="0 0 0 0 0 0 0 0 0 0 0 0 0 0 0 0 0 0 127 0" result="hardAlpha"/>
<feOffset dx="-2" dy="-1"/>
<feGaussianBlur stdDeviation="1"/>
<feComposite in2="hardAlpha" operator="arithmetic" k2="-1" k3="1"/>
<feColorMatrix type="matrix" values="0 0 0 0 0.286275 0 0 0 0 0.266667 0 0 0 0 0.894118 0 0 0 1 0"/>
<feBlend mode="normal" in2="shape" result="effect1_innerShadow_3959_4738"/>
</filter>
<filter id="filter1_f_3959_4738" x="-51.0078" y="-20" width="139" height="139" filterUnits="userSpaceOnUse" color-interpolation-filters="sRGB">
<feFlood flood-opacity="0" result="BackgroundImageFix"/>
<feBlend mode="normal" in="SourceGraphic" in2="BackgroundImageFix" result="shape"/>
<feGaussianBlur stdDeviation="17" result="effect1_foregroundBlur_3959_4738"/>
</filter>
<filter id="filter2_f_3959_4738" x="19.9922" y="20" width="24" height="18" filterUnits="userSpaceOnUse" color-interpolation-filters="sRGB">
<feFlood flood-opacity="0" result="BackgroundImageFix"/>
<feBlend mode="normal" in="SourceGraphic" in2="BackgroundImageFix" result="shape"/>
<feGaussianBlur stdDeviation="2" result="effect1_foregroundBlur_3959_4738"/>
</filter>
<radialGradient id="paint0_radial_3959_4738" cx="0" cy="0" r="1" gradientUnits="userSpaceOnUse" gradientTransform="translate(35.5848 49.5) rotate(180) scale(61.7963 99.9659)">
<stop stop-color="#4944E4"/>
<stop offset="1" stop-color="#4944E4" stop-opacity="0"/>
</radialGradient>
</defs>
</svg>
