<svg width="1589" height="764" viewBox="0 0 1589 764" fill="none" xmlns="http://www.w3.org/2000/svg">
<path d="M19.178 244.925C21.9302 245.881 23.987 248.228 24.5954 251.067L31.4612 275.981C31.5771 276.473 32.2434 276.473 32.3593 275.981L39.2252 251.067C39.8335 248.228 41.8904 245.881 44.6425 244.925L63.8206 238.175L44.6425 231.425C41.8904 230.469 39.8335 228.122 39.2252 225.283L32.3593 200.369C32.2434 199.877 31.5771 199.877 31.4612 200.369L24.5954 225.283C23.987 228.122 21.9302 230.469 19.178 231.425L0 238.175L19.178 244.925Z" fill="#D781FF"/>
<path d="M1555.15 414.157C1557.19 414.862 1558.7 416.594 1559.15 418.69L1564.22 437.077C1564.31 437.441 1564.8 437.441 1564.88 437.077L1569.95 418.69C1570.4 416.594 1571.92 414.862 1573.95 414.157L1588.1 409.175L1573.95 404.193C1571.92 403.488 1570.4 401.756 1569.95 399.66L1564.88 381.273C1564.8 380.909 1564.31 380.909 1564.22 381.273L1559.15 399.66C1558.7 401.756 1557.19 403.488 1555.15 404.193L1541 409.175L1555.15 414.157Z" fill="white"/>
<path d="M172.135 23.7423C173.59 24.2475 174.677 25.4876 174.998 26.988L178.627 40.1548C178.688 40.4151 179.04 40.4151 179.101 40.1548L182.73 26.988C183.052 25.4876 184.139 24.2475 185.593 23.7423L195.728 20.175L185.593 16.6077C184.139 16.1025 183.052 14.8624 182.73 13.362L179.101 0.195205C179.04 -0.0650683 178.688 -0.0650683 178.627 0.195205L174.998 13.362C174.677 14.8624 173.59 16.1025 172.135 16.6077L162 20.175L172.135 23.7423Z" fill="white"/>
<path d="M1378.02 744.244C1379.74 744.845 1381.03 746.32 1381.42 748.105L1385.72 763.768C1385.79 764.077 1386.21 764.077 1386.28 763.768L1390.58 748.105C1390.97 746.32 1392.26 744.845 1393.98 744.244L1406 740L1393.98 735.756C1392.26 735.155 1390.97 733.68 1390.58 731.895L1386.28 716.232C1386.21 715.923 1385.79 715.923 1385.72 716.232L1381.42 731.895C1381.03 733.68 1379.74 735.155 1378.02 735.756L1366 740L1378.02 744.244Z" fill="#D781FF"/>
<path d="M1307.76 104.594C1309.02 105.033 1309.96 106.108 1310.24 107.41L1313.38 118.831C1313.43 119.056 1313.74 119.056 1313.79 118.831L1316.93 107.41C1317.2 106.108 1318.14 105.033 1319.4 104.594L1328.17 101.5L1319.4 98.4057C1318.14 97.9675 1317.2 96.8918 1316.93 95.5903L1313.79 84.1693C1313.74 83.9436 1313.43 83.9436 1313.38 84.1693L1310.24 95.5903C1309.96 96.8918 1309.02 97.9675 1307.76 98.4057L1299 101.5L1307.76 104.594Z" fill="#D781FF"/>
<path d="M1155.76 458.594C1157.02 459.033 1157.96 460.108 1158.24 461.41L1161.38 472.831C1161.43 473.056 1161.74 473.056 1161.79 472.831L1164.93 461.41C1165.2 460.108 1166.14 459.033 1167.4 458.594L1176.17 455.5L1167.4 452.406C1166.14 451.967 1165.2 450.892 1164.93 449.59L1161.79 438.169C1161.74 437.944 1161.43 437.944 1161.38 438.169L1158.24 449.59C1157.96 450.892 1157.02 451.967 1155.76 452.406L1147 455.5L1155.76 458.594Z" fill="white"/>
<path d="M40.7646 593.594C42.0223 594.033 42.9623 595.108 43.2404 596.41L46.3781 607.831C46.4311 608.056 46.7356 608.056 46.7886 607.831L49.9263 596.41C50.2043 595.108 51.1444 594.033 52.4021 593.594L61.1667 590.5L52.4021 587.406C51.1444 586.967 50.2043 585.892 49.9263 584.59L46.7886 573.169C46.7356 572.944 46.4311 572.944 46.3781 573.169L43.2404 584.59C42.9623 585.892 42.0223 586.967 40.7646 587.406L32 590.5L40.7646 593.594Z" fill="white"/>
</svg>
