<svg width="110" height="110" viewBox="0 0 110 110" fill="none" xmlns="http://www.w3.org/2000/svg">
<mask id="mask0_1531_1635" style="mask-type:alpha" maskUnits="userSpaceOnUse" x="0" y="0" width="110" height="110">
<rect width="110" height="110" fill="#D9D9D9"/>
</mask>
<g mask="url(#mask0_1531_1635)">
<g filter="url(#filter0_d_1531_1635)">
<path d="M13.9922 15.0588C13.9922 9.53599 18.4693 5.05884 23.9922 5.05884L88.9922 5.05884C92.3059 5.05884 94.9922 7.74513 94.9922 11.0588V79.0588L92.9415 87.8312C92.9065 87.9809 92.9065 88.1367 92.9415 88.2865L94.9922 97.0588H23.9922C18.4693 97.0588 13.9922 92.5817 13.9922 87.0588L13.9922 15.0588Z" fill="#D781FF"/>
<mask id="mask1_1531_1635" style="mask-type:alpha" maskUnits="userSpaceOnUse" x="13" y="5" width="78" height="95">
<path d="M13.9922 15.0588C13.9922 9.53599 18.4693 5.05884 23.9922 5.05884L90.9922 5.05884V99.0588H23.9922C18.4693 99.0588 13.9922 94.5817 13.9922 89.0588L13.9922 15.0588Z" fill="#FCE84E"/>
</mask>
<g mask="url(#mask1_1531_1635)">
<path d="M13.9922 15.0588C13.9922 9.53599 18.4693 5.05884 23.9922 5.05884V97.0588C18.4693 97.0588 13.9922 92.5817 13.9922 87.0588L13.9922 15.0588Z" fill="#B328F4"/>
</g>
<path d="M94.9922 79.0588H22.9922C18.0216 79.0588 13.9922 83.0883 13.9922 88.0588C13.9922 93.0294 18.0216 97.0588 22.9922 97.0588H94.9922L93.8599 91.9636C93.2884 89.3918 93.2884 86.7259 93.8599 84.1541L94.9922 79.0588Z" fill="white"/>
<path d="M93 78.9995H25C20.0294 78.9995 16 83.0289 16 87.9995V87.9995C16 92.9701 20.0294 96.9995 25 96.9995H93" stroke="#B328F4" stroke-width="4" stroke-linecap="round"/>
<path d="M77.9922 83.0588H87.9922V92.0588L82.9922 89.0588L77.9922 92.0588V83.0588Z" fill="#18D2D2"/>
<path d="M29.227 37.5112C29.227 37.1752 29.241 36.7786 29.269 36.3212C29.297 35.8639 29.3343 35.3832 29.381 34.8792C29.4277 34.3659 29.4837 33.8432 29.549 33.3112C29.6143 32.7792 29.6843 32.2659 29.759 31.7712C29.8337 31.2672 29.913 30.8006 29.997 30.3712C30.081 29.9326 30.1697 29.5546 30.263 29.2372C30.4123 28.7239 30.655 28.3739 30.991 28.1872C31.327 27.9912 31.7097 27.8932 32.139 27.8932C32.587 27.8932 32.9603 28.0099 33.259 28.2432C33.5577 28.4672 33.7957 28.7519 33.973 29.0972C34.2063 29.5452 34.4537 30.1519 34.715 30.9172C34.9857 31.6826 35.2797 32.5926 35.597 33.6472H35.653C35.9703 32.5926 36.269 31.6779 36.549 30.9032C36.8383 30.1286 37.0857 29.5266 37.291 29.0972C37.459 28.7426 37.6923 28.4532 37.991 28.2292C38.2897 28.0052 38.663 27.8932 39.111 27.8932C39.5403 27.8932 39.923 27.9912 40.259 28.1872C40.595 28.3739 40.8377 28.7239 40.987 29.2372C41.071 29.5546 41.155 29.9326 41.239 30.3712C41.3323 30.8006 41.4163 31.2672 41.491 31.7712C41.5657 32.2659 41.6357 32.7792 41.701 33.3112C41.7663 33.8432 41.8223 34.3659 41.869 34.8792C41.9157 35.3832 41.953 35.8639 41.981 36.3212C42.009 36.7786 42.023 37.1752 42.023 37.5112C42.023 38.0246 41.925 38.4586 41.729 38.8132C41.533 39.1679 41.183 39.3732 40.679 39.4292C40.175 39.4852 39.7923 39.3966 39.531 39.1632C39.279 38.9392 39.0923 38.5799 38.971 38.0852C38.9243 37.8986 38.8777 37.6512 38.831 37.3432C38.7843 37.0352 38.7377 36.6899 38.691 36.3072C38.6443 35.9152 38.5977 35.4952 38.551 35.0472C38.5137 34.5992 38.481 34.1419 38.453 33.6752H38.383C38.271 34.1512 38.1543 34.6132 38.033 35.0612C37.9117 35.5092 37.7903 35.9292 37.669 36.3212C37.557 36.7039 37.445 37.0586 37.333 37.3852C37.2303 37.7026 37.1323 37.9732 37.039 38.1972C36.899 38.5332 36.717 38.7759 36.493 38.9252C36.269 39.0839 35.9797 39.1632 35.625 39.1632C35.2703 39.1632 34.981 39.0839 34.757 38.9252C34.533 38.7759 34.351 38.5332 34.211 38.1972C34.1177 37.9826 34.015 37.7119 33.903 37.3852C33.8003 37.0586 33.6883 36.6992 33.567 36.3072C33.455 35.9059 33.3383 35.4812 33.217 35.0332C33.0957 34.5852 32.979 34.1326 32.867 33.6752H32.797C32.769 34.1419 32.7317 34.5992 32.685 35.0472C32.6477 35.4952 32.6057 35.9152 32.559 36.3072C32.5123 36.6899 32.4657 37.0352 32.419 37.3432C32.3723 37.6512 32.3257 37.8986 32.279 38.0852C32.1577 38.5799 31.9663 38.9392 31.705 39.1632C31.453 39.3966 31.075 39.4852 30.571 39.4292C30.067 39.3732 29.717 39.1679 29.521 38.8132C29.325 38.4586 29.227 38.0246 29.227 37.5112ZM44.479 29.7552C43.975 29.7552 43.583 29.6292 43.303 29.3772C43.023 29.1159 42.883 28.7752 42.883 28.3552C42.883 27.9352 43.023 27.5992 43.303 27.3472C43.583 27.0859 43.975 26.9552 44.479 26.9552C44.983 26.9552 45.375 27.0859 45.655 27.3472C45.935 27.5992 46.075 27.9352 46.075 28.3552C46.075 28.7752 45.935 29.1159 45.655 29.3772C45.375 29.6292 44.983 29.7552 44.479 29.7552ZM42.813 31.9112C42.841 31.6406 42.9063 31.4119 43.009 31.2252C43.121 31.0292 43.2516 30.8752 43.401 30.7632C43.5596 30.6419 43.7323 30.5579 43.919 30.5112C44.1056 30.4552 44.297 30.4272 44.493 30.4272C44.689 30.4272 44.8803 30.4552 45.067 30.5112C45.2536 30.5579 45.4263 30.6419 45.585 30.7632C45.7436 30.8752 45.879 31.0292 45.991 31.2252C46.103 31.4119 46.173 31.6406 46.201 31.9112C46.257 32.3592 46.2943 32.8306 46.313 33.3252C46.3316 33.8199 46.3363 34.3239 46.327 34.8372C46.3176 35.3506 46.2943 35.8592 46.257 36.3632C46.229 36.8579 46.1916 37.3339 46.145 37.7912C46.089 38.2952 45.921 38.6966 45.641 38.9952C45.361 39.2939 44.9643 39.4432 44.451 39.4432C43.9376 39.4432 43.5456 39.2939 43.275 38.9952C43.0043 38.6966 42.841 38.2952 42.785 37.7912C42.7383 37.3339 42.701 36.8579 42.673 36.3632C42.6543 35.8592 42.645 35.3506 42.645 34.8372C42.645 34.3239 42.659 33.8199 42.687 33.3252C42.715 32.8306 42.757 32.3592 42.813 31.9112ZM55.9178 33.0312C55.9365 33.2739 55.9505 33.5819 55.9598 33.9552C55.9691 34.3192 55.9691 34.7159 55.9598 35.1452C55.9598 35.5652 55.9411 36.0086 55.9038 36.4752C55.8758 36.9326 55.8291 37.3712 55.7638 37.7912C55.6891 38.2952 55.5071 38.6966 55.2178 38.9952C54.9378 39.2939 54.5411 39.4432 54.0278 39.4432C53.5145 39.4432 53.1085 39.3032 52.8098 39.0232C52.5111 38.7526 52.3431 38.3652 52.3058 37.8612C52.2591 37.3012 52.2358 36.7506 52.2358 36.2092C52.2358 35.6679 52.2358 35.0752 52.2358 34.4312C52.2358 34.3099 52.2311 34.1792 52.2218 34.0392C52.2125 33.8899 52.1798 33.7546 52.1238 33.6332C52.0771 33.5119 52.0025 33.4139 51.8998 33.3392C51.7971 33.2552 51.6525 33.2132 51.4658 33.2132C51.3351 33.2132 51.1905 33.2459 51.0318 33.3112C50.8825 33.3672 50.7565 33.4512 50.6538 33.5632C50.6725 34.2726 50.6678 34.9959 50.6398 35.7332C50.6118 36.4612 50.5605 37.1472 50.4858 37.7912C50.4298 38.2952 50.2525 38.6966 49.9538 38.9952C49.6645 39.2939 49.2631 39.4432 48.7498 39.4432C48.2365 39.4432 47.8445 39.2939 47.5738 38.9952C47.3031 38.6966 47.1398 38.2952 47.0838 37.7912C47.0371 37.3339 46.9998 36.8579 46.9718 36.3632C46.9531 35.8592 46.9438 35.3506 46.9438 34.8372C46.9438 34.3239 46.9578 33.8199 46.9858 33.3252C47.0138 32.8306 47.0558 32.3592 47.1118 31.9112C47.1398 31.6406 47.2051 31.4119 47.3078 31.2252C47.4198 31.0292 47.5505 30.8752 47.6998 30.7632C47.8585 30.6419 48.0311 30.5579 48.2178 30.5112C48.4045 30.4552 48.5958 30.4272 48.7918 30.4272C48.9691 30.4272 49.1511 30.4506 49.3378 30.4972C49.5245 30.5439 49.6971 30.6186 49.8558 30.7212C50.0145 30.8239 50.1498 30.9592 50.2618 31.1272C50.3831 31.2952 50.4671 31.4959 50.5138 31.7292C50.6165 31.5612 50.7471 31.3979 50.9058 31.2392C51.0645 31.0806 51.2558 30.9406 51.4798 30.8192C51.7038 30.6979 51.9605 30.6046 52.2498 30.5392C52.5391 30.4646 52.8751 30.4272 53.2578 30.4272C53.6685 30.4272 54.0325 30.5019 54.3498 30.6512C54.6671 30.7912 54.9331 30.9826 55.1478 31.2252C55.3718 31.4586 55.5491 31.7339 55.6798 32.0512C55.8105 32.3592 55.8898 32.6859 55.9178 33.0312ZM64.7783 37.0212C64.9463 37.3666 64.9977 37.6839 64.9323 37.9732C64.8763 38.2532 64.727 38.4866 64.4843 38.6732C64.083 38.9719 63.6397 39.1726 63.1543 39.2752C62.669 39.3872 62.151 39.4432 61.6003 39.4432C60.583 39.4432 59.7803 39.1866 59.1923 38.6732C58.6043 38.1692 58.2777 37.4412 58.2123 36.4892C58.1843 36.0506 58.1657 35.5792 58.1563 35.0752C58.147 34.5619 58.147 34.0486 58.1563 33.5352L57.8343 33.5072C57.2837 33.4606 56.8683 33.3439 56.5883 33.1572C56.3083 32.9706 56.1683 32.6532 56.1683 32.2052C56.1683 31.7759 56.285 31.4492 56.5183 31.2252C56.7517 31.0012 57.1763 30.8659 57.7923 30.8192C57.867 30.8099 57.9417 30.8052 58.0163 30.8052C58.1003 30.7959 58.1797 30.7912 58.2543 30.7912C58.273 30.6046 58.2823 30.4366 58.2823 30.2872C58.2917 30.1286 58.3057 29.9979 58.3243 29.8952C58.3803 29.3912 58.5437 28.9899 58.8143 28.6912C59.0943 28.3926 59.491 28.2432 60.0043 28.2432C60.5177 28.2432 60.9003 28.3926 61.1523 28.6912C61.4137 28.9899 61.5583 29.3912 61.5863 29.8952C61.5957 29.9979 61.6003 30.1192 61.6003 30.2592C61.6003 30.3992 61.605 30.5579 61.6143 30.7352C61.8197 30.7539 62.0203 30.7679 62.2163 30.7772C62.4217 30.7866 62.6317 30.8006 62.8463 30.8192C63.0983 30.8379 63.3223 30.8752 63.5183 30.9312C63.7237 30.9779 63.8917 31.0572 64.0223 31.1692C64.1623 31.2719 64.2697 31.4072 64.3443 31.5752C64.419 31.7432 64.4563 31.9532 64.4563 32.2052C64.4563 32.6532 64.307 32.9752 64.0083 33.1712C63.7097 33.3579 63.3083 33.4699 62.8043 33.5072C62.599 33.5259 62.3937 33.5399 62.1883 33.5492C61.9923 33.5586 61.801 33.5679 61.6143 33.5772C61.605 34.1372 61.5957 34.6506 61.5863 35.1172C61.5863 35.5746 61.5817 35.9012 61.5723 36.0972C61.563 36.3119 61.6377 36.4706 61.7963 36.5732C61.955 36.6759 62.1277 36.7272 62.3143 36.7272C62.501 36.7272 62.6783 36.6992 62.8463 36.6432C63.0143 36.5779 63.1917 36.4939 63.3783 36.3912C63.481 36.3352 63.593 36.3072 63.7143 36.3072C63.845 36.3072 63.9757 36.3352 64.1063 36.3912C64.237 36.4379 64.3583 36.5126 64.4703 36.6152C64.5917 36.7179 64.6943 36.8532 64.7783 37.0212ZM66.9184 29.7552C66.4144 29.7552 66.0224 29.6292 65.7424 29.3772C65.4624 29.1159 65.3224 28.7752 65.3224 28.3552C65.3224 27.9352 65.4624 27.5992 65.7424 27.3472C66.0224 27.0859 66.4144 26.9552 66.9184 26.9552C67.4224 26.9552 67.8144 27.0859 68.0944 27.3472C68.3744 27.5992 68.5144 27.9352 68.5144 28.3552C68.5144 28.7752 68.3744 29.1159 68.0944 29.3772C67.8144 29.6292 67.4224 29.7552 66.9184 29.7552ZM65.2524 31.9112C65.2804 31.6406 65.3457 31.4119 65.4484 31.2252C65.5604 31.0292 65.6911 30.8752 65.8404 30.7632C65.9991 30.6419 66.1717 30.5579 66.3584 30.5112C66.5451 30.4552 66.7364 30.4272 66.9324 30.4272C67.1284 30.4272 67.3197 30.4552 67.5064 30.5112C67.6931 30.5579 67.8657 30.6419 68.0244 30.7632C68.1831 30.8752 68.3184 31.0292 68.4304 31.2252C68.5424 31.4119 68.6124 31.6406 68.6404 31.9112C68.6964 32.3592 68.7337 32.8306 68.7524 33.3252C68.7711 33.8199 68.7757 34.3239 68.7664 34.8372C68.7571 35.3506 68.7337 35.8592 68.6964 36.3632C68.6684 36.8579 68.6311 37.3339 68.5844 37.7912C68.5284 38.2952 68.3604 38.6966 68.0804 38.9952C67.8004 39.2939 67.4037 39.4432 66.8904 39.4432C66.3771 39.4432 65.9851 39.2939 65.7144 38.9952C65.4437 38.6966 65.2804 38.2952 65.2244 37.7912C65.1777 37.3339 65.1404 36.8579 65.1124 36.3632C65.0937 35.8592 65.0844 35.3506 65.0844 34.8372C65.0844 34.3239 65.0984 33.8199 65.1264 33.3252C65.1544 32.8306 65.1964 32.3592 65.2524 31.9112ZM78.3572 33.0312C78.3759 33.2739 78.3899 33.5819 78.3992 33.9552C78.4086 34.3192 78.4086 34.7159 78.3992 35.1452C78.3992 35.5652 78.3806 36.0086 78.3432 36.4752C78.3152 36.9326 78.2686 37.3712 78.2032 37.7912C78.1286 38.2952 77.9466 38.6966 77.6572 38.9952C77.3772 39.2939 76.9806 39.4432 76.4672 39.4432C75.9539 39.4432 75.5479 39.3032 75.2492 39.0232C74.9506 38.7526 74.7826 38.3652 74.7452 37.8612C74.6986 37.3012 74.6752 36.7506 74.6752 36.2092C74.6752 35.6679 74.6752 35.0752 74.6752 34.4312C74.6752 34.3099 74.6706 34.1792 74.6612 34.0392C74.6519 33.8899 74.6192 33.7546 74.5632 33.6332C74.5166 33.5119 74.4419 33.4139 74.3392 33.3392C74.2366 33.2552 74.0919 33.2132 73.9052 33.2132C73.7746 33.2132 73.6299 33.2459 73.4712 33.3112C73.3219 33.3672 73.1959 33.4512 73.0932 33.5632C73.1119 34.2726 73.1072 34.9959 73.0792 35.7332C73.0512 36.4612 72.9999 37.1472 72.9252 37.7912C72.8692 38.2952 72.6919 38.6966 72.3932 38.9952C72.1039 39.2939 71.7026 39.4432 71.1892 39.4432C70.6759 39.4432 70.2839 39.2939 70.0132 38.9952C69.7426 38.6966 69.5792 38.2952 69.5232 37.7912C69.4766 37.3339 69.4392 36.8579 69.4112 36.3632C69.3926 35.8592 69.3832 35.3506 69.3832 34.8372C69.3832 34.3239 69.3972 33.8199 69.4252 33.3252C69.4532 32.8306 69.4952 32.3592 69.5512 31.9112C69.5792 31.6406 69.6446 31.4119 69.7472 31.2252C69.8592 31.0292 69.9899 30.8752 70.1392 30.7632C70.2979 30.6419 70.4706 30.5579 70.6572 30.5112C70.8439 30.4552 71.0352 30.4272 71.2312 30.4272C71.4086 30.4272 71.5906 30.4506 71.7772 30.4972C71.9639 30.5439 72.1366 30.6186 72.2952 30.7212C72.4539 30.8239 72.5892 30.9592 72.7012 31.1272C72.8226 31.2952 72.9066 31.4959 72.9532 31.7292C73.0559 31.5612 73.1866 31.3979 73.3452 31.2392C73.5039 31.0806 73.6952 30.9406 73.9192 30.8192C74.1432 30.6979 74.3999 30.6046 74.6892 30.5392C74.9786 30.4646 75.3146 30.4272 75.6972 30.4272C76.1079 30.4272 76.4719 30.5019 76.7892 30.6512C77.1066 30.7912 77.3726 30.9826 77.5872 31.2252C77.8112 31.4586 77.9886 31.7339 78.1192 32.0512C78.2499 32.3592 78.3292 32.6859 78.3572 33.0312ZM87.9878 30.1612C88.2211 30.4599 88.3098 30.7819 88.2538 31.1272C88.1978 31.4726 87.9924 31.7806 87.6378 32.0512C87.5818 32.0979 87.5211 32.1399 87.4558 32.1772C87.3998 32.2052 87.3438 32.2379 87.2878 32.2752C87.4278 32.6112 87.4978 32.9846 87.4978 33.3952C87.4978 33.8339 87.4138 34.2399 87.2458 34.6132C87.0778 34.9772 86.8211 35.2946 86.4758 35.5652C86.1304 35.8266 85.6918 36.0319 85.1598 36.1812C84.6278 36.3306 83.9978 36.4052 83.2698 36.4052C82.9244 36.4052 82.6071 36.3912 82.3178 36.3632C82.2151 36.4192 82.1638 36.4986 82.1638 36.6012C82.1638 36.7226 82.2384 36.8112 82.3878 36.8672C82.5371 36.9232 82.8311 36.9512 83.2698 36.9512C84.6791 36.9512 85.7571 37.1986 86.5038 37.6932C87.2598 38.1879 87.6378 38.9159 87.6378 39.8772C87.6378 40.2786 87.5491 40.6472 87.3718 40.9832C87.1944 41.3286 86.9238 41.6226 86.5598 41.8652C86.1958 42.1172 85.7384 42.3132 85.1878 42.4532C84.6464 42.5932 84.0071 42.6632 83.2698 42.6632C82.5324 42.6632 81.8884 42.5932 81.3378 42.4532C80.7871 42.3132 80.3298 42.1172 79.9658 41.8652C79.6018 41.6226 79.3311 41.3286 79.1538 40.9832C78.9764 40.6472 78.8878 40.2786 78.8878 39.8772C78.8878 39.0652 79.2098 38.4399 79.8538 38.0012C79.5178 37.6466 79.3498 37.2266 79.3498 36.7412C79.3498 36.4986 79.4058 36.2746 79.5178 36.0692C79.6298 35.8639 79.7884 35.6819 79.9938 35.5232C79.6671 35.2526 79.4244 34.9399 79.2658 34.5852C79.1071 34.2212 79.0278 33.8246 79.0278 33.3952C79.0278 32.9566 79.1118 32.5552 79.2798 32.1912C79.4478 31.8272 79.7044 31.5146 80.0498 31.2532C80.3951 30.9919 80.8338 30.7912 81.3658 30.6512C81.8978 30.5019 82.5324 30.4272 83.2698 30.4272C83.6431 30.4272 83.9884 30.4459 84.3058 30.4832C84.6231 30.5206 84.9171 30.5766 85.1878 30.6512C85.3091 30.5206 85.4491 30.3992 85.6078 30.2872C85.7664 30.1659 85.9484 30.0586 86.1538 29.9652C86.9751 29.5919 87.5864 29.6572 87.9878 30.1612ZM83.2698 33.8852C83.6151 33.8852 83.8531 33.8292 83.9838 33.7172C84.1144 33.5959 84.1798 33.4559 84.1798 33.2972C84.1798 33.1386 84.1144 33.0032 83.9838 32.8912C83.8531 32.7792 83.6151 32.7232 83.2698 32.7232C82.9151 32.7232 82.6724 32.7792 82.5418 32.8912C82.4111 33.0032 82.3458 33.1386 82.3458 33.2972C82.3458 33.4559 82.4204 33.5959 82.5698 33.7172C82.7191 33.8292 82.9524 33.8852 83.2698 33.8852ZM84.3338 39.6532C84.3338 39.4852 84.2498 39.3592 84.0818 39.2752C83.9231 39.1912 83.6524 39.1446 83.2698 39.1352C83.1111 39.1352 82.9571 39.1259 82.8078 39.1072C82.6584 39.0979 82.5044 39.0839 82.3458 39.0652C82.2804 39.1399 82.2384 39.2192 82.2198 39.3032C82.2011 39.3966 82.1918 39.4946 82.1918 39.5972C82.1918 39.7839 82.2711 39.9379 82.4298 40.0592C82.5978 40.1806 82.8778 40.2412 83.2698 40.2412C83.6524 40.2412 83.9231 40.1899 84.0818 40.0872C84.2498 39.9939 84.3338 39.8492 84.3338 39.6532ZM36.7182 53.6752C36.7182 52.7139 36.8535 51.8739 37.1242 51.1552C37.4042 50.4366 37.7962 49.8346 38.3002 49.3492C38.8042 48.8639 39.4109 48.4999 40.1202 48.2572C40.8389 48.0146 41.6369 47.8932 42.5142 47.8932C43.1022 47.8932 43.6762 47.9632 44.2362 48.1032C44.8055 48.2432 45.3375 48.4906 45.8322 48.8452C45.9722 48.9479 46.0889 49.0692 46.1822 49.2092C46.2849 49.3492 46.3595 49.5079 46.4062 49.6852C46.4529 49.8532 46.4669 50.0399 46.4482 50.2452C46.4295 50.4412 46.3642 50.6419 46.2522 50.8472C46.1122 51.1272 45.9489 51.3419 45.7622 51.4912C45.5849 51.6406 45.3982 51.7432 45.2022 51.7992C45.0062 51.8459 44.8102 51.8599 44.6142 51.8412C44.4182 51.8132 44.2362 51.7619 44.0682 51.6872C43.8722 51.6032 43.6435 51.5192 43.3822 51.4352C43.1209 51.3419 42.8129 51.2952 42.4582 51.2952C42.1502 51.2952 41.8609 51.3419 41.5902 51.4352C41.3289 51.5286 41.0955 51.6732 40.8902 51.8692C40.6942 52.0652 40.5355 52.3172 40.4142 52.6252C40.3022 52.9332 40.2462 53.3019 40.2462 53.7312C40.2462 54.1606 40.3069 54.5292 40.4282 54.8372C40.5495 55.1359 40.7129 55.3832 40.9182 55.5792C41.1235 55.7752 41.3569 55.9199 41.6182 56.0132C41.8889 56.0972 42.1689 56.1392 42.4582 56.1392C42.8595 56.1392 43.1955 56.0879 43.4662 55.9852C43.7462 55.8826 43.9655 55.7472 44.1242 55.5792V55.0752C44.0402 55.0846 43.9095 55.0892 43.7322 55.0892C43.5642 55.0799 43.4242 55.0659 43.3122 55.0472C42.9015 55.0006 42.5982 54.8746 42.4022 54.6692C42.2062 54.4546 42.1082 54.1746 42.1082 53.8292C42.1082 53.0919 42.5235 52.6812 43.3542 52.5972C43.7742 52.5506 44.2222 52.5366 44.6982 52.5552C45.1835 52.5646 45.6035 52.5972 45.9582 52.6532C46.3409 52.7186 46.6349 52.8586 46.8402 53.0732C47.0549 53.2786 47.1762 53.5912 47.2042 54.0112C47.2229 54.3379 47.2275 54.6739 47.2182 55.0192C47.2182 55.3552 47.1995 55.6819 47.1622 55.9992C47.1342 56.3072 47.0829 56.5919 47.0082 56.8532C46.9429 57.1146 46.8542 57.3292 46.7422 57.4972C46.5835 57.7306 46.3689 57.9639 46.0982 58.1972C45.8369 58.4212 45.5242 58.6266 45.1602 58.8132C44.8055 58.9999 44.4089 59.1492 43.9702 59.2612C43.5315 59.3826 43.0649 59.4432 42.5702 59.4432C41.6929 59.4432 40.8949 59.3219 40.1762 59.0792C39.4575 58.8366 38.8415 58.4772 38.3282 58.0012C37.8149 57.5159 37.4182 56.9139 37.1382 56.1952C36.8582 55.4766 36.7182 54.6366 36.7182 53.6752ZM56.715 52.0792C56.7616 52.5366 56.7943 53.0172 56.813 53.5212C56.841 54.0159 56.855 54.5199 56.855 55.0332C56.855 55.5466 56.841 56.0506 56.813 56.5452C56.785 57.0399 56.743 57.5112 56.687 57.9592C56.659 58.2299 56.589 58.4586 56.477 58.6452C56.3743 58.8412 56.2436 58.9952 56.085 59.1072C55.9356 59.2286 55.7676 59.3126 55.581 59.3592C55.3943 59.4152 55.203 59.4432 55.007 59.4432C54.8203 59.4432 54.6383 59.4199 54.461 59.3732C54.2836 59.3266 54.1156 59.2519 53.957 59.1492C53.8076 59.0466 53.6723 58.9112 53.551 58.7432C53.439 58.5846 53.3596 58.3839 53.313 58.1412C53.2103 58.3092 53.0843 58.4726 52.935 58.6312C52.7856 58.7899 52.599 58.9299 52.375 59.0512C52.1603 59.1726 51.9083 59.2659 51.619 59.3312C51.339 59.4059 51.0123 59.4432 50.639 59.4432C50.2283 59.4432 49.869 59.3732 49.561 59.2332C49.2623 59.1026 49.0056 58.9206 48.791 58.6872C48.5763 58.4632 48.4036 58.2019 48.273 57.9032C48.1423 57.5952 48.049 57.2686 47.993 56.9232C47.9556 56.6806 47.923 56.3726 47.895 55.9992C47.8763 55.6259 47.8623 55.2199 47.853 54.7812C47.853 54.3332 47.8623 53.8759 47.881 53.4092C47.8996 52.9426 47.9323 52.4992 47.979 52.0792C48.035 51.5752 48.2263 51.1739 48.553 50.8752C48.8796 50.5766 49.2996 50.4272 49.813 50.4272C50.3263 50.4272 50.7323 50.5672 51.031 50.8472C51.339 51.1179 51.507 51.5052 51.535 52.0092C51.563 52.5692 51.5723 53.1199 51.563 53.6612C51.563 54.2026 51.5583 54.7952 51.549 55.4392C51.549 55.5699 51.5536 55.7052 51.563 55.8452C51.5723 55.9852 51.6003 56.1159 51.647 56.2372C51.703 56.3586 51.7823 56.4612 51.885 56.5452C51.997 56.6199 52.1463 56.6572 52.333 56.6572C52.473 56.6572 52.6176 56.6246 52.767 56.5592C52.9256 56.4846 53.0563 56.3866 53.159 56.2652C53.131 55.5652 53.1263 54.8559 53.145 54.1372C53.173 53.4092 53.2243 52.7232 53.299 52.0792C53.355 51.5752 53.5276 51.1739 53.817 50.8752C54.1063 50.5766 54.5076 50.4272 55.021 50.4272C55.5343 50.4272 55.931 50.5766 56.211 50.8752C56.491 51.1739 56.659 51.5752 56.715 52.0792ZM59.3042 49.7552C58.8002 49.7552 58.4082 49.6292 58.1282 49.3772C57.8482 49.1159 57.7082 48.7752 57.7082 48.3552C57.7082 47.9352 57.8482 47.5992 58.1282 47.3472C58.4082 47.0859 58.8002 46.9552 59.3042 46.9552C59.8082 46.9552 60.2002 47.0859 60.4802 47.3472C60.7602 47.5992 60.9002 47.9352 60.9002 48.3552C60.9002 48.7752 60.7602 49.1159 60.4802 49.3772C60.2002 49.6292 59.8082 49.7552 59.3042 49.7552ZM57.6382 51.9112C57.6662 51.6406 57.7315 51.4119 57.8342 51.2252C57.9462 51.0292 58.0768 50.8752 58.2262 50.7632C58.3848 50.6419 58.5575 50.5579 58.7442 50.5112C58.9308 50.4552 59.1222 50.4272 59.3182 50.4272C59.5142 50.4272 59.7055 50.4552 59.8922 50.5112C60.0788 50.5579 60.2515 50.6419 60.4102 50.7632C60.5688 50.8752 60.7042 51.0292 60.8162 51.2252C60.9282 51.4119 60.9982 51.6406 61.0262 51.9112C61.0822 52.3592 61.1195 52.8306 61.1382 53.3252C61.1568 53.8199 61.1615 54.3239 61.1522 54.8372C61.1428 55.3506 61.1195 55.8592 61.0822 56.3632C61.0542 56.8579 61.0168 57.3339 60.9702 57.7912C60.9142 58.2952 60.7462 58.6966 60.4662 58.9952C60.1862 59.2939 59.7895 59.4432 59.2762 59.4432C58.7628 59.4432 58.3708 59.2939 58.1002 58.9952C57.8295 58.6966 57.6662 58.2952 57.6102 57.7912C57.5635 57.3339 57.5262 56.8579 57.4982 56.3632C57.4795 55.8592 57.4702 55.3506 57.4702 54.8372C57.4702 54.3239 57.4842 53.8199 57.5122 53.3252C57.5402 52.8306 57.5822 52.3592 57.6382 51.9112ZM70.575 48.6772C70.6217 49.0226 70.659 49.4379 70.687 49.9232C70.715 50.3992 70.7337 50.9126 70.743 51.4632C70.7523 52.0139 70.7523 52.5832 70.743 53.1712C70.743 53.7592 70.7337 54.3379 70.715 54.9072C70.6963 55.4672 70.6683 55.9992 70.631 56.5032C70.603 56.9979 70.5657 57.4319 70.519 57.8052C70.4537 58.3092 70.2997 58.7059 70.057 58.9952C69.8143 59.2939 69.4363 59.4432 68.923 59.4432C68.475 59.4432 68.1203 59.3266 67.859 59.0932C67.607 58.8692 67.4297 58.5519 67.327 58.1412C67.1403 58.5239 66.8743 58.8366 66.529 59.0792C66.1837 59.3219 65.717 59.4432 65.129 59.4432C64.6063 59.4432 64.1303 59.3359 63.701 59.1212C63.2717 58.9159 62.903 58.6172 62.595 58.2252C62.287 57.8332 62.049 57.3619 61.881 56.8112C61.713 56.2606 61.629 55.6399 61.629 54.9492C61.629 54.2679 61.713 53.6472 61.881 53.0872C62.049 52.5272 62.287 52.0512 62.595 51.6592C62.903 51.2672 63.2717 50.9639 63.701 50.7492C64.1303 50.5346 64.6063 50.4272 65.129 50.4272C65.5583 50.4272 65.9363 50.4972 66.263 50.6372C66.599 50.7679 66.8883 50.9172 67.131 51.0852C67.1497 50.6092 67.1683 50.1659 67.187 49.7552C67.215 49.3352 67.2523 48.9759 67.299 48.6772C67.3363 48.4066 67.4017 48.1779 67.495 47.9912C67.5977 47.7952 67.7237 47.6412 67.873 47.5292C68.0223 47.4079 68.1857 47.3239 68.363 47.2772C68.5403 47.2212 68.727 47.1932 68.923 47.1932C69.119 47.1932 69.3057 47.2212 69.483 47.2772C69.6697 47.3239 69.8377 47.4079 69.987 47.5292C70.1363 47.6412 70.2623 47.7952 70.365 47.9912C70.4677 48.1779 70.5377 48.4066 70.575 48.6772ZM66.165 56.3772C66.3797 56.3772 66.5617 56.3259 66.711 56.2232C66.8697 56.1206 67.005 55.9806 67.117 55.8032L67.075 53.8712C66.963 53.7499 66.8323 53.6472 66.683 53.5632C66.543 53.4792 66.3703 53.4372 66.165 53.4372C65.801 53.4372 65.5023 53.5772 65.269 53.8572C65.0357 54.1372 64.919 54.5012 64.919 54.9492C64.919 55.3879 65.0357 55.7379 65.269 55.9992C65.5023 56.2512 65.801 56.3772 66.165 56.3772ZM79.7025 58.4212C79.1892 58.8132 78.6245 59.0792 78.0085 59.2192C77.4018 59.3686 76.7485 59.4432 76.0485 59.4432C75.3578 59.4432 74.7185 59.3452 74.1305 59.1492C73.5425 58.9532 73.0338 58.6639 72.6045 58.2812C72.1752 57.8986 71.8392 57.4272 71.5965 56.8672C71.3538 56.2979 71.2325 55.6399 71.2325 54.8932C71.2325 54.1932 71.3445 53.5679 71.5685 53.0172C71.7925 52.4666 72.1052 51.9999 72.5065 51.6172C72.9172 51.2346 73.4072 50.9406 73.9765 50.7352C74.5552 50.5299 75.1945 50.4272 75.8945 50.4272C76.6038 50.4272 77.2245 50.5252 77.7565 50.7212C78.2885 50.9172 78.7272 51.1786 79.0725 51.5052C79.4272 51.8319 79.6932 52.2052 79.8705 52.6252C80.0478 53.0452 80.1365 53.4792 80.1365 53.9272C80.1365 54.2632 80.0618 54.5759 79.9125 54.8652C79.7632 55.1546 79.5438 55.4066 79.2545 55.6212C78.9652 55.8266 78.6058 55.9899 78.1765 56.1112C77.7565 56.2232 77.2758 56.2792 76.7345 56.2792C76.3238 56.2792 75.9412 56.2559 75.5865 56.2092C75.2318 56.1532 74.9332 56.0599 74.6905 55.9292C74.7185 56.2559 74.8772 56.5266 75.1665 56.7412C75.4652 56.9466 75.8665 57.0492 76.3705 57.0492C76.7998 57.0492 77.1965 56.9839 77.5605 56.8532C77.9245 56.7132 78.2465 56.5732 78.5265 56.4332C78.7132 56.3399 78.8952 56.3072 79.0725 56.3352C79.2498 56.3632 79.4085 56.4332 79.5485 56.5452C79.6885 56.6479 79.8052 56.7832 79.8985 56.9512C79.9918 57.1099 80.0478 57.2826 80.0665 57.4692C80.0945 57.6466 80.0805 57.8192 80.0245 57.9872C79.9685 58.1552 79.8612 58.2999 79.7025 58.4212ZM74.7325 54.2492C74.8725 54.3332 75.0265 54.3939 75.1945 54.4312C75.3625 54.4686 75.5398 54.4872 75.7265 54.4872C76.0065 54.4872 76.2445 54.4499 76.4405 54.3752C76.6458 54.3006 76.7485 54.1652 76.7485 53.9692C76.7485 53.6239 76.4358 53.4512 75.8105 53.4512C75.6238 53.4512 75.4652 53.4792 75.3345 53.5352C75.2132 53.5819 75.1105 53.6472 75.0265 53.7312C74.9425 53.8059 74.8772 53.8899 74.8305 53.9832C74.7838 54.0766 74.7512 54.1652 74.7325 54.2492Z" fill="white"/>
</g>
</g>
<defs>
<filter id="filter0_d_1531_1635" x="3.99219" y="0.0588379" width="101.008" height="113.941" filterUnits="userSpaceOnUse" color-interpolation-filters="sRGB">
<feFlood flood-opacity="0" result="BackgroundImageFix"/>
<feColorMatrix in="SourceAlpha" type="matrix" values="0 0 0 0 0 0 0 0 0 0 0 0 0 0 0 0 0 0 127 0" result="hardAlpha"/>
<feOffset dy="5"/>
<feGaussianBlur stdDeviation="5"/>
<feComposite in2="hardAlpha" operator="out"/>
<feColorMatrix type="matrix" values="0 0 0 0 0 0 0 0 0 0 0 0 0 0 0 0 0 0 0.15 0"/>
<feBlend mode="normal" in2="BackgroundImageFix" result="effect1_dropShadow_1531_1635"/>
<feBlend mode="normal" in="SourceGraphic" in2="effect1_dropShadow_1531_1635" result="shape"/>
</filter>
</defs>
</svg>
