<svg width="18" height="18" viewBox="0 0 18 18" fill="none" xmlns="http://www.w3.org/2000/svg">
<g opacity="0.8">
<path fill-rule="evenodd" clip-rule="evenodd" d="M9 18C13.9706 18 18 13.9706 18 9C18 4.02944 13.9706 0 9 0C4.02944 0 0 4.02944 0 9C0 13.9706 4.02944 18 9 18ZM8.90989 4.19946C9.50389 4.19946 10.0547 4.51266 10.0331 5.05266L9.83869 10.3015C9.81709 10.8739 9.36349 11.1655 8.90989 11.1655C8.46709 11.1655 8.02429 10.8739 8.00269 10.3015L7.79749 5.05266C7.77589 4.51266 8.32669 4.19946 8.90989 4.19946ZM8.90989 14.1355C8.30509 14.1355 7.80829 13.6387 7.80829 13.0231C7.80829 12.4291 8.30509 11.9323 8.90989 11.9323C9.52549 11.9323 10.0223 12.4291 10.0223 13.0231C10.0223 13.6387 9.52549 14.1355 8.90989 14.1355Z" fill="black"/>
</g>
</svg>
