<svg width="30" height="30" viewBox="0 0 30 30" fill="none" xmlns="http://www.w3.org/2000/svg">
<path d="M14.9971 27.5V16.25M14.9971 27.5L11.8721 25M14.9971 27.5L18.1221 25M6.28958 11.3963C5.10735 11.6938 4.07443 12.4127 3.3849 13.4181C2.69537 14.4234 2.39669 15.646 2.54497 16.856C2.69325 18.066 3.27829 19.1803 4.19017 19.9894C5.10204 20.7985 6.278 21.2468 7.49708 21.25H8.74708" stroke="white" stroke-width="1.5" stroke-linecap="round" stroke-linejoin="round"/>
<path d="M19.7829 8.92251C19.3557 7.23073 18.3012 5.76469 16.8331 4.82159C15.365 3.87848 13.5933 3.52888 11.877 3.84364C10.1607 4.15841 8.62836 5.11399 7.59052 6.51669C6.55267 7.91938 6.08701 9.66422 6.28794 11.3975C6.28794 11.3975 6.47919 12.5 6.87044 13.125" stroke="white" stroke-width="1.5" stroke-linecap="round" stroke-linejoin="round"/>
<path d="M21.25 21.25C22.1325 21.2494 23.005 21.0619 23.8098 20.6998C24.6147 20.3378 25.3337 19.8093 25.9197 19.1493C26.5056 18.4894 26.9451 17.7128 27.2092 16.8707C27.4734 16.0286 27.5562 15.1401 27.4522 14.2637C27.3482 13.3873 27.0598 12.5428 26.606 11.7859C26.1521 11.029 25.5431 10.3768 24.819 9.87223C24.095 9.36765 23.2722 9.02215 22.405 8.85845C21.5378 8.69475 20.6457 8.71658 19.7875 8.9225L18.125 9.375" stroke="white" stroke-width="1.5" stroke-linecap="round" stroke-linejoin="round"/>
</svg>
