<svg width="30" height="30" viewBox="0 0 30 30" fill="none" xmlns="http://www.w3.org/2000/svg">
<g clip-path="url(#clip0_5985_7588)">
<path d="M6.18725 16.28L6.25863 16.1697L10.4764 9.56731C10.538 9.46997 10.684 9.47971 10.7294 9.58677C11.4335 11.1668 12.0434 13.1329 11.7579 14.3561C11.6346 14.8589 11.3037 15.5403 10.9273 16.1697C10.8787 16.2605 10.8268 16.3514 10.7684 16.439C10.7424 16.4779 10.697 16.5039 10.6483 16.5039H6.31054C6.19374 16.5039 6.12561 16.3773 6.18725 16.2832V16.28Z" fill="black"/>
<path d="M24.9986 17.5047V18.5494C24.9986 18.6078 24.9629 18.6629 24.9077 18.6857C24.58 18.8252 23.464 19.3378 22.9968 19.9867C21.8093 21.6381 20.9041 24 18.8764 24H10.4247C7.42682 24 5 21.5634 5 18.5559V18.4585C5 18.3774 5.06489 18.3125 5.146 18.3125H9.85689C9.95097 18.3125 10.0191 18.4001 10.0094 18.491C9.97693 18.7992 10.0321 19.1107 10.1781 19.3962C10.4571 19.964 11.0379 20.3208 11.664 20.3208H13.9968V18.5007H11.69C11.5732 18.5007 11.5018 18.3645 11.5699 18.2671C11.5959 18.2282 11.6218 18.1893 11.6543 18.1438C11.8717 17.8324 12.1831 17.3522 12.4946 16.8039C12.7055 16.434 12.9099 16.0382 13.0753 15.6424C13.1078 15.571 13.1337 15.4964 13.1629 15.425C13.2084 15.2985 13.2538 15.1784 13.2895 15.0616C13.3219 14.9611 13.3479 14.8572 13.3771 14.7567C13.4549 14.4193 13.4874 14.0624 13.4874 13.6925C13.4874 13.5465 13.4809 13.3973 13.4679 13.2513C13.4614 13.0923 13.442 12.9333 13.4225 12.7776C13.4095 12.6381 13.3836 12.4986 13.3576 12.3558C13.3252 12.1449 13.2765 11.934 13.2246 11.7231L13.2051 11.642C13.1662 11.496 13.1305 11.3598 13.0851 11.2138C12.9521 10.7596 12.8028 10.3151 12.6406 9.89978C12.5822 9.73432 12.5141 9.57534 12.4492 9.41961C12.3518 9.18277 12.2513 8.96539 12.1604 8.761C12.115 8.66691 12.0728 8.58255 12.0339 8.49495C11.9885 8.39762 11.943 8.29704 11.8944 8.2062C11.8619 8.13482 11.823 8.06669 11.797 8.0018L11.5115 7.47621C11.4726 7.40483 11.5375 7.32048 11.6154 7.33994L13.3998 7.82336H13.4063H13.4128L13.6464 7.88825L13.9059 7.96287L14 7.98882V6.9279C14 6.41528 14.4088 6 14.9182 6C15.1712 6 15.4016 6.10382 15.5671 6.27253C15.7325 6.44124 15.8363 6.67159 15.8363 6.9279V8.50144L16.0278 8.55335C16.0278 8.55335 16.057 8.56633 16.0699 8.57606C16.1154 8.61175 16.1835 8.66366 16.2678 8.72531C16.336 8.77722 16.4074 8.84211 16.4917 8.91024C16.6637 9.04975 16.8681 9.22819 17.0919 9.43259C17.1503 9.4845 17.2087 9.53641 17.2639 9.59156C17.5526 9.86085 17.8803 10.1788 18.1885 10.5292C18.2761 10.6265 18.3605 10.7271 18.4481 10.8309C18.5357 10.938 18.6265 11.0418 18.7076 11.1489C18.8115 11.2884 18.925 11.4344 19.0256 11.5869C19.071 11.6583 19.1262 11.7329 19.1716 11.8043C19.2981 11.9957 19.4084 12.1936 19.5155 12.3915C19.5609 12.4823 19.6063 12.5829 19.6485 12.6802C19.7653 12.9463 19.8594 13.2156 19.9211 13.4849C19.9405 13.5433 19.9535 13.6081 19.96 13.6633V13.6763C19.9795 13.7574 19.9859 13.8417 19.9924 13.9293C20.0184 14.2051 20.0054 14.4841 19.947 14.7599C19.9211 14.8767 19.8886 14.9903 19.8497 15.1071C19.8107 15.2206 19.7686 15.3374 19.7167 15.451C19.6161 15.6813 19.4993 15.9149 19.3598 16.1323C19.3143 16.2134 19.2624 16.2978 19.2073 16.3789C19.1489 16.4632 19.0905 16.5443 19.0353 16.6222C18.9607 16.7228 18.8828 16.8266 18.805 16.9207C18.7336 17.018 18.659 17.1186 18.5811 17.203C18.4708 17.336 18.3637 17.4593 18.2502 17.5793C18.182 17.6572 18.1107 17.7383 18.0393 17.8097C17.9679 17.8908 17.8933 17.9621 17.8284 18.027C17.7181 18.1373 17.624 18.2249 17.5461 18.2963L17.3612 18.465C17.3353 18.4877 17.2996 18.5007 17.2639 18.5007H15.8428V20.3208H17.6305C18.0296 20.3208 18.4092 20.1781 18.7174 19.9185C18.8212 19.8277 19.2819 19.4286 19.8237 18.8317C19.8432 18.8122 19.8659 18.796 19.8919 18.7895L24.8266 17.3619C24.9174 17.336 25.0115 17.4041 25.0115 17.5014L24.9986 17.5047Z" fill="black"/>
</g>
<defs>
<clipPath id="clip0_5985_7588">
<rect width="19.9986" height="18" fill="white" transform="translate(5 6)"/>
</clipPath>
</defs>
</svg>
