<svg width="30" height="30" viewBox="0 0 30 30" fill="none" xmlns="http://www.w3.org/2000/svg">
<path fill-rule="evenodd" clip-rule="evenodd" d="M9.76154 7.4196C9.2346 7.62452 8.78898 7.89774 8.34336 8.34336C7.89774 8.78573 7.62452 9.2346 7.4196 9.75828C7.22118 10.2657 7.08782 10.8479 7.04879 11.7001C7.00976 12.5523 7 12.8256 7 14.9984C7 17.1712 7.00976 17.4444 7.04879 18.2966C7.08782 19.1488 7.22444 19.731 7.4196 20.2385C7.62452 20.7654 7.89774 21.211 8.34336 21.6566C8.78898 22.1023 9.2346 22.3755 9.76154 22.5804C10.269 22.7788 10.8512 22.9122 11.7034 22.9512C12.5556 22.9902 12.8288 23 15.0016 23C17.1744 23 17.4477 22.9902 18.2999 22.9512C19.1521 22.9122 19.7343 22.7756 20.2417 22.5804C20.7687 22.3755 21.2143 22.1023 21.6599 21.6566C22.1055 21.211 22.3787 20.7654 22.5837 20.2385C22.7821 19.731 22.9154 19.1488 22.9545 18.2966C22.9935 17.4444 23.0033 17.1712 23.0033 14.9984C23.0033 12.8256 22.9935 12.5523 22.9545 11.7001C22.9154 10.8479 22.7788 10.2657 22.5837 9.75828C22.3787 9.2346 22.1055 8.78573 21.6631 8.34336C21.2175 7.89774 20.7719 7.62452 20.245 7.4196C19.7375 7.22118 19.1553 7.08782 18.3031 7.04879C17.4509 7.00976 17.1777 7 15.0049 7C12.8321 7 12.5589 7.00976 11.7066 7.04879C10.8512 7.08457 10.269 7.22118 9.76154 7.4196ZM10.8889 15.0018C10.8889 17.2722 12.7299 19.11 14.997 19.11C17.2642 19.11 19.1052 17.2689 19.1052 15.0018C19.1052 12.7347 17.2674 10.8937 14.997 10.8937C12.7267 10.8937 10.8889 12.7314 10.8889 15.0018ZM17.6643 15.0018C17.6643 16.4753 16.4705 17.669 14.997 17.669C13.5236 17.669 12.3298 16.4753 12.3298 15.0018C12.3298 13.5283 13.5236 12.3346 14.997 12.3346C16.4705 12.3346 17.6643 13.5283 17.6643 15.0018ZM20.2385 10.7308C20.2385 11.2608 19.8089 11.6904 19.279 11.6904C18.749 11.6904 18.3194 11.2608 18.3194 10.7308C18.3194 10.2009 18.749 9.77127 19.279 9.77127C19.8089 9.77127 20.2385 10.2009 20.2385 10.7308Z" fill="black"/>
</svg>
