<svg width="30" height="30" viewBox="0 0 30 30" fill="none" xmlns="http://www.w3.org/2000/svg">
<path fill-rule="evenodd" clip-rule="evenodd" d="M15.1256 6C9.53426 6 5 9.46816 5 13.7456C5 16.5299 6.92185 18.9694 9.8036 20.3351C9.59097 21.0992 9.03608 23.1057 8.92672 23.5348C8.78901 24.0678 9.12721 24.0599 9.34997 23.9169C9.52414 23.8052 12.1244 22.0946 13.2463 21.3559C13.8559 21.4441 14.4837 21.4892 15.1256 21.4892C20.717 21.4892 25.2513 18.021 25.2513 13.7436C25.2513 9.4662 20.717 6 15.1256 6ZM11.3244 12.0589C10.5806 12.0589 8.11842 12.0628 8.11842 12.0628C7.49873 12.0628 7.50076 13.066 8.11842 13.066H9.17351C9.17351 13.066 9.17959 15.8464 9.17351 16.5008C9.17351 16.977 10.2711 16.9731 10.2691 16.495L10.2732 13.0601H11.3242C11.9803 13.0601 11.9803 12.0591 11.3244 12.0589ZM12.5138 12.3643C12.7406 11.8803 13.6438 12.0371 13.8018 12.3643V12.3623C13.9338 12.6359 14.488 14.0855 14.9048 15.176L14.905 15.1765L14.905 15.1765L14.9051 15.1766L14.9051 15.1768C15.0764 15.6247 15.2244 16.012 15.3105 16.2322C15.5191 16.7632 14.5166 17.1315 14.308 16.6005C14.0509 15.9461 14.1177 15.9167 14.1177 15.9167H12.1857L11.9751 16.6319C11.7503 17.1335 10.7803 16.7259 11.0051 16.2243C11.1605 15.8787 11.4713 15.0561 11.7761 14.2494L11.7762 14.2494L11.7762 14.2493C12.083 13.4373 12.3838 12.6415 12.5138 12.3643ZM13.1719 13.197L12.5361 14.9781H13.7592L13.1719 13.197ZM18.2198 15.8204C17.7237 15.8204 16.8185 15.8145 16.8185 15.8145C16.8185 15.8145 16.8225 13.1674 16.8205 12.5247C16.8205 11.9016 15.6763 11.9035 15.6783 12.5266C15.6803 13.4143 15.6844 16.277 15.6844 16.277C15.6844 16.277 15.5993 16.8471 16.1036 16.8471C16.3567 16.8471 16.7645 16.8457 17.1707 16.8442H17.1709C17.5737 16.8427 17.9748 16.8413 18.2219 16.8413C18.718 16.8413 18.716 15.8204 18.2198 15.8204ZM21.0375 14.2316L22.5159 16.1146V16.1126C22.7974 16.4712 21.9124 17.1198 21.6309 16.7612L20.2396 14.9252L19.9217 15.1721V16.5574C19.9217 16.9689 18.8382 16.9689 18.8382 16.5574C18.8382 16.4923 18.8396 16.2234 18.8416 15.8506C18.8473 14.7321 18.858 12.6783 18.8504 12.3858C18.8382 11.9724 19.9156 11.943 19.9278 12.3584C19.9419 12.8855 19.9278 13.8417 19.9278 13.8417L21.722 12.1056C21.9529 11.8842 22.6678 12.5798 22.4369 12.8012C22.04 13.1813 21.0375 14.2316 21.0375 14.2316Z" fill="white"/>
</svg>
