<svg width="30" height="30" viewBox="0 0 30 30" fill="none" xmlns="http://www.w3.org/2000/svg">
<path fill-rule="evenodd" clip-rule="evenodd" d="M8.75391 5.90625C8.12109 6.15234 7.58594 6.48047 7.05078 7.01562C6.51562 7.54687 6.1875 8.08594 5.94141 8.71484C5.70312 9.32422 5.54297 10.0234 5.49609 11.0469C5.44922 12.0703 5.4375 12.3984 5.4375 15.0078C5.4375 17.6172 5.44922 17.9453 5.49609 18.9687C5.54297 19.9922 5.70703 20.6914 5.94141 21.3008C6.1875 21.9336 6.51562 22.4687 7.05078 23.0039C7.58594 23.5391 8.12109 23.8672 8.75391 24.1133C9.36328 24.3516 10.0625 24.5117 11.0859 24.5586C12.1094 24.6055 12.4375 24.6172 15.0469 24.6172C17.6563 24.6172 17.9844 24.6055 19.0078 24.5586C20.0312 24.5117 20.7305 24.3477 21.3398 24.1133C21.9727 23.8672 22.5078 23.5391 23.043 23.0039C23.5781 22.4687 23.9062 21.9336 24.1523 21.3008C24.3906 20.6914 24.5508 19.9922 24.5977 18.9687C24.6445 17.9453 24.6562 17.6172 24.6562 15.0078C24.6562 12.3984 24.6445 12.0703 24.5977 11.0469C24.5508 10.0234 24.3867 9.32422 24.1523 8.71484C23.9062 8.08594 23.5781 7.54687 23.0469 7.01562C22.5117 6.48047 21.9766 6.15234 21.3437 5.90625C20.7344 5.66797 20.0352 5.50781 19.0117 5.46094C17.9883 5.41406 17.6602 5.40234 15.0508 5.40234C12.4414 5.40234 12.1133 5.41406 11.0898 5.46094C10.0625 5.50391 9.36328 5.66797 8.75391 5.90625ZM10.1133 15.0117C10.1133 17.7383 12.3242 19.9453 15.0469 19.9453C17.7695 19.9453 19.9805 17.7344 19.9805 15.0117C19.9805 12.2891 17.7734 10.0781 15.0469 10.0781C12.3203 10.0781 10.1133 12.2852 10.1133 15.0117ZM18.25 15.0117C18.25 16.7812 16.8164 18.2148 15.0469 18.2148C13.2773 18.2148 11.8438 16.7812 11.8438 15.0117C11.8438 13.2422 13.2773 11.8086 15.0469 11.8086C16.8164 11.8086 18.25 13.2422 18.25 15.0117ZM21.332 9.88281C21.332 10.5192 20.8161 11.0352 20.1797 11.0352C19.5433 11.0352 19.0273 10.5192 19.0273 9.88281C19.0273 9.24639 19.5433 8.73047 20.1797 8.73047C20.8161 8.73047 21.332 9.24639 21.332 9.88281Z" fill="white"/>
</svg>
