<svg width="1928" height="910" viewBox="0 0 1928 910" fill="none" xmlns="http://www.w3.org/2000/svg">
<mask id="mask0_2154_6309" style="mask-type:alpha" maskUnits="userSpaceOnUse" x="4" y="0" width="1920" height="909">
<rect x="4" width="1920" height="909" fill="url(#paint0_linear_2154_6309)"/>
<rect x="4" width="1920" height="909" fill="url(#paint1_radial_2154_6309)"/>
</mask>
<g mask="url(#mask0_2154_6309)">
<path d="M369.999 415.927C203.999 402.753 68.9988 463.5 -109.002 717.5L-109.002 909.499L2014 909.499C2003.81 791.374 2005.49 411.368 1995.5 295.5C1663.05 251.472 1580.32 214.981 1238.81 415.927C897.299 616.872 622.274 435.948 369.999 415.927Z" fill="#4835C6"/>
<circle cx="139" cy="410" r="148" fill="#4835C6"/>
<circle cx="886.5" cy="585.5" r="165.5" fill="#4835C6"/>
<circle cx="467.5" cy="577.5" r="165.5" fill="#4835C6"/>
<circle cx="633.5" cy="577.5" r="165.5" fill="#4835C6"/>
<circle cx="1380" cy="404" r="121" fill="#4835C6"/>
<circle cx="1602.5" cy="238.5" r="104.5" fill="#4835C6"/>
<circle cx="1693.5" cy="311.5" r="82.5" fill="#4835C6"/>
<ellipse cx="1754" cy="246.5" rx="73" ry="72.5" fill="#4835C6"/>
<circle cx="1824" cy="318" r="89" fill="#4835C6"/>
<circle cx="1924" cy="220" r="70" fill="#4835C6"/>
<circle cx="4" cy="220" r="70" fill="#4835C6"/>
<circle cx="1259.42" cy="375.057" r="103.5" transform="rotate(-37.3169 1259.42 375.057)" fill="#4835C6"/>
<circle cx="1163.98" cy="421.402" r="53.5" transform="rotate(-37.3169 1163.98 421.402)" fill="#4835C6"/>
<circle cx="1111.98" cy="495.981" r="53.5" transform="rotate(-37.3169 1111.98 495.981)" fill="#4835C6"/>
<circle cx="1047.17" cy="497.165" r="27.9447" transform="rotate(-37.3169 1047.17 497.165)" fill="#4835C6"/>
<circle cx="1486" cy="313" r="48" fill="#4835C6"/>
<circle cx="295.691" cy="389.691" r="76.6908" fill="#4835C6"/>
<circle cx="383" cy="439" r="56" fill="#4835C6"/>
<circle cx="2.5" cy="296.5" r="70.5" fill="#4835C6"/>
<circle cx="129.5" cy="160.5" r="21.5" fill="#4835C6"/>
<circle cx="-36" cy="519" r="95" fill="#4835C6"/>
</g>
<defs>
<linearGradient id="paint0_linear_2154_6309" x1="1089" y1="117.642" x2="994.548" y2="1118.69" gradientUnits="userSpaceOnUse">
<stop stop-color="#4A2BCF"/>
<stop offset="1" stop-color="#FFADDE"/>
</linearGradient>
<radialGradient id="paint1_radial_2154_6309" cx="0" cy="0" r="1" gradientUnits="userSpaceOnUse" gradientTransform="translate(934.5 409.288) rotate(49.5675) scale(1033.07 1521.47)">
<stop stop-color="#198ED0"/>
<stop offset="1" stop-color="#2E33C0" stop-opacity="0"/>
</radialGradient>
</defs>
</svg>
