<svg width="1920" height="500" viewBox="0 0 1920 500" fill="none" xmlns="http://www.w3.org/2000/svg">
<mask id="mask0_1495_1576" style="mask-type:alpha" maskUnits="userSpaceOnUse" x="0" y="0" width="1920" height="500">
<rect width="1920" height="500" fill="url(#paint0_linear_1495_1576)"/>
<rect width="1920" height="500" fill="url(#paint1_radial_1495_1576)"/>
</mask>
<g mask="url(#mask0_1495_1576)">
<path d="M365.999 305.931C199.999 292.757 64.9985 353.504 -113.002 607.504L-113.005 686.503L2183.5 686.503C2173.31 568.378 2172 236.87 2162 121.002C1829.55 76.9743 1686.5 147.501 1480 282.004C1147.97 498.267 618.273 325.951 365.999 305.931Z" fill="#4835C6"/>
<circle cx="1479.5" cy="334.5" r="104.5" fill="#4835C6"/>
<circle cx="110.5" cy="281.5" r="165.5" fill="#4835C6"/>
<circle cx="882.5" cy="475.5" r="165.5" fill="#4835C6"/>
<circle cx="463.5" cy="467.5" r="165.5" fill="#4835C6"/>
<circle cx="638.5" cy="434.5" r="165.5" fill="#4835C6"/>
<circle cx="1373" cy="368" r="121" fill="#4835C6"/>
<circle cx="1642.5" cy="182.5" r="82.5" fill="#4835C6"/>
<ellipse cx="1763" cy="163.5" rx="73" ry="72.5" fill="#4835C6"/>
<circle cx="1820" cy="208" r="89" fill="#4835C6"/>
<circle cx="1890" cy="100" r="103" fill="#4835C6"/>
<circle cx="1450.06" cy="420.053" r="103.5" transform="rotate(-37.3169 1450.06 420.053)" fill="#4835C6"/>
<circle cx="1204.98" cy="371.983" r="53.5" transform="rotate(-37.3169 1204.98 371.983)" fill="#4835C6"/>
<circle cx="1110.98" cy="407.983" r="53.5" transform="rotate(-37.3169 1110.98 407.983)" fill="#4835C6"/>
<circle cx="1043.17" cy="387.164" r="27.9447" transform="rotate(-37.3169 1043.17 387.164)" fill="#4835C6"/>
<circle cx="1564" cy="236" r="48" fill="#4835C6"/>
<circle cx="184.847" cy="397.618" r="76.6908" fill="#4835C6"/>
<circle cx="291.691" cy="279.691" r="76.6908" fill="#4835C6"/>
<circle cx="379" cy="335" r="56" fill="#4835C6"/>
<circle cx="31" cy="127" r="56" fill="#4835C6"/>
<circle cx="115.5" cy="30.5" r="21.5" fill="#4835C6"/>
<circle cx="6.90462" cy="420.905" r="46.9046" fill="#4835C6"/>
</g>
<defs>
<linearGradient id="paint0_linear_1495_1576" x1="1085" y1="64.7098" x2="1056.25" y2="618.753" gradientUnits="userSpaceOnUse">
<stop stop-color="#4A2BCF"/>
<stop offset="1" stop-color="#FFADDE"/>
</linearGradient>
<radialGradient id="paint1_radial_1495_1576" cx="0" cy="0" r="1" gradientUnits="userSpaceOnUse" gradientTransform="translate(930.5 225.131) rotate(32.8451) scale(797.486 1084.12)">
<stop stop-color="#198ED0"/>
<stop offset="1" stop-color="#2E33C0" stop-opacity="0"/>
</radialGradient>
</defs>
</svg>
