<svg width="20" height="19" viewBox="0 0 20 19" fill="none" xmlns="http://www.w3.org/2000/svg">
<path d="M2 6C2 5.44772 2.44772 5 3 5H17C17.5523 5 18 5.44772 18 6V10.5V17C18 17.5523 17.5523 18 17 18H3C2.44772 18 2 17.5523 2 17V6Z" stroke="black" stroke-width="2"/>
<rect x="7" y="11.5" width="6" height="6.5" rx="1" stroke="black" stroke-width="2"/>
<path fill-rule="evenodd" clip-rule="evenodd" d="M1 4.76923C1 6.5 2.5 8 4 8C4.82577 8 5.34847 7.67363 5.81837 7.38022C6.20204 7.14066 6.55051 6.92308 7 6.92308C7.44949 6.92308 7.79796 7.14066 8.18163 7.38022C8.65153 7.67363 9.17423 8 10 8C10.8258 8 11.3485 7.67363 11.8184 7.38022C12.202 7.14066 12.5505 6.92308 13 6.92308C13.4495 6.92308 13.798 7.14066 14.1816 7.38022C14.6515 7.67363 15.1742 8 16 8C17.5 8 19 6.5 19 4.76923C19 3.5 18 2 17 1H10H3C2 2 1 3.5 1 4.76923Z" fill="white"/>
<path d="M5.81837 7.38022L5.28874 6.53199L5.81837 7.38022ZM8.18163 7.38022L8.71126 6.53199L8.18163 7.38022ZM11.8184 7.38022L11.2887 6.53199V6.53199L11.8184 7.38022ZM14.1816 7.38022L14.7113 6.53199L14.1816 7.38022ZM17 1L17.7071 0.292893L17.4142 0H17V1ZM3 1V0H2.58579L2.29289 0.292893L3 1ZM4 7C3.57896 7 3.07744 6.78113 2.66206 6.34444C2.25239 5.91376 2 5.34523 2 4.76923H0C0 5.92401 0.49761 6.97085 1.21294 7.72287C1.92256 8.46887 2.92104 9 4 9V7ZM5.28874 6.53199C4.83177 6.81732 4.51978 7 4 7V9C5.13175 9 5.86516 8.52993 6.348 8.22845L5.28874 6.53199ZM7 5.92308C6.21971 5.92308 5.63343 6.31677 5.28874 6.53199L6.348 8.22845C6.77065 7.96455 6.88131 7.92308 7 7.92308V5.92308ZM8.71126 6.53199C8.36657 6.31677 7.78029 5.92308 7 5.92308V7.92308C7.11869 7.92308 7.22935 7.96455 7.652 8.22845L8.71126 6.53199ZM10 7C9.48022 7 9.16823 6.81732 8.71126 6.53199L7.652 8.22845C8.13484 8.52993 8.86825 9 10 9V7ZM10 9C11.1317 9 11.8652 8.52993 12.348 8.22845L11.2887 6.53199C10.8318 6.81732 10.5198 7 10 7V9ZM12.348 8.22845C12.7706 7.96455 12.8813 7.92308 13 7.92308V5.92308C12.2197 5.92308 11.6334 6.31677 11.2887 6.53199L12.348 8.22845ZM13 7.92308C13.1187 7.92308 13.2293 7.96455 13.652 8.22845L14.7113 6.53199C14.3666 6.31677 13.7803 5.92308 13 5.92308V7.92308ZM13.652 8.22845C14.1348 8.52993 14.8683 9 16 9V7C15.4802 7 15.1682 6.81732 14.7113 6.53199L13.652 8.22845ZM16 9C17.079 9 18.0774 8.46887 18.7871 7.72287C19.5024 6.97085 20 5.92401 20 4.76923H18C18 5.34523 17.7476 5.91376 17.3379 6.34444C16.9226 6.78113 16.421 7 16 7V9ZM20 4.76923C20 3.89098 19.6618 3.02263 19.244 2.28888C18.8184 1.5413 18.2605 0.846277 17.7071 0.292893L16.2929 1.70711C16.7395 2.15372 17.1816 2.7087 17.506 3.27843C17.8382 3.86199 18 4.37825 18 4.76923H20ZM17 0H10V2H17V0ZM3 2H10V0H3V2ZM2 4.76923C2 4.37825 2.16178 3.86199 2.49402 3.27843C2.81839 2.7087 3.26049 2.15372 3.70711 1.70711L2.29289 0.292893C1.73951 0.846277 1.18161 1.5413 0.755977 2.28888C0.338224 3.02263 0 3.89098 0 4.76923H2Z" fill="black"/>
<path d="M7 7V1" stroke="black" stroke-width="2"/>
<path d="M13 7V1" stroke="black" stroke-width="2"/>
</svg>
