<svg width="68" height="68" viewBox="0 0 68 68" fill="none" xmlns="http://www.w3.org/2000/svg">
<g filter="url(#filter0_d_1284_4671)">
<rect x="10" y="6" width="48" height="48" rx="24" fill="white"/>
</g>
<path d="M39.1557 28.5267L39.9704 27.1155C40.9841 25.3598 40.3825 23.1147 38.6268 22.101V22.101C36.8711 21.0874 34.626 21.6889 33.6123 23.4447L31.574 26.9752C30.5603 28.7309 31.1619 30.976 32.9176 31.9897V31.9897L33.3832 32.2585" stroke="black" stroke-width="2" stroke-linecap="round"/>
<path d="M29.1189 31.2299L28.3042 32.6411C27.2905 34.3968 27.8921 36.6419 29.6478 37.6555V37.6555C31.4035 38.6692 33.6486 38.0677 34.6623 36.3119L36.7006 32.7814C37.7143 31.0256 37.1127 28.7806 35.357 27.7669V27.7669L34.8914 27.4981" stroke="black" stroke-width="2" stroke-linecap="round"/>
<defs>
<filter id="filter0_d_1284_4671" x="0" y="0" width="68" height="68" filterUnits="userSpaceOnUse" color-interpolation-filters="sRGB">
<feFlood flood-opacity="0" result="BackgroundImageFix"/>
<feColorMatrix in="SourceAlpha" type="matrix" values="0 0 0 0 0 0 0 0 0 0 0 0 0 0 0 0 0 0 127 0" result="hardAlpha"/>
<feOffset dy="4"/>
<feGaussianBlur stdDeviation="5"/>
<feComposite in2="hardAlpha" operator="out"/>
<feColorMatrix type="matrix" values="0 0 0 0 0 0 0 0 0 0 0 0 0 0 0 0 0 0 0.03 0"/>
<feBlend mode="multiply" in2="BackgroundImageFix" result="effect1_dropShadow_1284_4671"/>
<feBlend mode="normal" in="SourceGraphic" in2="effect1_dropShadow_1284_4671" result="shape"/>
</filter>
</defs>
</svg>
