<?xml version="1.0"?>
<svg xmlns="http://www.w3.org/2000/svg" width="55" height="55" viewBox="0 0 55 55" fill="none">
<path d="M43.989 30.4434L43.9891 30.4435C44.1504 30.5955 44.2789 30.7788 44.3668 30.9822C44.4547 31.1857 44.5 31.4049 44.5 31.6265C44.5 31.8481 44.4547 32.0674 44.3668 32.2708C44.2789 32.4743 44.1504 32.6576 43.9891 32.8095L43.989 32.8096L37.617 38.8068C37.4633 38.9559 37.2816 39.0733 37.0824 39.152C36.8816 39.2313 36.667 39.2698 36.4511 39.2653C36.2353 39.2607 36.0225 39.2132 35.8252 39.1255L36.0283 38.6686L35.8252 39.1255C35.6279 39.0378 35.4501 38.9117 35.3021 38.7545C35.1541 38.5973 35.0389 38.4122 34.9633 38.2099C34.8877 38.0077 34.8531 37.7925 34.8616 37.5767C34.87 37.361 34.9214 37.1491 35.0127 36.9535C35.1033 36.7593 35.2314 36.585 35.3896 36.4406L38.778 33.2515L20.8753 33.2515C19.4497 33.2515 18.0826 32.6852 17.0746 31.6772C16.0666 30.6692 15.5003 29.3021 15.5003 27.8765L15.5003 6.12653C15.5003 5.69555 15.6715 5.28223 15.9762 4.97748C16.281 4.67273 16.6943 4.50153 17.1253 4.50153C17.5563 4.50153 17.9696 4.67273 18.2743 4.97748C18.5791 5.28223 18.7503 5.69555 18.7503 6.12653L18.7503 27.8765C18.7503 28.4401 18.9742 28.9806 19.3727 29.3791C19.7712 29.7776 20.3117 30.0015 20.8753 30.0015L38.778 30.0015L35.3896 26.8125C35.2314 26.668 35.1033 26.4937 35.0127 26.2996C34.9214 26.1039 34.87 25.892 34.8616 25.6763C34.8531 25.4606 34.8877 25.2453 34.9633 25.0431C35.0389 24.8409 35.1541 24.6558 35.3021 24.4986C35.4501 24.3414 35.6279 24.2152 35.8252 24.1275C36.0225 24.0398 36.2353 23.9923 36.4511 23.9878C36.667 23.9832 36.8816 24.0218 37.0824 24.1011C37.2816 24.1798 37.4633 24.2971 37.617 24.4463L43.989 30.4434Z" fill="#FF9FBB" stroke="#FF9FBB"/>
</svg>
