<svg width="30" height="30" viewBox="0 0 30 30" fill="none" xmlns="http://www.w3.org/2000/svg">
<path d="M21.9419 8.29661C20.6473 7.69088 19.263 7.25066 17.8157 7C17.638 7.32134 17.4304 7.75355 17.2872 8.09738C15.7487 7.86601 14.2245 7.86601 12.7143 8.09738C12.5712 7.75355 12.3588 7.32134 12.1795 7C10.7307 7.25066 9.3448 7.6925 8.05016 8.29982C5.43887 12.2458 4.73099 16.0938 5.08493 19.8872C6.81688 21.1805 8.49534 21.9662 10.1455 22.4804C10.5529 21.9196 10.9163 21.3235 11.2293 20.6953C10.6331 20.4688 10.0621 20.1892 9.52256 19.8647C9.6657 19.7586 9.80571 19.6478 9.94098 19.5337C13.2318 21.0729 16.8074 21.0729 20.0589 19.5337C20.1958 19.6478 20.3358 19.7586 20.4774 19.8647C19.9362 20.1908 19.3637 20.4704 18.7675 20.697C19.0805 21.3235 19.4423 21.9212 19.8513 22.4819C21.503 21.9678 23.183 21.1822 24.915 19.8872C25.3303 15.4897 24.2056 11.6771 21.9419 8.29661ZM11.6776 17.5543C10.6898 17.5543 9.87963 16.632 9.87963 15.509C9.87963 14.3859 10.6725 13.4621 11.6776 13.4621C12.6829 13.4621 13.493 14.3843 13.4757 15.509C13.4772 16.632 12.6829 17.5543 11.6776 17.5543ZM18.3223 17.5543C17.3344 17.5543 16.5243 16.632 16.5243 15.509C16.5243 14.3859 17.3171 13.4621 18.3223 13.4621C19.3275 13.4621 20.1376 14.3843 20.1203 15.509C20.1203 16.632 19.3275 17.5543 18.3223 17.5543Z" fill="white"/>
</svg>
