<svg width="80" height="26" viewBox="0 0 80 26" fill="none" xmlns="http://www.w3.org/2000/svg">
<path d="M25.5091 15.469H23.3605C23.3192 15.469 23.2872 15.4352 23.2872 15.3958V6.73732C23.2853 5.70432 22.4852 5 21.5255 5C20.5657 5 19.7656 5.70995 19.7656 6.73732V16.8438C19.7656 17.9463 20.6465 18.8422 21.7434 18.8685H25.5091C26.4163 18.8704 27.2464 18.0966 27.2464 17.1706C27.2464 16.2447 26.4219 15.4709 25.5091 15.4709V15.469Z" fill="#9E9E9E"/>
<path d="M33.9388 15.469H31.7902C31.7488 15.469 31.7169 15.4352 31.7169 15.3958V6.73732C31.7169 5.70432 30.9149 5 29.9552 5C28.9954 5 28.1953 5.70995 28.1953 6.73732V16.8438C28.1953 17.9463 29.0762 18.8422 30.173 18.8685H33.9388C34.846 18.8704 35.6761 18.0966 35.6761 17.1706C35.6761 16.2447 34.8516 15.4709 33.9388 15.4709V15.469Z" fill="#9E9E9E"/>
<path d="M16.9785 13.5758C17.8857 13.5758 18.7158 12.802 18.7158 11.876C18.7158 10.9501 17.8913 10.1763 16.9785 10.1763H14.2589C14.2176 10.1763 14.1838 10.1425 14.1838 10.1012V8.47652C14.1838 8.4352 14.2176 8.40139 14.2589 8.40139H16.9785C17.8857 8.40139 18.7158 7.62758 18.7158 6.70164C18.7158 5.77569 17.8913 5 16.9785 5H12.6906C11.5712 5 10.6641 5.90716 10.6641 7.02656V16.7161C10.6641 17.8355 11.5712 18.7427 12.6906 18.7427H16.9785C17.8857 18.7427 18.7158 17.9689 18.7158 17.0429C18.7158 16.117 17.8913 15.3432 16.9785 15.3432H14.2589C14.2176 15.3432 14.1838 15.3094 14.1838 15.268V13.6509C14.1838 13.6096 14.2176 13.5758 14.2589 13.5758H16.9785Z" fill="#9E9E9E"/>
<path d="M60.1779 5C56.9568 5 54.9453 7.65763 54.9453 12C54.9453 16.3424 56.9569 19 60.1761 19C63.3953 19 65.4068 16.3762 65.4068 12C65.4068 7.62383 63.3971 5 60.1779 5ZM60.1779 15.484C59.1994 15.484 58.7167 14.2951 58.7167 12C58.7167 9.52267 59.1919 8.51596 60.1779 8.51596C61.164 8.51596 61.6392 9.47947 61.6392 12C61.6392 14.2951 61.1565 15.484 60.1779 15.484Z" fill="#9E9E9E"/>
<path d="M79.673 17.1205L78.6156 7.2807V7.27694C78.5011 6.10495 77.8042 5.18652 76.4501 5.02875C75.4471 4.91231 74.1887 5.12454 73.7305 6.70034H73.7229L72.8703 10.8211C72.8552 10.8981 72.7444 10.8981 72.7275 10.8211L71.8786 6.71161V6.70597L71.8748 6.69658C71.4165 5.12078 70.1582 4.91043 69.1552 5.02688C67.8029 5.18464 67.1042 6.10308 66.9915 7.27506L65.936 17.1149C65.8534 18.1385 66.5934 18.9104 67.5494 18.9893C68.5053 19.0663 69.3618 18.4296 69.4444 17.4004L69.9177 11.901C69.9215 11.8146 70.0455 11.8053 70.0624 11.8916L71.0728 17.4736L71.101 17.4661V17.4736H71.0728C71.1611 17.8323 71.5386 18.9968 72.8008 18.9968C74.0629 18.9968 74.4179 17.9901 74.5193 17.4736H74.5005V17.468L74.5193 17.4736L75.541 11.8391C75.5561 11.7545 75.6819 11.7621 75.6857 11.8484L76.1627 17.4022V17.406C76.2472 18.4334 77.1018 19.0701 78.0578 18.9912C79.0138 18.9123 79.7538 18.1423 79.6712 17.1205H79.673Z" fill="#9E9E9E"/>
<path d="M51.5748 10.3754C51.3757 10.3416 51.0902 10.3021 50.6789 10.3021C49.3398 10.2683 48.611 11.0703 48.611 11.9981C48.611 12.9259 49.1069 13.8951 50.7954 13.6434C50.6808 15.084 50.1267 15.4859 49.3247 15.4859C48.1058 15.4859 47.7226 14.297 47.7226 12.0019C47.7226 9.52455 48.1978 8.51784 49.1839 8.51784C49.5313 8.51784 49.8149 8.6418 50.0384 8.91414C50.0422 8.91977 50.046 8.92353 50.0497 8.92729C50.0798 8.96485 50.1079 9.00241 50.1342 9.04561C50.1342 9.04561 50.138 9.04561 50.1417 9.04561C50.7259 9.79313 51.5222 10.0392 52.3843 9.76496C53.515 9.40622 53.7742 8.44459 53.3478 7.42474C52.6379 6.0762 51.1278 5 49.1857 5C45.9647 5 43.9531 7.65763 43.9531 12C43.9531 16.3424 45.9647 19 49.1839 19C51.7175 19 53.344 17.7341 53.9225 14.7816C53.9376 14.7027 53.9526 14.6219 53.9676 14.5412C54.3263 12.2423 53.4211 10.6928 51.5729 10.3772L51.5748 10.3754Z" fill="#9E9E9E"/>
<path d="M8.11376 11.8704C9.01341 11.1548 9.62006 10.0711 9.62006 8.87657C9.62006 6.76362 7.74188 5 5.65897 5C5.65897 5 5.65333 5 5.65146 5H1.84626V5.00939C0.811376 5.10142 0 5.96914 0 7.02656V16.7161C0 17.8355 0.907163 18.7427 2.02656 18.7427H5.65897C7.72873 18.7446 9.61818 16.9809 9.61818 14.868C9.61818 13.6697 9.01341 12.586 8.11188 11.8704H8.11376ZM5.24013 15.3375L5.22699 15.3413H3.59672C3.5554 15.3413 3.5216 15.3075 3.5216 15.2662V13.649C3.5216 13.6077 3.5554 13.5739 3.59672 13.5739H5.20069C5.67587 13.5739 6.10598 13.9758 6.10598 14.4567C6.10598 14.9375 5.69841 15.3131 5.24013 15.3357V15.3375ZM5.20069 10.1744H3.59484C3.55352 10.1744 3.51972 10.1406 3.51972 10.1012V8.47652C3.51972 8.4352 3.55352 8.40139 3.59484 8.40139H5.19694C5.67399 8.40139 6.1041 8.8052 6.1041 9.2879C6.1041 9.77059 5.67212 10.1725 5.19881 10.1744H5.20069Z" fill="#9E9E9E"/>
<path d="M42.8818 5.14314C41.9953 4.77689 40.9848 5.12248 40.5923 6.0766L39.1686 9.5719C39.1442 9.632 39.0597 9.632 39.0353 9.5719L37.6116 6.0766C37.2172 5.12248 36.2086 4.77689 35.3221 5.14314C34.4356 5.50938 33.966 6.47102 34.3586 7.42138L37.3487 13.7002V17.2631C37.3487 18.2961 38.1488 19.0004 39.1085 19.0004C40.0683 19.0004 40.8684 18.2904 40.8684 17.2631V13.672L43.8453 7.42138C44.2378 6.47289 43.7683 5.50938 42.8818 5.14314Z" fill="#9E9E9E"/>
</svg>
