<svg width="160" height="56" viewBox="0 0 160 56" fill="none" xmlns="http://www.w3.org/2000/svg">
<g clip-path="url(#clip0_1284_6323)">
<path d="M51.0153 34.938H46.718C46.6354 34.938 46.5715 34.8704 46.5715 34.7915V17.4746C46.5678 15.4086 44.9675 14 43.048 14C41.1285 14 39.5283 15.4199 39.5283 17.4746V37.6877C39.5283 39.8927 41.2901 41.6845 43.4838 41.737H51.0153C52.8296 41.7408 54.4899 40.1932 54.4899 38.3413C54.4899 36.4894 52.8409 34.9418 51.0153 34.9418V34.938Z" fill="#040000"/>
<path d="M67.8813 34.938H63.584C63.5013 34.938 63.4375 34.8704 63.4375 34.7915V17.4746C63.4375 15.4086 61.8335 14 59.914 14C57.9945 14 56.3943 15.4199 56.3943 17.4746V37.6877C56.3943 39.8927 58.156 41.6845 60.3497 41.737H67.8813C69.6956 41.7408 71.3559 40.1932 71.3559 38.3413C71.3559 36.4894 69.7069 34.9418 67.8813 34.9418V34.938Z" fill="#040000"/>
<path d="M33.9614 31.407C35.7758 31.407 37.4361 29.8593 37.4361 28.0074C37.4361 26.1556 35.787 24.6079 33.9614 24.6079H28.5222C28.4396 24.6079 28.372 24.5403 28.372 24.4577V21.2084C28.372 21.1258 28.4396 21.0582 28.5222 21.0582H33.9614C35.7758 21.0582 37.4361 19.5105 37.4361 17.6586C37.4361 15.8068 35.787 14.2554 33.9614 14.2554H25.3856C23.1468 14.2554 21.3325 16.0697 21.3325 18.3085V37.6876C21.3325 39.9264 23.1468 41.7407 25.3856 41.7407H33.9614C35.7758 41.7407 37.4361 40.1931 37.4361 38.3412C37.4361 36.4893 35.787 34.9417 33.9614 34.9417H28.5222C28.4396 34.9417 28.372 34.8741 28.372 34.7915V31.5572C28.372 31.4746 28.4396 31.407 28.5222 31.407H33.9614Z" fill="#040000"/>
<path d="M120.354 14C113.912 14 109.889 19.3153 109.889 28C109.889 36.6847 113.912 42 120.35 42C126.789 42 130.812 36.7523 130.812 28C130.812 19.2477 126.792 14 120.354 14ZM120.354 34.9681C118.397 34.9681 117.431 32.5903 117.431 28C117.431 23.0453 118.382 21.0319 120.354 21.0319C122.326 21.0319 123.276 22.9589 123.276 28C123.276 32.5903 122.311 34.9681 120.354 34.9681Z" fill="#040000"/>
<path d="M159.345 38.2437L157.231 18.5641V18.5566C157.001 16.2126 155.608 14.3757 152.899 14.0602C150.894 13.8273 148.377 14.2518 147.46 17.4034H147.445L145.74 25.6448C145.71 25.7989 145.488 25.7989 145.454 25.6448L143.756 17.4259V17.4146L143.749 17.3959C142.832 14.2443 140.316 13.8235 138.31 14.0564C135.605 14.372 134.208 16.2088 133.982 18.5528L131.871 38.2325C131.706 40.2797 133.186 41.8235 135.098 41.9813C137.01 42.1353 138.723 40.8619 138.888 38.8034L139.835 27.8048C139.842 27.632 140.09 27.6132 140.124 27.786L142.145 38.9499L142.201 38.9349V38.9499H142.145C142.321 39.6674 143.076 41.9963 145.601 41.9963C148.125 41.9963 148.835 39.9829 149.038 38.9499H149V38.9386L149.038 38.9499L151.081 27.6808C151.111 27.5118 151.363 27.5268 151.371 27.6996L152.325 38.8072V38.8147C152.494 40.8694 154.203 42.1428 156.115 41.9851C158.027 41.8273 159.507 40.2872 159.342 38.2437H159.345Z" fill="#040000"/>
<path d="M103.143 24.7507C102.744 24.6831 102.173 24.6042 101.351 24.6042C98.6724 24.5366 97.215 26.1406 97.215 27.9962C97.215 29.8519 98.2066 31.7902 101.584 31.2868C101.354 34.168 100.246 34.9718 98.6424 34.9718C96.2045 34.9718 95.4382 32.594 95.4382 28.0038C95.4382 23.0491 96.3886 21.0357 98.3607 21.0357C99.0556 21.0357 99.6228 21.2836 100.07 21.8283C100.077 21.8395 100.085 21.8471 100.092 21.8546C100.152 21.9297 100.209 22.0048 100.261 22.0912C100.261 22.0912 100.269 22.0912 100.276 22.0912C101.445 23.5863 103.037 24.0783 104.762 23.5299C107.023 22.8124 107.541 20.8892 106.689 18.8495C105.269 16.1524 102.248 14 98.3644 14C91.9222 14 87.8992 19.3153 87.8992 28C87.8992 36.6847 91.9222 42 98.3607 42C103.428 42 106.681 39.4682 107.838 33.5632C107.868 33.4054 107.898 33.2439 107.928 33.0824C108.646 28.4846 106.835 25.3856 103.139 24.7545L103.143 24.7507Z" fill="#040000"/>
<path d="M16.2275 27.9962C18.0268 26.565 19.2401 24.3976 19.2401 22.0085C19.2401 17.7826 15.4838 14.2554 11.3179 14.2554C11.3179 14.2554 11.3067 14.2554 11.3029 14.2554H3.69251V14.2742C1.62275 14.4582 0 16.1937 0 18.3085V37.6876C0 39.9264 1.81433 41.7407 4.05312 41.7407H11.3179C15.4575 41.7445 19.2364 38.2173 19.2364 33.9913C19.2364 31.5948 18.0268 29.4274 16.2238 27.9962H16.2275ZM10.4803 34.9304L10.454 34.938H7.19345C7.11081 34.938 7.04319 34.8703 7.04319 34.7877V31.5535C7.04319 31.4708 7.11081 31.4032 7.19345 31.4032H10.4014C11.3517 31.4032 12.212 32.2071 12.212 33.1687C12.212 34.1303 11.3968 34.8816 10.4803 34.9267V34.9304ZM10.4014 24.6042H7.18969C7.10705 24.6042 7.03943 24.5366 7.03943 24.4577V21.2084C7.03943 21.1258 7.10705 21.0582 7.18969 21.0582H10.3939C11.348 21.0582 12.2082 21.8658 12.2082 22.8312C12.2082 23.7966 11.3442 24.6004 10.3976 24.6042H10.4014Z" fill="#040000"/>
<path d="M85.7692 14.2855C83.9962 13.5531 81.9753 14.2442 81.1902 16.1525L78.3428 23.1431C78.294 23.2633 78.125 23.2633 78.0761 23.1431L75.2288 16.1525C74.44 14.2442 72.4228 13.5531 70.6498 14.2855C68.8768 15.018 67.9377 16.9413 68.7228 18.842L74.7029 31.3996V38.5254C74.7029 40.5914 76.3031 42.0001 78.2226 42.0001C80.1421 42.0001 81.7424 40.5802 81.7424 38.5254V31.3432L87.6962 18.842C88.4813 16.9451 87.5422 15.018 85.7692 14.2855Z" fill="#040000"/>
</g>
<defs>
<clipPath id="clip0_1284_6323">
<rect width="159.36" height="28" fill="white" transform="translate(0 14)"/>
</clipPath>
</defs>
</svg>
