<svg width="100" height="90" viewBox="0 0 100 90" fill="none" xmlns="http://www.w3.org/2000/svg">
<g filter="url(#filter0_d_2851_13806)">
<rect x="10" y="11" width="80" height="64" rx="10" fill="#FFADBD"/>
<g filter="url(#filter1_ii_2851_13806)">
<rect x="10" y="11" width="80" height="60" rx="10" fill="#FE3D6B"/>
</g>
<circle cx="27.5" cy="17.5" r="3.5" fill="#E8C0C9"/>
<g filter="url(#filter2_d_2851_13806)">
<rect x="26" y="5" width="3" height="14" rx="1.5" fill="url(#paint0_linear_2851_13806)"/>
</g>
<circle cx="42.5" cy="17.5" r="3.5" fill="#E8C0C9"/>
<g filter="url(#filter3_d_2851_13806)">
<rect x="41" y="5" width="3" height="14" rx="1.5" fill="url(#paint1_linear_2851_13806)"/>
</g>
<circle cx="57.5" cy="17.5" r="3.5" fill="#E8C0C9"/>
<g filter="url(#filter4_d_2851_13806)">
<rect x="56" y="5" width="3" height="14" rx="1.5" fill="url(#paint2_linear_2851_13806)"/>
</g>
<circle cx="72.5" cy="17.5" r="3.5" fill="#E8C0C9"/>
<g filter="url(#filter5_d_2851_13806)">
<rect x="71" y="5" width="3" height="14" rx="1.5" fill="url(#paint3_linear_2851_13806)"/>
</g>
<path d="M31.6719 31.02C31.4119 31.02 31.2269 31.075 31.1169 31.185C31.0169 31.295 30.9669 31.425 30.9669 31.575C30.9669 31.745 31.0369 31.88 31.1769 31.98C31.3269 32.07 31.5019 32.14 31.7019 32.19C32.1419 32.3 32.5719 32.42 32.9919 32.55C33.4219 32.68 33.8519 32.83 34.2819 33C34.6919 33.17 35.0569 33.36 35.3769 33.57C35.7069 33.78 35.9819 34.025 36.2019 34.305C36.4319 34.585 36.6019 34.905 36.7119 35.265C36.8319 35.625 36.8919 36.04 36.8919 36.51C36.8919 37.02 36.7969 37.5 36.6069 37.95C36.4169 38.4 36.1369 38.795 35.7669 39.135C35.4069 39.475 34.9569 39.745 34.4169 39.945C33.8769 40.145 33.2619 40.25 32.5719 40.26C31.7019 40.28 30.8369 40.2 29.9769 40.02C29.1169 39.84 28.3469 39.51 27.6669 39.03C27.2469 38.73 26.9719 38.38 26.8419 37.98C26.7119 37.57 26.7819 37.155 27.0519 36.735C27.3219 36.305 27.6419 36.055 28.0119 35.985C28.3919 35.915 28.8319 36.005 29.3319 36.255C29.4919 36.335 29.6819 36.425 29.9019 36.525C30.1219 36.625 30.3519 36.72 30.5919 36.81C30.8319 36.9 31.0719 36.975 31.3119 37.035C31.5519 37.095 31.7719 37.125 31.9719 37.125C32.1819 37.125 32.3819 37.095 32.5719 37.035C32.7619 36.975 32.8569 36.835 32.8569 36.615C32.8569 36.415 32.7769 36.27 32.6169 36.18C32.4569 36.09 32.2619 36.02 32.0319 35.97C31.7519 35.91 31.4319 35.83 31.0719 35.73C30.7219 35.63 30.3969 35.52 30.0969 35.4C29.0469 34.98 28.2669 34.465 27.7569 33.855C27.2569 33.245 27.0069 32.5 27.0069 31.62C27.0069 31.13 27.0919 30.66 27.2619 30.21C27.4419 29.76 27.7169 29.365 28.0869 29.025C28.4569 28.675 28.9169 28.4 29.4669 28.2C30.0269 27.99 30.6919 27.885 31.4619 27.885C32.4119 27.885 33.2569 28.015 33.9969 28.275C34.7469 28.535 35.3969 28.86 35.9469 29.25C36.3269 29.52 36.5769 29.84 36.6969 30.21C36.8169 30.58 36.7569 30.98 36.5169 31.41C36.2769 31.85 35.9469 32.105 35.5269 32.175C35.1069 32.245 34.6719 32.15 34.2219 31.89C34.0719 31.81 33.8969 31.72 33.6969 31.62C33.4969 31.52 33.2819 31.425 33.0519 31.335C32.8219 31.245 32.5869 31.17 32.3469 31.11C32.1169 31.05 31.8919 31.02 31.6719 31.02ZM46.437 37.665C46.617 38.035 46.672 38.375 46.602 38.685C46.542 38.985 46.382 39.235 46.122 39.435C45.692 39.755 45.217 39.97 44.697 40.08C44.177 40.2 43.622 40.26 43.032 40.26C41.942 40.26 41.082 39.985 40.452 39.435C39.822 38.895 39.472 38.115 39.402 37.095C39.372 36.625 39.352 36.12 39.342 35.58C39.332 35.03 39.332 34.48 39.342 33.93L38.997 33.9C38.407 33.85 37.962 33.725 37.662 33.525C37.362 33.325 37.212 32.985 37.212 32.505C37.212 32.045 37.337 31.695 37.587 31.455C37.837 31.215 38.292 31.07 38.952 31.02C39.032 31.01 39.112 31.005 39.192 31.005C39.282 30.995 39.367 30.99 39.447 30.99C39.467 30.79 39.477 30.61 39.477 30.45C39.487 30.28 39.502 30.14 39.522 30.03C39.582 29.49 39.757 29.06 40.047 28.74C40.347 28.42 40.772 28.26 41.322 28.26C41.872 28.26 42.282 28.42 42.552 28.74C42.832 29.06 42.987 29.49 43.017 30.03C43.027 30.14 43.032 30.27 43.032 30.42C43.032 30.57 43.037 30.74 43.047 30.93C43.267 30.95 43.482 30.965 43.692 30.975C43.912 30.985 44.137 31 44.367 31.02C44.637 31.04 44.877 31.08 45.087 31.14C45.307 31.19 45.487 31.275 45.627 31.395C45.777 31.505 45.892 31.65 45.972 31.83C46.052 32.01 46.092 32.235 46.092 32.505C46.092 32.985 45.932 33.33 45.612 33.54C45.292 33.74 44.862 33.86 44.322 33.9C44.102 33.92 43.882 33.935 43.662 33.945C43.452 33.955 43.247 33.965 43.047 33.975C43.037 34.575 43.027 35.125 43.017 35.625C43.017 36.115 43.012 36.465 43.002 36.675C42.992 36.905 43.072 37.075 43.242 37.185C43.412 37.295 43.597 37.35 43.797 37.35C43.997 37.35 44.187 37.32 44.367 37.26C44.547 37.19 44.737 37.1 44.937 36.99C45.047 36.93 45.167 36.9 45.297 36.9C45.437 36.9 45.577 36.93 45.717 36.99C45.857 37.04 45.987 37.12 46.107 37.23C46.237 37.34 46.347 37.485 46.437 37.665ZM51.366 40.26C50.646 40.26 49.986 40.145 49.386 39.915C48.786 39.695 48.266 39.375 47.826 38.955C47.386 38.535 47.041 38.03 46.791 37.44C46.551 36.84 46.431 36.17 46.431 35.43C46.431 34.7 46.551 34.04 46.791 33.45C47.041 32.85 47.386 32.34 47.826 31.92C48.266 31.5 48.786 31.175 49.386 30.945C49.986 30.715 50.646 30.6 51.366 30.6C52.086 30.6 52.746 30.715 53.346 30.945C53.946 31.175 54.466 31.5 54.906 31.92C55.346 32.34 55.686 32.85 55.926 33.45C56.176 34.04 56.301 34.7 56.301 35.43C56.301 36.17 56.176 36.84 55.926 37.44C55.686 38.03 55.346 38.535 54.906 38.955C54.466 39.375 53.946 39.695 53.346 39.915C52.746 40.145 52.086 40.26 51.366 40.26ZM51.366 37.08C51.826 37.08 52.191 36.925 52.461 36.615C52.741 36.295 52.881 35.9 52.881 35.43C52.881 34.96 52.741 34.57 52.461 34.26C52.191 33.94 51.826 33.78 51.366 33.78C50.896 33.78 50.526 33.94 50.256 34.26C49.986 34.57 49.851 34.96 49.851 35.43C49.851 35.9 49.986 36.295 50.256 36.615C50.526 36.925 50.896 37.08 51.366 37.08ZM63.1326 30.6C63.7326 30.6 64.1526 30.785 64.3926 31.155C64.6326 31.515 64.6676 32.015 64.4976 32.655C64.4276 32.915 64.3326 33.15 64.2126 33.36C64.1026 33.56 63.9676 33.725 63.8076 33.855C63.6576 33.985 63.4876 34.065 63.2976 34.095C63.1176 34.125 62.9226 34.1 62.7126 34.02C62.5226 33.94 62.3476 33.88 62.1876 33.84C62.0376 33.8 61.8626 33.78 61.6626 33.78C61.4526 33.78 61.2826 33.83 61.1526 33.93C61.0226 34.03 60.9026 34.195 60.7926 34.425C60.8026 35.115 60.7876 35.81 60.7476 36.51C60.7176 37.2 60.6676 37.86 60.5976 38.49C60.5376 39.03 60.3576 39.46 60.0576 39.78C59.7576 40.1 59.3326 40.26 58.7826 40.26C58.2326 40.26 57.8126 40.1 57.5226 39.78C57.2326 39.46 57.0576 39.03 56.9976 38.49C56.9476 38 56.9076 37.49 56.8776 36.96C56.8576 36.42 56.8476 35.875 56.8476 35.325C56.8476 34.775 56.8626 34.235 56.8926 33.705C56.9226 33.175 56.9676 32.67 57.0276 32.19C57.0576 31.9 57.1276 31.655 57.2376 31.455C57.3576 31.245 57.4976 31.08 57.6576 30.96C57.8276 30.83 58.0126 30.74 58.2126 30.69C58.4126 30.63 58.6176 30.6 58.8276 30.6C59.0376 30.6 59.2426 30.63 59.4426 30.69C59.6426 30.74 59.8276 30.83 59.9976 30.96C60.1676 31.08 60.3126 31.245 60.4326 31.455C60.5526 31.655 60.6276 31.9 60.6576 32.19C60.6576 32.23 60.6626 32.26 60.6726 32.28C60.7426 32.11 60.8426 31.925 60.9726 31.725C61.1026 31.525 61.2676 31.345 61.4676 31.185C61.6676 31.015 61.9026 30.875 62.1726 30.765C62.4526 30.655 62.7726 30.6 63.1326 30.6ZM73.7201 30.72C74.1501 30.88 74.4501 31.135 74.6201 31.485C74.7901 31.825 74.7951 32.28 74.6351 32.85C74.5351 33.21 74.3801 33.66 74.1701 34.2C73.9601 34.73 73.7151 35.305 73.4351 35.925C73.1651 36.535 72.8701 37.17 72.5501 37.83C72.2301 38.48 71.9101 39.105 71.5901 39.705C71.2801 40.305 70.9801 40.855 70.6901 41.355C70.4001 41.855 70.1451 42.255 69.9251 42.555C69.7551 42.785 69.5701 42.985 69.3701 43.155C69.1801 43.335 68.9751 43.47 68.7551 43.56C68.5351 43.66 68.3051 43.71 68.0651 43.71C67.8251 43.71 67.5801 43.65 67.3301 43.53C66.9001 43.32 66.6501 43.025 66.5801 42.645C66.5201 42.265 66.5751 41.8 66.7451 41.25C66.7851 41.13 66.8351 40.98 66.8951 40.8C66.9651 40.63 67.0451 40.435 67.1351 40.215C67.2251 40.005 67.3251 39.775 67.4351 39.525C67.5451 39.285 67.6551 39.045 67.7651 38.805C67.6151 38.665 67.4401 38.46 67.2401 38.19C67.0501 37.92 66.8501 37.615 66.6401 37.275C66.4401 36.925 66.2351 36.555 66.0251 36.165C65.8151 35.765 65.6201 35.37 65.4401 34.98C65.2601 34.59 65.1001 34.22 64.9601 33.87C64.8201 33.51 64.7151 33.195 64.6451 32.925C64.4951 32.355 64.5051 31.895 64.6751 31.545C64.8451 31.185 65.1201 30.925 65.5001 30.765C65.6901 30.685 65.8851 30.635 66.0851 30.615C66.2951 30.585 66.5001 30.595 66.7001 30.645C66.9001 30.685 67.0901 30.775 67.2701 30.915C67.4601 31.055 67.6301 31.25 67.7801 31.5C67.9301 31.75 68.0851 32.035 68.2451 32.355C68.4151 32.675 68.5801 33.01 68.7401 33.36C68.9101 33.71 69.0701 34.07 69.2201 34.44C69.3701 34.81 69.5101 35.165 69.6401 35.505C69.7301 35.265 69.8551 34.96 70.0151 34.59C70.1851 34.22 70.3601 33.84 70.5401 33.45C70.7301 33.06 70.9151 32.695 71.0951 32.355C71.2751 32.005 71.4251 31.74 71.5451 31.56C71.8651 31.08 72.2101 30.785 72.5801 30.675C72.9501 30.565 73.3301 30.58 73.7201 30.72ZM30.5666 47.565C30.6066 47.275 30.6866 47.035 30.8066 46.845C30.9266 46.645 31.0716 46.49 31.2416 46.38C31.4116 46.26 31.5966 46.17 31.7966 46.11C32.0066 46.05 32.2166 46.01 32.4266 45.99C32.9066 45.94 33.4366 45.91 34.0166 45.9C34.6066 45.88 35.3016 45.895 36.1016 45.945C36.6416 45.985 37.1516 46.08 37.6316 46.23C38.1216 46.38 38.5466 46.59 38.9066 46.86C39.2766 47.13 39.5666 47.46 39.7766 47.85C39.9966 48.24 40.1066 48.695 40.1066 49.215C40.1066 49.615 40.0466 49.97 39.9266 50.28C39.8066 50.59 39.6516 50.855 39.4616 51.075C39.2716 51.295 39.0566 51.475 38.8166 51.615C38.5866 51.755 38.3566 51.85 38.1266 51.9V51.93C38.4666 52.03 38.7766 52.17 39.0566 52.35C39.3466 52.53 39.5966 52.75 39.8066 53.01C40.0166 53.26 40.1766 53.555 40.2866 53.895C40.4066 54.225 40.4666 54.6 40.4666 55.02C40.4666 55.61 40.3466 56.105 40.1066 56.505C39.8766 56.905 39.5566 57.23 39.1466 57.48C38.7466 57.73 38.2766 57.915 37.7366 58.035C37.1966 58.155 36.6166 58.225 35.9966 58.245C35.3466 58.265 34.7516 58.265 34.2116 58.245C33.6716 58.235 33.0766 58.195 32.4266 58.125C31.9066 58.075 31.4866 57.93 31.1666 57.69C30.8566 57.46 30.6616 57.075 30.5816 56.535C30.5316 56.245 30.4916 55.87 30.4616 55.41C30.4316 54.95 30.4066 54.45 30.3866 53.91C30.3766 53.37 30.3666 52.805 30.3566 52.215C30.3566 51.625 30.3616 51.05 30.3716 50.49C30.3916 49.92 30.4166 49.385 30.4466 48.885C30.4766 48.375 30.5166 47.935 30.5666 47.565ZM34.1066 48.945C34.1266 49.175 34.1416 49.45 34.1516 49.77C34.1616 50.09 34.1666 50.385 34.1666 50.655C34.2266 50.665 34.3116 50.675 34.4216 50.685C34.5316 50.685 34.6516 50.685 34.7816 50.685C34.9116 50.685 35.0416 50.685 35.1716 50.685C35.3116 50.685 35.4266 50.675 35.5166 50.655C35.7166 50.625 35.9016 50.54 36.0716 50.4C36.2516 50.25 36.3416 50.05 36.3416 49.8C36.3416 49.55 36.2516 49.355 36.0716 49.215C35.9016 49.065 35.7166 48.975 35.5166 48.945C35.4166 48.935 35.2966 48.93 35.1566 48.93C35.0266 48.92 34.8916 48.915 34.7516 48.915C34.6216 48.915 34.4966 48.92 34.3766 48.93C34.2566 48.93 34.1666 48.935 34.1066 48.945ZM34.0916 55.17C34.1716 55.18 34.2816 55.19 34.4216 55.2C34.5616 55.2 34.7066 55.2 34.8566 55.2C35.0166 55.2 35.1766 55.2 35.3366 55.2C35.4966 55.19 35.6366 55.18 35.7566 55.17C36.0666 55.14 36.3116 55.04 36.4916 54.87C36.6716 54.69 36.7616 54.475 36.7616 54.225C36.7616 53.975 36.6716 53.765 36.4916 53.595C36.3116 53.425 36.0666 53.325 35.7566 53.295C35.6466 53.285 35.5116 53.28 35.3516 53.28C35.2016 53.27 35.0516 53.265 34.9016 53.265C34.7516 53.265 34.6066 53.27 34.4666 53.28C34.3366 53.28 34.2366 53.285 34.1666 53.295C34.1566 53.585 34.1466 53.91 34.1366 54.27C34.1266 54.62 34.1116 54.92 34.0916 55.17ZM45.8738 58.26C45.1538 58.26 44.4938 58.145 43.8938 57.915C43.2938 57.695 42.7738 57.375 42.3338 56.955C41.8938 56.535 41.5488 56.03 41.2988 55.44C41.0588 54.84 40.9388 54.17 40.9388 53.43C40.9388 52.7 41.0588 52.04 41.2988 51.45C41.5488 50.85 41.8938 50.34 42.3338 49.92C42.7738 49.5 43.2938 49.175 43.8938 48.945C44.4938 48.715 45.1538 48.6 45.8738 48.6C46.5938 48.6 47.2538 48.715 47.8538 48.945C48.4538 49.175 48.9738 49.5 49.4138 49.92C49.8538 50.34 50.1938 50.85 50.4338 51.45C50.6838 52.04 50.8088 52.7 50.8088 53.43C50.8088 54.17 50.6838 54.84 50.4338 55.44C50.1938 56.03 49.8538 56.535 49.4138 56.955C48.9738 57.375 48.4538 57.695 47.8538 57.915C47.2538 58.145 46.5938 58.26 45.8738 58.26ZM45.8738 55.08C46.3338 55.08 46.6988 54.925 46.9688 54.615C47.2488 54.295 47.3888 53.9 47.3888 53.43C47.3888 52.96 47.2488 52.57 46.9688 52.26C46.6988 51.94 46.3338 51.78 45.8738 51.78C45.4038 51.78 45.0338 51.94 44.7638 52.26C44.4938 52.57 44.3588 52.96 44.3588 53.43C44.3588 53.9 44.4938 54.295 44.7638 54.615C45.0338 54.925 45.4038 55.08 45.8738 55.08ZM56.1404 58.26C55.4204 58.26 54.7604 58.145 54.1604 57.915C53.5604 57.695 53.0404 57.375 52.6004 56.955C52.1604 56.535 51.8154 56.03 51.5654 55.44C51.3254 54.84 51.2054 54.17 51.2054 53.43C51.2054 52.7 51.3254 52.04 51.5654 51.45C51.8154 50.85 52.1604 50.34 52.6004 49.92C53.0404 49.5 53.5604 49.175 54.1604 48.945C54.7604 48.715 55.4204 48.6 56.1404 48.6C56.8604 48.6 57.5204 48.715 58.1204 48.945C58.7204 49.175 59.2404 49.5 59.6804 49.92C60.1204 50.34 60.4604 50.85 60.7004 51.45C60.9504 52.04 61.0754 52.7 61.0754 53.43C61.0754 54.17 60.9504 54.84 60.7004 55.44C60.4604 56.03 60.1204 56.535 59.6804 56.955C59.2404 57.375 58.7204 57.695 58.1204 57.915C57.5204 58.145 56.8604 58.26 56.1404 58.26ZM56.1404 55.08C56.6004 55.08 56.9654 54.925 57.2354 54.615C57.5154 54.295 57.6554 53.9 57.6554 53.43C57.6554 52.96 57.5154 52.57 57.2354 52.26C56.9654 51.94 56.6004 51.78 56.1404 51.78C55.6704 51.78 55.3004 51.94 55.0304 52.26C54.7604 52.57 54.6254 52.96 54.6254 53.43C54.6254 53.9 54.7604 54.295 55.0304 54.615C55.3004 54.925 55.6704 55.08 56.1404 55.08ZM70.757 55.59C70.847 55.78 70.922 55.975 70.982 56.175C71.052 56.375 71.082 56.575 71.072 56.775C71.072 56.965 71.022 57.15 70.922 57.33C70.832 57.52 70.682 57.695 70.472 57.855C70.042 58.185 69.612 58.32 69.182 58.26C68.762 58.21 68.357 57.975 67.967 57.555C67.617 57.175 67.272 56.715 66.932 56.175C66.602 55.635 66.292 55.065 66.002 54.465L65.432 54.735C65.412 55.065 65.387 55.38 65.357 55.68C65.337 55.97 65.312 56.24 65.282 56.49C65.212 57.03 65.037 57.46 64.757 57.78C64.487 58.1 64.077 58.26 63.527 58.26C62.977 58.26 62.572 58.1 62.312 57.78C62.062 57.46 61.902 57.03 61.832 56.49C61.782 56.09 61.742 55.625 61.712 55.095C61.682 54.555 61.657 53.985 61.637 53.385C61.627 52.785 61.622 52.17 61.622 51.54C61.632 50.91 61.642 50.3 61.652 49.71C61.672 49.12 61.697 48.57 61.727 48.06C61.767 47.54 61.812 47.095 61.862 46.725C61.942 46.135 62.142 45.725 62.462 45.495C62.782 45.255 63.152 45.135 63.572 45.135C63.782 45.135 63.982 45.165 64.172 45.225C64.372 45.275 64.552 45.365 64.712 45.495C64.872 45.615 65.007 45.78 65.117 45.99C65.227 46.19 65.302 46.435 65.342 46.725C65.412 47.245 65.462 47.895 65.492 48.675C65.522 49.455 65.537 50.285 65.537 51.165C65.847 50.845 66.152 50.545 66.452 50.265C66.762 49.975 67.092 49.695 67.442 49.425C67.672 49.245 67.907 49.09 68.147 48.96C68.387 48.82 68.632 48.72 68.882 48.66C69.132 48.6 69.377 48.59 69.617 48.63C69.857 48.67 70.092 48.785 70.322 48.975C70.542 49.155 70.702 49.35 70.802 49.56C70.902 49.76 70.952 49.965 70.952 50.175C70.952 50.375 70.907 50.575 70.817 50.775C70.727 50.975 70.607 51.16 70.457 51.33C70.227 51.59 69.962 51.85 69.662 52.11C69.362 52.36 69.047 52.605 68.717 52.845C69.177 53.325 69.582 53.805 69.932 54.285C70.282 54.755 70.557 55.19 70.757 55.59Z" fill="white"/>
</g>
<defs>
<filter id="filter0_d_2851_13806" x="0" y="0" width="100" height="90" filterUnits="userSpaceOnUse" color-interpolation-filters="sRGB">
<feFlood flood-opacity="0" result="BackgroundImageFix"/>
<feColorMatrix in="SourceAlpha" type="matrix" values="0 0 0 0 0 0 0 0 0 0 0 0 0 0 0 0 0 0 127 0" result="hardAlpha"/>
<feOffset dy="5"/>
<feGaussianBlur stdDeviation="5"/>
<feComposite in2="hardAlpha" operator="out"/>
<feColorMatrix type="matrix" values="0 0 0 0 0 0 0 0 0 0 0 0 0 0 0 0 0 0 0.1 0"/>
<feBlend mode="normal" in2="BackgroundImageFix" result="effect1_dropShadow_2851_13806"/>
<feBlend mode="normal" in="SourceGraphic" in2="effect1_dropShadow_2851_13806" result="shape"/>
</filter>
<filter id="filter1_ii_2851_13806" x="10" y="8" width="80" height="66" filterUnits="userSpaceOnUse" color-interpolation-filters="sRGB">
<feFlood flood-opacity="0" result="BackgroundImageFix"/>
<feBlend mode="normal" in="SourceGraphic" in2="BackgroundImageFix" result="shape"/>
<feColorMatrix in="SourceAlpha" type="matrix" values="0 0 0 0 0 0 0 0 0 0 0 0 0 0 0 0 0 0 127 0" result="hardAlpha"/>
<feOffset dy="3"/>
<feGaussianBlur stdDeviation="2.5"/>
<feComposite in2="hardAlpha" operator="arithmetic" k2="-1" k3="1"/>
<feColorMatrix type="matrix" values="0 0 0 0 1 0 0 0 0 1 0 0 0 0 1 0 0 0 0.5 0"/>
<feBlend mode="normal" in2="shape" result="effect1_innerShadow_2851_13806"/>
<feColorMatrix in="SourceAlpha" type="matrix" values="0 0 0 0 0 0 0 0 0 0 0 0 0 0 0 0 0 0 127 0" result="hardAlpha"/>
<feOffset dy="-3"/>
<feGaussianBlur stdDeviation="2"/>
<feComposite in2="hardAlpha" operator="arithmetic" k2="-1" k3="1"/>
<feColorMatrix type="matrix" values="0 0 0 0 0.716667 0 0 0 0 0.158264 0 0 0 0 0.291355 0 0 0 0.44 0"/>
<feBlend mode="normal" in2="effect1_innerShadow_2851_13806" result="effect2_innerShadow_2851_13806"/>
</filter>
<filter id="filter2_d_2851_13806" x="24" y="5" width="7" height="18" filterUnits="userSpaceOnUse" color-interpolation-filters="sRGB">
<feFlood flood-opacity="0" result="BackgroundImageFix"/>
<feColorMatrix in="SourceAlpha" type="matrix" values="0 0 0 0 0 0 0 0 0 0 0 0 0 0 0 0 0 0 127 0" result="hardAlpha"/>
<feOffset dy="2"/>
<feGaussianBlur stdDeviation="1"/>
<feComposite in2="hardAlpha" operator="out"/>
<feColorMatrix type="matrix" values="0 0 0 0 0 0 0 0 0 0 0 0 0 0 0 0 0 0 0.1 0"/>
<feBlend mode="normal" in2="BackgroundImageFix" result="effect1_dropShadow_2851_13806"/>
<feBlend mode="normal" in="SourceGraphic" in2="effect1_dropShadow_2851_13806" result="shape"/>
</filter>
<filter id="filter3_d_2851_13806" x="39" y="5" width="7" height="18" filterUnits="userSpaceOnUse" color-interpolation-filters="sRGB">
<feFlood flood-opacity="0" result="BackgroundImageFix"/>
<feColorMatrix in="SourceAlpha" type="matrix" values="0 0 0 0 0 0 0 0 0 0 0 0 0 0 0 0 0 0 127 0" result="hardAlpha"/>
<feOffset dy="2"/>
<feGaussianBlur stdDeviation="1"/>
<feComposite in2="hardAlpha" operator="out"/>
<feColorMatrix type="matrix" values="0 0 0 0 0 0 0 0 0 0 0 0 0 0 0 0 0 0 0.1 0"/>
<feBlend mode="normal" in2="BackgroundImageFix" result="effect1_dropShadow_2851_13806"/>
<feBlend mode="normal" in="SourceGraphic" in2="effect1_dropShadow_2851_13806" result="shape"/>
</filter>
<filter id="filter4_d_2851_13806" x="54" y="5" width="7" height="18" filterUnits="userSpaceOnUse" color-interpolation-filters="sRGB">
<feFlood flood-opacity="0" result="BackgroundImageFix"/>
<feColorMatrix in="SourceAlpha" type="matrix" values="0 0 0 0 0 0 0 0 0 0 0 0 0 0 0 0 0 0 127 0" result="hardAlpha"/>
<feOffset dy="2"/>
<feGaussianBlur stdDeviation="1"/>
<feComposite in2="hardAlpha" operator="out"/>
<feColorMatrix type="matrix" values="0 0 0 0 0 0 0 0 0 0 0 0 0 0 0 0 0 0 0.1 0"/>
<feBlend mode="normal" in2="BackgroundImageFix" result="effect1_dropShadow_2851_13806"/>
<feBlend mode="normal" in="SourceGraphic" in2="effect1_dropShadow_2851_13806" result="shape"/>
</filter>
<filter id="filter5_d_2851_13806" x="69" y="5" width="7" height="18" filterUnits="userSpaceOnUse" color-interpolation-filters="sRGB">
<feFlood flood-opacity="0" result="BackgroundImageFix"/>
<feColorMatrix in="SourceAlpha" type="matrix" values="0 0 0 0 0 0 0 0 0 0 0 0 0 0 0 0 0 0 127 0" result="hardAlpha"/>
<feOffset dy="2"/>
<feGaussianBlur stdDeviation="1"/>
<feComposite in2="hardAlpha" operator="out"/>
<feColorMatrix type="matrix" values="0 0 0 0 0 0 0 0 0 0 0 0 0 0 0 0 0 0 0.1 0"/>
<feBlend mode="normal" in2="BackgroundImageFix" result="effect1_dropShadow_2851_13806"/>
<feBlend mode="normal" in="SourceGraphic" in2="effect1_dropShadow_2851_13806" result="shape"/>
</filter>
<linearGradient id="paint0_linear_2851_13806" x1="26" y1="12.7368" x2="29" y2="12.7368" gradientUnits="userSpaceOnUse">
<stop stop-color="#FFF9F8"/>
<stop offset="1" stop-color="#E9D0D0"/>
</linearGradient>
<linearGradient id="paint1_linear_2851_13806" x1="41" y1="12.7368" x2="44" y2="12.7368" gradientUnits="userSpaceOnUse">
<stop stop-color="#FFF9F8"/>
<stop offset="1" stop-color="#E9D0D0"/>
</linearGradient>
<linearGradient id="paint2_linear_2851_13806" x1="56" y1="12.7368" x2="59" y2="12.7368" gradientUnits="userSpaceOnUse">
<stop stop-color="#FFF9F8"/>
<stop offset="1" stop-color="#E9D0D0"/>
</linearGradient>
<linearGradient id="paint3_linear_2851_13806" x1="71" y1="12.7368" x2="74" y2="12.7368" gradientUnits="userSpaceOnUse">
<stop stop-color="#FFF9F8"/>
<stop offset="1" stop-color="#E9D0D0"/>
</linearGradient>
</defs>
</svg>
