<svg width="268" height="170" viewBox="0 0 268 170" fill="none" xmlns="http://www.w3.org/2000/svg">
<path d="M220.409 144.357C221.185 144.62 221.765 145.265 221.937 146.046L223.873 152.898C223.906 153.034 224.094 153.034 224.127 152.898L226.063 146.046C226.235 145.265 226.815 144.62 227.591 144.357L233 142.5L227.591 140.643C226.815 140.38 226.235 139.735 226.063 138.954L224.127 132.102C224.094 131.966 223.906 131.966 223.873 132.102L221.937 138.954C221.765 139.735 221.185 140.38 220.409 140.643L215 142.5L220.409 144.357Z" fill="white"/>
<path d="M261.005 106.061C261.436 106.211 261.759 106.58 261.854 107.026L262.93 110.942C262.948 111.019 263.052 111.019 263.07 110.942L264.146 107.026C264.241 106.58 264.564 106.211 264.995 106.061L268 105L264.995 103.939C264.564 103.789 264.241 103.42 264.146 102.974L263.07 99.0581C263.052 98.9806 262.948 98.9806 262.93 99.0581L261.854 102.974C261.759 103.42 261.436 103.789 261.005 103.939L258 105L261.005 106.061Z" fill="white"/>
<path d="M251.103 166.707C251.405 166.807 251.631 167.053 251.698 167.351L252.451 169.961C252.463 170.013 252.537 170.013 252.549 169.961L253.302 167.351C253.369 167.053 253.595 166.807 253.897 166.707L256 166L253.897 165.293C253.595 165.193 253.369 164.947 253.302 164.649L252.549 162.039C252.537 161.987 252.463 161.987 252.451 162.039L251.698 164.649C251.631 164.947 251.405 165.193 251.103 165.293L249 166L251.103 166.707Z" fill="white"/>
<path d="M25.5075 40.5913C26.1543 40.8167 26.6378 41.37 26.7808 42.0393L28.3945 47.9129C28.4217 48.029 28.5783 48.029 28.6055 47.9129L30.2192 42.0393C30.3622 41.37 30.8457 40.8167 31.4925 40.5913L36 39L31.4925 37.4087C30.8457 37.1833 30.3622 36.6301 30.2192 35.9607L28.6055 30.0871C28.5783 29.971 28.4217 29.971 28.3945 30.0871L26.7808 35.9607C26.6378 36.6301 26.1543 37.1833 25.5075 37.4087L21 39L25.5075 40.5913Z" fill="white"/>
<path d="M84.005 7.0609C84.4362 7.21116 84.7585 7.57997 84.8538 8.02618L85.9296 11.9419C85.9478 12.0194 86.0522 12.0194 86.0704 11.9419L87.1462 8.02618C87.2415 7.57997 87.5638 7.21116 87.995 7.0609L91 6L87.995 4.9391C87.5638 4.78884 87.2415 4.42003 87.1462 3.97382L86.0704 0.0580535C86.0522 -0.0193512 85.9478 -0.0193512 85.9296 0.0580535L84.8538 3.97382C84.7585 4.42003 84.4362 4.78884 84.005 4.9391L81 6L84.005 7.0609Z" fill="white"/>
<path d="M2.1035 19.7073C2.40536 19.8074 2.63096 20.0533 2.69769 20.3508L3.45075 22.9613C3.46346 23.0129 3.53654 23.0129 3.54925 22.9613L4.30232 20.3508C4.36904 20.0533 4.59464 19.8074 4.89651 19.7073L7 19L4.89651 18.2927C4.59464 18.1926 4.36904 17.9467 4.30232 17.6492L3.54925 15.0387C3.53654 14.9871 3.46346 14.9871 3.45075 15.0387L2.69769 17.6492C2.63096 17.9467 2.40536 18.1926 2.1035 18.2927L0 19L2.1035 19.7073Z" fill="white"/>
</svg>
