<svg width="30" height="30" viewBox="0 0 30 30" fill="none" xmlns="http://www.w3.org/2000/svg">
<path d="M22.1666 7.17733L5.71989 13.6289C5.71989 13.6289 4.94201 13.8956 5.00346 14.3872C5.0649 14.8787 5.69962 15.1042 5.69962 15.1042L9.83664 16.4971L19.7703 10.1881C19.7703 10.1881 20.3436 9.8397 20.3233 10.1881C20.3233 10.1881 20.4259 10.2495 20.1187 10.5365C19.8115 10.8234 12.3153 17.5614 12.3153 17.5614L12.3042 17.6535L14.8855 19.6707L19.0532 22.8658C20.1795 23.3574 20.5893 22.3331 20.5893 22.3331L23.5184 7.56688C23.5184 6.58378 22.1666 7.17794 22.1666 7.17794V7.17733Z" fill="white"/>
</svg>
