<svg width="30" height="30" viewBox="0 0 30 30" fill="none" xmlns="http://www.w3.org/2000/svg">
<path d="M22.9525 11.0737C22.9647 11.2512 22.9647 11.4288 22.9647 11.6079C22.9647 17.0673 18.8371 23.3636 11.2897 23.3636V23.3604C9.06013 23.3636 6.8769 22.7206 5 21.5081C5.32419 21.5474 5.65001 21.567 5.97664 21.5678C7.82429 21.5695 9.61913 20.9452 11.0727 19.7958C9.31688 19.7622 7.77717 18.6095 7.23928 16.9266C7.85436 17.046 8.48812 17.0215 9.09181 16.8554C7.17753 16.466 5.80033 14.7725 5.80033 12.8057C5.80033 12.7877 5.80033 12.7705 5.80033 12.7533C6.37071 13.0732 7.00934 13.2507 7.6626 13.2704C5.85964 12.0571 5.30388 9.64196 6.39265 7.75371C8.47593 10.3349 11.5497 11.9041 14.8493 12.0702C14.5186 10.6352 14.9703 9.13144 16.0364 8.12269C17.689 6.55842 20.2882 6.6386 21.8418 8.30186C22.7607 8.11942 23.6415 7.77989 24.4475 7.29883C24.1412 8.25523 23.5001 9.06763 22.6437 9.58387C23.457 9.48733 24.2517 9.26807 25 8.93346C24.4491 9.76468 23.7552 10.4887 22.9525 11.0737Z" fill="white"/>
</svg>
