<svg width="160" height="56" viewBox="0 0 160 56" fill="none" xmlns="http://www.w3.org/2000/svg">
<g clip-path="url(#clip0_1491_2343)">
<path d="M51.0182 34.938H46.7209C46.6383 34.938 46.5744 34.8704 46.5744 34.7915V17.4746C46.5707 15.4086 44.9705 14 43.051 14C41.1315 14 39.5312 15.4199 39.5312 17.4746V37.6877C39.5312 39.8927 41.293 41.6845 43.4867 41.737H51.0182C52.8326 41.7408 54.4929 40.1932 54.4929 38.3413C54.4929 36.4894 52.8438 34.9418 51.0182 34.9418V34.938Z" fill="white"/>
<path d="M67.8776 34.938H63.5803C63.4977 34.938 63.4338 34.8704 63.4338 34.7915V17.4746C63.4338 15.4086 61.8298 14 59.9103 14C57.9908 14 56.3906 15.4199 56.3906 17.4746V37.6877C56.3906 39.8927 58.1524 41.6845 60.3461 41.737H67.8776C69.6919 41.7408 71.3522 40.1932 71.3522 38.3413C71.3522 36.4894 69.7032 34.9418 67.8776 34.9418V34.938Z" fill="white"/>
<path d="M33.9649 31.407C35.7792 31.407 37.4395 29.8594 37.4395 28.0075C37.4395 26.1556 35.7905 24.608 33.9649 24.608H28.5256C28.443 24.608 28.3754 24.5404 28.3754 24.4577V21.2085C28.3754 21.1258 28.443 21.0582 28.5256 21.0582H33.9649C35.7792 21.0582 37.4395 19.5106 37.4395 17.6587C37.4395 15.8068 35.7905 14.2554 33.9649 14.2554H25.3891C23.1503 14.2554 21.3359 16.0698 21.3359 18.3086V37.6877C21.3359 39.9265 23.1503 41.7408 25.3891 41.7408H33.9649C35.7792 41.7408 37.4395 40.1932 37.4395 38.3413C37.4395 36.4894 35.7905 34.9418 33.9649 34.9418H28.5256C28.443 34.9418 28.3754 34.8742 28.3754 34.7915V31.5573C28.3754 31.4746 28.443 31.407 28.5256 31.407H33.9649Z" fill="white"/>
<path d="M120.356 14C113.914 14 109.891 19.3153 109.891 28C109.891 36.6847 113.914 42 120.352 42C126.791 42 130.814 36.7523 130.814 28C130.814 19.2477 126.794 14 120.356 14ZM120.356 34.9681C118.399 34.9681 117.433 32.5903 117.433 28C117.433 23.0453 118.384 21.0319 120.356 21.0319C122.328 21.0319 123.278 22.9589 123.278 28C123.278 32.5903 122.313 34.9681 120.356 34.9681Z" fill="white"/>
<path d="M159.346 38.2436L157.231 18.564V18.5565C157.002 16.2125 155.608 14.3756 152.9 14.0601C150.894 13.8272 148.377 14.2517 147.461 17.4033H147.446L145.741 25.6448C145.71 25.7988 145.489 25.7988 145.455 25.6448L143.757 17.4258V17.4145L143.75 17.3958C142.833 14.2442 140.316 13.8234 138.31 14.0563C135.606 14.3719 134.208 16.2087 133.983 18.5527L131.872 38.2324C131.707 40.2796 133.187 41.8235 135.099 41.9812C137.011 42.1352 138.724 40.8618 138.889 38.8033L139.835 27.8047C139.843 27.6319 140.091 27.6131 140.125 27.7859L142.146 38.9498L142.202 38.9348V38.9498H142.146C142.322 39.6673 143.077 41.9962 145.602 41.9962C148.126 41.9962 148.836 39.9828 149.039 38.9498H149.001V38.9386L149.039 38.9498L151.082 27.6807C151.112 27.5117 151.364 27.5267 151.371 27.6995L152.325 38.8071V38.8146C152.494 40.8693 154.204 42.1427 156.116 41.985C158.028 41.8272 159.508 40.2871 159.342 38.2436H159.346Z" fill="white"/>
<path d="M103.142 24.7507C102.744 24.6831 102.173 24.6042 101.35 24.6042C98.6717 24.5366 97.2142 26.1406 97.2142 27.9962C97.2142 29.8519 98.2059 31.7902 101.583 31.2868C101.354 34.168 100.246 34.9718 98.6417 34.9718C96.2038 34.9718 95.4375 32.594 95.4375 28.0038C95.4375 23.0491 96.3878 21.0357 98.3599 21.0357C99.0549 21.0357 99.6221 21.2836 100.069 21.8283C100.077 21.8395 100.084 21.8471 100.092 21.8546C100.152 21.9297 100.208 22.0048 100.261 22.0912C100.261 22.0912 100.268 22.0912 100.276 22.0912C101.444 23.5863 103.037 24.0783 104.761 23.5299C107.022 22.8124 107.54 20.8892 106.688 18.8495C105.268 16.1524 102.248 14 98.3637 14C91.9215 14 87.8984 19.3153 87.8984 28C87.8984 36.6847 91.9215 42 98.3599 42C103.427 42 106.68 39.4682 107.837 33.5632C107.867 33.4054 107.897 33.2439 107.927 33.0824C108.645 28.4846 106.834 25.3856 103.138 24.7545L103.142 24.7507Z" fill="white"/>
<path d="M16.2275 27.9962C18.0268 26.5651 19.2401 24.3976 19.2401 22.0086C19.2401 17.7827 15.4838 14.2554 11.3179 14.2554C11.3179 14.2554 11.3067 14.2554 11.3029 14.2554H3.69251V14.2742C1.62275 14.4583 0 16.1937 0 18.3086V37.6877C0 39.9265 1.81433 41.7408 4.05312 41.7408H11.3179C15.4575 41.7446 19.2364 38.2173 19.2364 33.9914C19.2364 31.5948 18.0268 29.4274 16.2238 27.9962H16.2275ZM10.4803 34.9305L10.454 34.938H7.19345C7.11081 34.938 7.04319 34.8704 7.04319 34.7878V31.5535C7.04319 31.4709 7.11081 31.4033 7.19345 31.4033H10.4014C11.3517 31.4033 12.212 32.2071 12.212 33.1688C12.212 34.1304 11.3968 34.8817 10.4803 34.9267V34.9305ZM10.4014 24.6042H7.18969C7.10705 24.6042 7.03943 24.5366 7.03943 24.4577V21.2085C7.03943 21.1258 7.10705 21.0582 7.18969 21.0582H10.3939C11.348 21.0582 12.2082 21.8658 12.2082 22.8312C12.2082 23.7966 11.3442 24.6005 10.3976 24.6042H10.4014Z" fill="white"/>
<path d="M85.7714 14.2855C83.9984 13.553 81.9775 14.2442 81.1924 16.1524L78.345 23.143C78.2962 23.2632 78.1272 23.2632 78.0783 23.143L75.231 16.1524C74.4422 14.2442 72.425 13.553 70.652 14.2855C68.879 15.018 67.9399 16.9412 68.725 18.842L74.7051 31.3995V38.5254C74.7051 40.5914 76.3053 42 78.2248 42C80.1443 42 81.7446 40.5801 81.7446 38.5254V31.3432L87.6984 18.842C88.4835 16.945 87.5444 15.018 85.7714 14.2855Z" fill="white"/>
</g>
<defs>
<clipPath id="clip0_1491_2343">
<rect width="159.36" height="28" fill="white" transform="translate(0 14)"/>
</clipPath>
</defs>
</svg>
