<svg width="360" height="462" viewBox="0 0 360 462" fill="none" xmlns="http://www.w3.org/2000/svg">
<mask id="mask0_2160_5633" style="mask-type:alpha" maskUnits="userSpaceOnUse" x="0" y="0" width="360" height="401">
<rect width="360" height="401" fill="url(#paint0_linear_2160_5633)"/>
<rect width="360" height="401" fill="url(#paint1_radial_2160_5633)"/>
</mask>
<g mask="url(#mask0_2160_5633)">
<path d="M258.092 310.273C128.591 353.276 118.593 240.857 -31.4067 213.773C-41.1444 212.015 -59.4981 211.535 -59.4981 211.535L-66.9981 519.772L525.593 519.773L525.593 166.273C375.595 149.769 350.752 279.504 258.092 310.273Z" fill="#4835C6"/>
<circle cx="329.981" cy="271.983" r="53.5" transform="rotate(-37.3169 329.981 271.983)" fill="#4835C6"/>
<circle cx="-13" cy="215" r="63" fill="#4835C6"/>
<circle cx="160.5" cy="327.5" r="66.5" fill="#4835C6"/>
<circle cx="255.5" cy="308.5" r="37.5" fill="#4835C6"/>
<circle cx="401.519" cy="203.518" r="65.2999" transform="rotate(-37.3169 401.519 203.518)" fill="#4835C6"/>
<circle cx="9.84702" cy="397.619" r="76.6908" fill="#4835C6"/>
<ellipse cx="53" cy="238.5" rx="14" ry="14.5" fill="#4835C6"/>
<ellipse cx="71" cy="255.5" rx="14" ry="14.5" fill="#4835C6"/>
<circle cx="92.5" cy="292.5" r="42.5" fill="#4835C6"/>
</g>
<rect y="401" width="360" height="61" fill="url(#paint2_linear_2160_5633)"/>
<circle cx="25.5" cy="136.5" r="8.5" fill="#4835C6"/>
<path d="M297.409 276.945C298.185 277.22 298.765 277.897 298.937 278.715L300.873 285.894C300.906 286.035 301.094 286.035 301.127 285.894L303.063 278.715C303.235 277.897 303.815 277.22 304.591 276.945L310 275L304.591 273.055C303.815 272.78 303.235 272.103 303.063 271.285L301.127 264.106C301.094 263.965 300.906 263.965 300.873 264.106L298.937 271.285C298.765 272.103 298.185 272.78 297.409 273.055L292 275L297.409 276.945V276.945Z" fill="white"/>
<path d="M285.606 48.2377C286.123 48.413 286.51 48.8433 286.625 49.3639L287.916 53.9323C287.937 54.0226 288.063 54.0226 288.084 53.9323L289.375 49.3639C289.49 48.8433 289.877 48.413 290.394 48.2377L294 47L290.394 45.7623C289.877 45.587 289.49 45.1567 289.375 44.6361L288.084 40.0677C288.063 39.9774 287.937 39.9774 287.916 40.0677L286.625 44.6361C286.51 45.1567 286.123 45.587 285.606 45.7623L282 47L285.606 48.2377V48.2377Z" fill="white"/>
<defs>
<linearGradient id="paint0_linear_2160_5633" x1="203.438" y1="51.8973" x2="109.177" y2="476.512" gradientUnits="userSpaceOnUse">
<stop stop-color="#4A2BCF"/>
<stop offset="1" stop-color="#FFADDE"/>
</linearGradient>
<radialGradient id="paint1_radial_2160_5633" cx="0" cy="0" r="1" gradientUnits="userSpaceOnUse" gradientTransform="translate(174.469 180.555) rotate(70.0924) scale(368.937 352.39)">
<stop stop-color="#198ED0"/>
<stop offset="1" stop-color="#2E33C0" stop-opacity="0"/>
</radialGradient>
<linearGradient id="paint2_linear_2160_5633" x1="180" y1="401" x2="180" y2="462" gradientUnits="userSpaceOnUse">
<stop stop-color="#4835C6"/>
<stop offset="1" stop-color="#4835C6" stop-opacity="0"/>
</linearGradient>
</defs>
</svg>
