<svg width="130" height="44" viewBox="0 0 130 44" fill="none" xmlns="http://www.w3.org/2000/svg">
<path fill-rule="evenodd" clip-rule="evenodd" d="M41.4386 22.0843C41.3986 25.4067 40.2238 28.2996 37.8901 30.6901C34.997 33.6559 32.1039 36.6218 29.1548 39.5228C26.2217 42.4076 22.6732 43.4611 18.6532 42.8209C15.7681 42.359 13.4743 40.8356 11.4683 38.7368C9.47351 36.6444 7.43464 34.5967 5.39386 32.5471L5.39328 32.5465C4.82605 31.9768 4.25867 31.407 3.69205 30.836C0.894827 28.0241 -0.319967 24.6125 0.0716441 20.6581C0.351367 17.7733 1.58215 15.2936 3.62811 13.2353C4.80231 12.0516 5.97226 10.8607 7.14273 9.66926C8.75264 8.0305 10.3635 6.39074 11.9878 4.76728C15.5523 1.20988 19.7801 0.180747 24.5593 1.63126C26.5813 2.24712 28.2357 3.50315 29.7142 5.02659C31.0928 6.45276 32.4894 7.8607 33.886 9.26864L33.8861 9.26875C35.2827 10.6767 36.6793 12.0847 38.058 13.5109C40.3357 15.869 41.4146 18.7457 41.4466 22.0843H41.4386ZM16.9909 17.3276C16.9909 17.1901 16.9882 17.0518 16.9855 16.9131V16.913C16.9802 16.6348 16.9749 16.3554 16.9909 16.0796C17.0948 14.6615 17.2706 13.2678 18.0538 12.036C18.8948 10.7081 20.6797 10.426 21.863 11.2443C22.1426 11.4432 22.3875 11.7044 22.5772 12.0285C23.0088 12.7578 23.3364 13.6087 23.4643 14.4433C23.9918 17.9197 23.6002 21.3312 22.4493 24.6293C22.1847 25.3949 21.8213 26.1298 21.4587 26.863L21.4587 26.863L21.4587 26.8631C21.2955 27.193 21.1325 27.5226 20.9788 27.8545C20.7024 28.4569 20.8322 29.0049 21.3062 29.3046C21.3866 29.3582 21.4774 29.4044 21.5783 29.4422C22.1138 29.6448 22.6013 29.3936 22.9849 28.6967C25.1827 24.726 25.9819 20.4231 25.8221 15.9176C25.7661 14.3374 25.4784 12.7897 24.7272 11.3716C24.183 10.3547 23.4793 9.61233 22.5992 9.16625C21.9097 8.81195 21.1113 8.63955 20.1956 8.65747C18.1736 8.69799 16.7829 9.68661 15.8958 11.4613C14.9687 13.3169 14.7689 15.3266 14.8169 17.3605C14.8968 20.4804 15.2804 23.5597 16.1516 26.566C16.8389 28.9403 17.758 31.2093 19.5402 32.9839C20.1146 33.5565 20.726 34.0288 21.387 34.3603C22.3602 34.8547 23.4412 35.046 24.6712 34.7985C25.6702 34.5959 26.5494 34.1341 27.3646 33.5344C28.8831 32.4161 30.0899 31.0061 31.0329 29.3692C31.3047 28.8992 31.1448 28.3644 30.7292 28.0403C30.6999 28.0179 30.6702 27.9971 30.64 27.9779C30.2292 27.7031 29.7418 27.7356 29.3625 28.0895C29.2186 28.2272 29.0987 28.4055 28.9868 28.5757C28.0837 29.9532 27.0208 31.1688 25.6382 32.0682C24.3753 32.8963 23.1339 32.9264 21.914 32.1378C21.8527 32.0976 21.7914 32.0553 21.7302 32.011C20.2756 30.9575 19.4924 29.4179 18.869 27.7972C17.5743 24.4424 17.1267 20.9174 17.0148 17.3438L16.9909 17.3276ZM15.848 32.5539C15.2326 32.5539 14.7531 33.0482 14.7451 33.6884C14.7451 33.6897 14.7451 33.6909 14.745 33.6922C14.745 33.6961 14.7449 33.7 14.7448 33.7039C14.7369 34.3359 15.2723 34.8708 15.8957 34.8545C16.5031 34.8383 17.0066 34.3197 17.0066 33.7039C17.0066 33.703 17.0066 33.7022 17.0066 33.7014C17.0067 33.697 17.0068 33.6927 17.0068 33.6884C17.0068 33.0401 16.5113 32.5458 15.848 32.5458V32.5539Z" fill="white"/>
<path d="M71.6463 8.09766C66.0518 8.09766 62.7031 11.5983 62.7031 15.9256C62.7031 20.2528 66.0518 23.7535 71.6463 23.7535C77.2407 23.7535 80.5974 20.2447 80.5974 15.9256C80.5974 11.6064 77.2407 8.09766 71.6463 8.09766ZM71.6463 22.076C68.9689 22.076 66.9229 19.3209 66.9229 15.9256C66.9229 12.5302 68.9609 9.77506 71.6463 9.77506C74.3316 9.77506 76.3696 12.5302 76.3696 15.9256C76.3696 19.3209 74.3316 22.076 71.6463 22.076Z" fill="white"/>
<path d="M96.7359 8.67383H81.3672V10.408H87.2494V23.1222H91.685V10.408H96.7359V8.67383Z" fill="white"/>
<path d="M113.58 8.67383H98.2031V10.408H103.246V23.1222H107.682V10.408H113.58V8.67383Z" fill="white"/>
<path d="M54.7243 21.38C54.2528 21.38 53.8771 20.9991 53.8771 20.5291V8.67383H49.6094V21.3962C49.6094 22.3443 50.3686 23.106 51.3037 23.106H62.1889V21.38H54.7163H54.7243Z" fill="white"/>
<path d="M120.388 10.368H128.58V8.6582H116.976C116.04 8.6582 115.281 9.42803 115.281 10.3761V21.3806C115.281 22.3287 116.04 23.0904 116.976 23.0904H128.58V21.3806H120.388C119.925 21.3806 119.549 20.9997 119.549 20.5297V16.2673H128.46V14.5737H119.549V11.2189C119.549 10.7408 119.925 10.3599 120.388 10.3599" fill="white"/>
<path d="M49.5859 26.0645H51.6239V29.322H54.3013V26.0645H56.3392V35.0106H54.3013V31.3236H51.6239V35.0106H49.5859V26.0645Z" fill="white"/>
<path d="M57.4736 30.4071C57.6175 29.9857 57.8253 29.6211 58.089 29.305C58.3527 28.989 58.6724 28.7459 59.04 28.5757C59.4077 28.4055 59.8073 28.3164 60.2389 28.3164C60.6704 28.3164 61.07 28.4055 61.4377 28.5757C61.8053 28.7459 62.125 28.989 62.3967 29.305C62.6684 29.6211 62.8762 29.9857 63.0201 30.4071C63.164 30.8285 63.2359 31.2823 63.2359 31.7685C63.2359 32.2547 63.164 32.7004 63.0201 33.1217C62.8762 33.5431 62.6684 33.9078 62.4047 34.2157C62.141 34.5317 61.8213 34.7748 61.4457 34.945C61.07 35.1152 60.6704 35.2043 60.2389 35.2043C59.8073 35.2043 59.4077 35.1152 59.04 34.945C58.6724 34.7748 58.3527 34.5317 58.089 34.2157C57.8253 33.8997 57.6175 33.535 57.4736 33.1217C57.3297 32.7004 57.2578 32.2547 57.2578 31.7685C57.2578 31.2823 57.3297 30.8285 57.4736 30.4071ZM59.1759 32.4167C59.2159 32.6274 59.2798 32.8138 59.3677 32.9921C59.4556 33.1704 59.5755 33.3081 59.7194 33.4135C59.8632 33.5188 60.0391 33.5674 60.2468 33.5674C60.4546 33.5674 60.6305 33.5188 60.7743 33.4135C60.9262 33.3081 61.0461 33.1704 61.126 32.9921C61.2139 32.8138 61.2778 32.6193 61.3178 32.4086C61.3577 32.1979 61.3817 31.9791 61.3817 31.7604C61.3817 31.5416 61.3577 31.3309 61.3178 31.1121C61.2778 30.9014 61.2139 30.6988 61.126 30.5205C61.0381 30.3423 60.9182 30.1964 60.7743 30.0911C60.6225 29.9857 60.4466 29.9371 60.2468 29.9371C60.047 29.9371 59.8712 29.9857 59.7194 30.0911C59.5755 30.1964 59.4556 30.3342 59.3677 30.5124C59.2798 30.6907 59.2159 30.8852 59.1759 31.0959C59.136 31.3066 59.112 31.5254 59.112 31.7523C59.112 31.9792 59.128 32.1979 59.1759 32.4005V32.4167Z" fill="white"/>
<path d="M64.1016 28.5106H65.9078V29.402H65.9317C66.1076 29.0697 66.3393 28.8023 66.6191 28.6159C66.9068 28.4215 67.2185 28.3242 67.5621 28.3242C67.9457 28.3242 68.2814 28.4053 68.5691 28.5673C68.8568 28.7294 69.0646 28.9968 69.2165 29.3777C69.672 28.6727 70.2635 28.3242 70.9907 28.3242C71.4223 28.3242 71.7739 28.4053 72.0377 28.5754C72.3094 28.7456 72.5092 28.9563 72.6451 29.2237C72.781 29.4911 72.8689 29.7828 72.9168 30.0908C72.9648 30.4068 72.9887 30.7471 72.9887 31.128V35.0095H71.1266V31.1847C71.1266 30.8363 71.0547 30.5608 70.9188 30.3663C70.7829 30.1718 70.5911 30.0746 70.3514 30.0746C69.9837 30.0746 69.752 30.2123 69.6401 30.4959C69.5282 30.7796 69.4722 31.2171 69.4722 31.833V35.0176H67.6101V31.3225C67.6101 30.9254 67.5541 30.6175 67.4422 30.3987C67.3304 30.188 67.1545 30.0827 66.9148 30.0827C66.5711 30.0827 66.3313 30.2123 66.1795 30.4797C66.0356 30.739 65.9637 31.2009 65.9637 31.8492V35.0176H64.1016V28.5106Z" fill="white"/>
<path d="M75.7059 32.2793C75.7219 32.7331 75.8418 33.0896 76.0576 33.357C76.2813 33.6244 76.585 33.7541 76.9686 33.7541C77.2004 33.7541 77.4162 33.6893 77.608 33.5677C77.7998 33.4462 77.9437 33.2679 78.0316 33.041H79.7739C79.614 33.7541 79.2704 34.2889 78.7509 34.6536C78.2314 35.0182 77.632 35.1965 76.9527 35.1965C76.0176 35.1965 75.2663 34.8886 74.6989 34.2727C74.1315 33.6568 73.8438 32.8141 73.8438 31.7363C73.8438 31.242 73.9237 30.7882 74.0835 30.3669C74.2433 29.9455 74.4671 29.5889 74.7469 29.2729C75.0266 28.965 75.3543 28.7219 75.7299 28.5598C76.1055 28.3896 76.4971 28.3086 76.9127 28.3086C77.3842 28.3086 77.8078 28.3977 78.1834 28.5841C78.5591 28.7705 78.8708 29.0298 79.1265 29.3701C79.3743 29.7105 79.5661 30.0994 79.6939 30.5451C79.8218 30.9908 79.8858 31.477 79.8858 32.0037C79.8858 32.0362 79.8858 32.0767 79.8778 32.1253V32.2631H75.7059V32.2793ZM78.0156 31.0881C77.9996 30.7153 77.8877 30.3993 77.6799 30.14C77.4721 29.8888 77.2164 29.7591 76.9047 29.7591C76.593 29.7591 76.3213 29.8807 76.1055 30.1238C75.8977 30.3669 75.7618 30.691 75.6979 31.0881H78.0076H78.0156Z" fill="white"/>
<path d="M82.1416 32.8699C82.1416 33.1779 82.2455 33.421 82.4453 33.5993C82.6211 33.7532 82.8529 33.8261 83.1326 33.8261C83.3484 33.8261 83.5482 33.7694 83.732 33.656C83.9158 33.5425 84.0038 33.3724 84.0038 33.1374C84.0038 32.9348 83.9318 32.7889 83.78 32.6998C83.6281 32.6106 83.4283 32.5296 83.1806 32.4729C83.1486 32.4648 83.1246 32.4567 83.0927 32.4486C82.9888 32.4162 82.8049 32.3675 82.5492 32.3108C82.1975 32.2298 81.9178 32.1487 81.694 32.0758C81.4783 32.0029 81.2705 31.8975 81.0787 31.7598C80.8868 31.622 80.735 31.4356 80.6231 31.2006C80.5112 30.9656 80.4553 30.6739 80.4553 30.3255C80.4553 29.977 80.5352 29.6448 80.687 29.3774C80.8469 29.1181 81.0467 28.9074 81.3024 28.7534C81.5582 28.5994 81.8379 28.4941 82.1416 28.4293C82.4453 28.3644 82.749 28.332 83.0447 28.332C83.3804 28.332 83.7001 28.3644 83.9958 28.4293C84.2915 28.4941 84.5712 28.6075 84.8189 28.7615C85.0667 28.9155 85.2665 29.1343 85.4184 29.4098C85.5702 29.6853 85.6501 30.0256 85.6661 30.4389H83.9478C83.9478 30.1796 83.8679 29.9932 83.708 29.8717C83.5642 29.7663 83.3644 29.7096 83.1166 29.7096C82.9009 29.7096 82.709 29.742 82.5572 29.8069C82.3974 29.8717 82.3254 30.0013 82.3254 30.2039C82.3254 30.3174 82.3654 30.4227 82.4533 30.5118C82.5412 30.601 82.6531 30.6739 82.797 30.7306C82.9408 30.7874 83.1007 30.8441 83.2845 30.8846C83.4683 30.9332 83.6681 30.9818 83.8999 31.0305C84.1316 31.071 84.3075 31.1115 84.4273 31.1439C84.6991 31.2006 84.9228 31.2979 85.1147 31.4356C85.3065 31.5734 85.4503 31.7274 85.5622 31.8894C85.6741 32.0596 85.746 32.2298 85.794 32.3999C85.8419 32.5782 85.8659 32.7403 85.8659 32.8861C85.8659 33.3075 85.786 33.6641 85.6341 33.9639C85.4743 34.2637 85.2665 34.5068 85.0108 34.6851C84.755 34.8634 84.4593 34.993 84.1396 35.0822C83.8199 35.1632 83.4843 35.2037 83.1406 35.2037C82.773 35.2037 82.4373 35.1632 82.1176 35.0903C81.7979 35.0173 81.5102 34.8877 81.2465 34.7094C80.9828 34.5311 80.775 34.288 80.6151 33.9801C80.4553 33.6722 80.3754 33.3075 80.3594 32.8699H82.1336H82.1416Z" fill="white"/>
<path d="M86.6721 26.0647H88.5342V29.3952H88.5582C88.694 29.0711 88.9338 28.8118 89.2615 28.6092C89.5972 28.4147 89.9328 28.3175 90.2845 28.3175C90.732 28.3175 91.0917 28.3985 91.3714 28.5606C91.6511 28.7227 91.8589 28.9334 91.9948 29.1846C92.1306 29.4358 92.2185 29.7032 92.2665 29.9706C92.3065 30.2461 92.3304 30.5297 92.3304 30.8296V35.0028H90.4683V31.8587C90.4683 31.2104 90.4123 30.7485 90.3005 30.473C90.1886 30.2056 89.9328 30.0678 89.5332 30.0678C89.2055 30.0678 88.9578 30.2056 88.782 30.4649C88.6141 30.7323 88.5262 31.0646 88.5262 31.4535V35.0028H86.6641V26.0566L86.6721 26.0647Z" fill="white"/>
<path d="M93.4033 30.4071C93.5471 29.9857 93.7549 29.6211 94.0187 29.305C94.2824 28.989 94.6021 28.7459 94.9697 28.5757C95.3374 28.4055 95.737 28.3164 96.1685 28.3164C96.6001 28.3164 96.9997 28.4055 97.3674 28.5757C97.735 28.7459 98.0547 28.989 98.3264 29.305C98.5981 29.6211 98.8059 29.9857 98.9498 30.4071C99.0936 30.8285 99.1656 31.2823 99.1656 31.7685C99.1656 32.2547 99.0936 32.7004 98.9498 33.1217C98.8059 33.5431 98.5981 33.9078 98.3344 34.2157C98.0707 34.5317 97.751 34.7748 97.3753 34.945C96.9997 35.1152 96.6001 35.2043 96.1685 35.2043C95.737 35.2043 95.3374 35.1152 94.9697 34.945C94.6021 34.7748 94.2824 34.5317 94.0187 34.2157C93.7549 33.8997 93.5471 33.535 93.4033 33.1217C93.2594 32.7004 93.1875 32.2547 93.1875 31.7685C93.1875 31.2823 93.2594 30.8285 93.4033 30.4071ZM95.1056 32.4167C95.1456 32.6274 95.2095 32.8138 95.2974 32.9921C95.3853 33.1704 95.5052 33.3081 95.6491 33.4135C95.7929 33.5188 95.9687 33.5674 96.1765 33.5674C96.3843 33.5674 96.5602 33.5188 96.704 33.4135C96.8559 33.3081 96.9757 33.1704 97.0637 32.9921C97.1516 32.8138 97.2155 32.6193 97.2555 32.4086C97.2954 32.1979 97.3194 31.9791 97.3194 31.7604C97.3194 31.5416 97.2954 31.3309 97.2555 31.1121C97.2155 30.9014 97.1516 30.6988 97.0637 30.5205C96.9757 30.3423 96.8559 30.1964 96.704 30.0911C96.5522 29.9857 96.3763 29.9371 96.1765 29.9371C95.9767 29.9371 95.8009 29.9857 95.6491 30.0911C95.5052 30.1964 95.3853 30.3342 95.2974 30.5124C95.2095 30.6907 95.1456 30.8852 95.1056 31.0959C95.0656 31.3066 95.0417 31.5254 95.0417 31.7523C95.0417 31.9792 95.0656 32.1979 95.1056 32.4005V32.4167Z" fill="white"/>
<path d="M100.031 28.5106H101.805V29.2642H101.829C102.205 28.6403 102.725 28.3242 103.396 28.3242C103.827 28.3242 104.203 28.4215 104.531 28.6159C104.858 28.8104 105.122 29.0697 105.33 29.4101C105.538 29.7504 105.69 30.1313 105.786 30.5608C105.881 30.9902 105.929 31.444 105.929 31.9059C105.929 32.3354 105.881 32.7406 105.778 33.1376C105.674 33.5347 105.522 33.8913 105.322 34.1992C105.122 34.5071 104.866 34.7502 104.571 34.9285C104.267 35.1068 103.923 35.1959 103.54 35.1959C102.844 35.1959 102.309 34.8961 101.917 34.3045H101.893V37.1894H100.031V28.5025V28.5106ZM102.557 30.0421C102.429 30.0989 102.309 30.1961 102.197 30.3339C102.085 30.4635 101.997 30.6499 101.925 30.8768C101.853 31.1037 101.821 31.3792 101.821 31.6952C101.821 32.2949 101.909 32.7568 102.085 33.089C102.261 33.4132 102.549 33.5752 102.948 33.5752C103.148 33.5752 103.316 33.5185 103.46 33.4132C103.604 33.3078 103.724 33.162 103.811 32.9837C103.899 32.8054 103.963 32.6028 104.003 32.384C104.043 32.1652 104.067 31.9383 104.067 31.7033C104.067 31.4845 104.043 31.2739 104.003 31.0713C103.963 30.8687 103.899 30.6823 103.811 30.5121C103.724 30.342 103.612 30.2123 103.468 30.1151C103.324 30.0178 103.156 29.9611 102.956 29.9611C102.82 29.9611 102.685 29.9935 102.549 30.0502L102.557 30.0421Z" fill="white"/>
<path d="M106.812 28.5106H108.587V29.2642H108.611C108.986 28.6403 109.506 28.3242 110.177 28.3242C110.609 28.3242 110.984 28.4215 111.312 28.6159C111.64 28.8104 111.903 29.0697 112.111 29.4101C112.319 29.7504 112.471 30.1313 112.575 30.5608C112.671 30.9902 112.719 31.444 112.719 31.9059C112.719 32.3354 112.671 32.7406 112.567 33.1376C112.463 33.5347 112.311 33.8913 112.111 34.1992C111.911 34.5071 111.656 34.7502 111.36 34.9285C111.056 35.1068 110.713 35.1959 110.329 35.1959C109.634 35.1959 109.098 34.8961 108.707 34.3045H108.683V37.1894H106.82V28.5025L106.812 28.5106ZM109.338 30.0421C109.21 30.0989 109.09 30.1961 108.978 30.3339C108.866 30.4635 108.779 30.6499 108.707 30.8768C108.635 31.1037 108.603 31.3792 108.603 31.6952C108.603 32.2949 108.691 32.7568 108.866 33.089C109.042 33.4132 109.33 33.5752 109.73 33.5752C109.929 33.5752 110.097 33.5185 110.241 33.4132C110.385 33.3078 110.505 33.162 110.593 32.9837C110.681 32.8054 110.745 32.6028 110.785 32.384C110.825 32.1652 110.848 31.9383 110.848 31.7033C110.848 31.4845 110.825 31.2739 110.785 31.0713C110.745 30.8687 110.681 30.6823 110.593 30.5121C110.505 30.342 110.393 30.2123 110.249 30.1151C110.105 30.0178 109.937 29.9611 109.738 29.9611C109.602 29.9611 109.466 29.9935 109.33 30.0502L109.338 30.0421Z" fill="white"/>
<path d="M115.518 27.6932H113.656V26.0645H115.518V27.6932ZM113.656 28.5117H115.518V35.0187H113.656V28.5117Z" fill="white"/>
<path d="M116.727 28.5106H118.533V29.402H118.557C118.725 29.0778 118.973 28.8185 119.308 28.6159C119.644 28.4215 119.988 28.3242 120.339 28.3242C120.787 28.3242 121.146 28.4053 121.426 28.5673C121.706 28.7294 121.914 28.9401 122.049 29.1913C122.185 29.4425 122.273 29.7099 122.321 29.9773C122.361 30.2528 122.385 30.5364 122.385 30.8363V35.0095H120.523V31.8654C120.523 31.2171 120.467 30.7552 120.355 30.4797C120.243 30.2123 119.988 30.0746 119.588 30.0746C119.26 30.0746 119.012 30.2123 118.837 30.4716C118.669 30.739 118.581 31.0713 118.581 31.4602V35.0095H116.719V28.5025L116.727 28.5106Z" fill="white"/>
<path d="M128.998 34.2235C128.998 34.572 128.974 34.9123 128.918 35.2445C128.862 35.5768 128.742 35.8928 128.551 36.2088C128.359 36.5249 128.071 36.7842 127.679 36.9868C127.288 37.1894 126.784 37.2947 126.161 37.2947C125.793 37.2947 125.466 37.2623 125.162 37.2056C124.858 37.1488 124.578 37.0435 124.331 36.8895C124.083 36.7356 123.867 36.5249 123.699 36.2494C123.532 35.9738 123.42 35.6254 123.372 35.2121H125.234C125.274 35.4876 125.386 35.674 125.554 35.7794C125.705 35.8685 125.929 35.9171 126.233 35.9171C126.441 35.9171 126.616 35.8766 126.744 35.7956C126.872 35.7145 126.976 35.6092 127.04 35.4714C127.104 35.3337 127.152 35.1797 127.168 35.0095C127.192 34.8394 127.2 34.6368 127.2 34.4018V33.7859H127.176C127.008 34.0857 126.792 34.3207 126.521 34.4909C126.249 34.6611 125.969 34.7421 125.665 34.7421C124.842 34.7421 124.219 34.4423 123.803 33.8507C123.388 33.2592 123.172 32.4732 123.172 31.5089C123.172 31.0713 123.228 30.6661 123.34 30.2771C123.452 29.8963 123.611 29.5559 123.827 29.2561C124.043 28.9563 124.307 28.7294 124.618 28.5673C124.93 28.4053 125.282 28.3242 125.665 28.3242C126.353 28.3242 126.856 28.6565 127.184 29.329H127.208V28.5106H128.99V34.2235H128.998ZM126.968 30.423C126.792 30.107 126.505 29.953 126.121 29.953C125.737 29.953 125.466 30.107 125.298 30.423C125.13 30.739 125.042 31.1199 125.042 31.5818C125.042 32.0113 125.13 32.3678 125.314 32.6676C125.49 32.9675 125.761 33.1133 126.121 33.1133C126.481 33.1133 126.776 32.9675 126.96 32.6839C127.152 32.3921 127.248 32.0356 127.248 31.598C127.248 31.128 127.16 30.739 126.976 30.423H126.968Z" fill="white"/>
</svg>
