<svg width="360" height="609" viewBox="0 0 360 609" fill="none" xmlns="http://www.w3.org/2000/svg">
<path d="M305.765 159.594C307.022 160.033 307.962 161.108 308.24 162.41L311.378 173.831C311.431 174.056 311.736 174.056 311.789 173.831L314.926 162.41C315.204 161.108 316.144 160.033 317.402 159.594L326.167 156.5L317.402 153.406C316.144 152.967 315.204 151.892 314.926 150.59L311.789 139.169C311.736 138.944 311.431 138.944 311.378 139.169L308.24 150.59C307.962 151.892 307.022 152.967 305.765 153.406L297 156.5L305.765 159.594Z" fill="#D781FF"/>
<path d="M126.26 243.71C127.159 244.023 127.83 244.792 128.029 245.721L130.27 253.879C130.308 254.04 130.525 254.04 130.563 253.879L132.805 245.721C133.003 244.792 133.675 244.023 134.573 243.71L140.833 241.5L134.573 239.29C133.675 238.977 133.003 238.208 132.805 237.279L130.563 229.121C130.525 228.96 130.308 228.96 130.27 229.121L128.029 237.279C127.83 238.208 127.159 238.977 126.26 239.29L120 241.5L126.26 243.71Z" fill="#D781FF"/>
<path d="M65.2604 129.71C66.1588 130.023 66.8302 130.792 67.0288 131.721L69.2701 139.879C69.3079 140.04 69.5254 140.04 69.5633 139.879L71.8045 131.721C72.0031 130.792 72.6745 130.023 73.5729 129.71L79.8333 127.5L73.5729 125.29C72.6745 124.977 72.0031 124.208 71.8045 123.279L69.5633 115.121C69.5254 114.96 69.3079 114.96 69.2701 115.121L67.0288 123.279C66.8302 124.208 66.1588 124.977 65.2604 125.29L59 127.5L65.2604 129.71Z" fill="white"/>
<path d="M9.76456 516.594C11.0223 517.033 11.9623 518.108 12.2404 519.41L15.3781 530.831C15.4311 531.056 15.7356 531.056 15.7886 530.831L18.9263 519.41C19.2043 518.108 20.1444 517.033 21.4021 516.594L30.1667 513.5L21.4021 510.406C20.1444 509.967 19.2043 508.892 18.9263 507.59L15.7886 496.169C15.7356 495.944 15.4311 495.944 15.3781 496.169L12.2404 507.59C11.9623 508.892 11.0223 509.967 9.76456 510.406L1 513.5L9.76456 516.594Z" fill="white"/>
</svg>
